G04 #@! TF.GenerationSoftware,KiCad,Pcbnew,10.0.6*
G04 #@! TF.CreationDate,2026-09-30T09:38:30-04:00*
G04 #@! TF.ProjectId,wallet_dmm,77616c6c-6574-45f6-946d-6d2e6b696361,3*
G04 #@! TF.SameCoordinates,Original*
G04 #@! TF.FileFunction,Legend,Top*
G04 #@! TF.FilePolarity,Positive*
%FSLAX46Y46*%
G04 Gerber Fmt 4.6, Leading zero omitted, Abs format (unit mm)*
G04 Created by KiCad (PCBNEW 10.0.6) date 2026-09-30 09:38:30*
%MOMM*%
%LPD*%
G01*
G04 APERTURE LIST*
G04 Aperture macros list*
%AMRoundRect*
0 Rectangle with rounded corners*
0 $1 Rounding radius*
0 $2 $3 $4 $5 $6 $7 $8 $9 X,Y pos of 4 corners*
0 Add a 4 corners polygon primitive as box body*
4,1,4,$2,$3,$4,$5,$6,$7,$8,$9,$2,$3,0*
0 Add four circle primitives for the rounded corners*
1,1,$1+$1,$2,$3*
1,1,$1+$1,$4,$5*
1,1,$1+$1,$6,$7*
1,1,$1+$1,$8,$9*
0 Add four rect primitives between the rounded corners*
20,1,$1+$1,$2,$3,$4,$5,0*
20,1,$1+$1,$4,$5,$6,$7,0*
20,1,$1+$1,$6,$7,$8,$9,0*
20,1,$1+$1,$8,$9,$2,$3,0*%
G04 Aperture macros list end*
%ADD10C,0.150000*%
%ADD11C,0.180000*%
%ADD12C,0.200000*%
%ADD13C,0.280000*%
%ADD14C,0.120000*%
%ADD15RoundRect,0.225000X0.250000X-0.225000X0.250000X0.225000X-0.250000X0.225000X-0.250000X-0.225000X0*%
%ADD16RoundRect,0.200000X-0.200000X-0.275000X0.200000X-0.275000X0.200000X0.275000X-0.200000X0.275000X0*%
%ADD17RoundRect,0.125000X0.125000X-0.625000X0.125000X0.625000X-0.125000X0.625000X-0.125000X-0.625000X0*%
%ADD18RoundRect,0.125000X0.625000X-0.125000X0.625000X0.125000X-0.625000X0.125000X-0.625000X-0.125000X0*%
%ADD19RoundRect,0.200000X0.275000X-0.200000X0.275000X0.200000X-0.275000X0.200000X-0.275000X-0.200000X0*%
%ADD20R,1.000000X0.750000*%
%ADD21R,1.700000X1.700000*%
%ADD22C,1.700000*%
%ADD23RoundRect,0.225000X-0.225000X-0.250000X0.225000X-0.250000X0.225000X0.250000X-0.225000X0.250000X0*%
%ADD24RoundRect,0.218750X0.256250X-0.218750X0.256250X0.218750X-0.256250X0.218750X-0.256250X-0.218750X0*%
%ADD25RoundRect,0.150000X0.150000X-0.587500X0.150000X0.587500X-0.150000X0.587500X-0.150000X-0.587500X0*%
%ADD26C,1.500000*%
%ADD27R,4.000000X1.200000*%
%ADD28RoundRect,0.250000X-0.750000X-0.750000X0.750000X-0.750000X0.750000X0.750000X-0.750000X0.750000X0*%
%ADD29C,2.000000*%
%ADD30RoundRect,0.150000X0.512500X0.150000X-0.512500X0.150000X-0.512500X-0.150000X0.512500X-0.150000X0*%
%ADD31RoundRect,0.250000X-0.312500X-0.625000X0.312500X-0.625000X0.312500X0.625000X-0.312500X0.625000X0*%
%ADD32RoundRect,0.150000X-0.587500X-0.150000X0.587500X-0.150000X0.587500X0.150000X-0.587500X0.150000X0*%
%ADD33C,0.650000*%
%ADD34RoundRect,0.150000X-0.150000X-0.575000X0.150000X-0.575000X0.150000X0.575000X-0.150000X0.575000X0*%
%ADD35RoundRect,0.075000X-0.075000X-0.650000X0.075000X-0.650000X0.075000X0.650000X-0.075000X0.650000X0*%
%ADD36O,1.000000X2.100000*%
%ADD37O,1.000000X1.600000*%
%ADD38RoundRect,0.150000X0.150000X-0.512500X0.150000X0.512500X-0.150000X0.512500X-0.150000X-0.512500X0*%
%ADD39R,0.850000X0.500000*%
%ADD40C,0.850000*%
%ADD41RoundRect,0.150000X-0.150000X-0.500000X0.150000X-0.500000X0.150000X0.500000X-0.150000X0.500000X0*%
%ADD42RoundRect,0.175000X-0.350000X-0.175000X0.350000X-0.175000X0.350000X0.175000X-0.350000X0.175000X0*%
G04 APERTURE END LIST*
D10*
X16028572Y7093896D02*
X15990476Y7055800D01*
X15990476Y7055800D02*
X15876191Y7017705D01*
X15876191Y7017705D02*
X15800000Y7017705D01*
X15800000Y7017705D02*
X15685714Y7055800D01*
X15685714Y7055800D02*
X15609524Y7131991D01*
X15609524Y7131991D02*
X15571429Y7208181D01*
X15571429Y7208181D02*
X15533333Y7360562D01*
X15533333Y7360562D02*
X15533333Y7474848D01*
X15533333Y7474848D02*
X15571429Y7627229D01*
X15571429Y7627229D02*
X15609524Y7703420D01*
X15609524Y7703420D02*
X15685714Y7779610D01*
X15685714Y7779610D02*
X15800000Y7817705D01*
X15800000Y7817705D02*
X15876191Y7817705D01*
X15876191Y7817705D02*
X15990476Y7779610D01*
X15990476Y7779610D02*
X16028572Y7741515D01*
X16371429Y7017705D02*
X16371429Y7817705D01*
X16371429Y7436753D02*
X16828572Y7436753D01*
X16828572Y7017705D02*
X16828572Y7817705D01*
X17628571Y7779610D02*
X17552381Y7817705D01*
X17552381Y7817705D02*
X17438095Y7817705D01*
X17438095Y7817705D02*
X17323809Y7779610D01*
X17323809Y7779610D02*
X17247619Y7703420D01*
X17247619Y7703420D02*
X17209524Y7627229D01*
X17209524Y7627229D02*
X17171428Y7474848D01*
X17171428Y7474848D02*
X17171428Y7360562D01*
X17171428Y7360562D02*
X17209524Y7208181D01*
X17209524Y7208181D02*
X17247619Y7131991D01*
X17247619Y7131991D02*
X17323809Y7055800D01*
X17323809Y7055800D02*
X17438095Y7017705D01*
X17438095Y7017705D02*
X17514286Y7017705D01*
X17514286Y7017705D02*
X17628571Y7055800D01*
X17628571Y7055800D02*
X17666667Y7093896D01*
X17666667Y7093896D02*
X17666667Y7360562D01*
X17666667Y7360562D02*
X17514286Y7360562D01*
X37466667Y35017705D02*
X37200000Y35398658D01*
X37009524Y35017705D02*
X37009524Y35817705D01*
X37009524Y35817705D02*
X37314286Y35817705D01*
X37314286Y35817705D02*
X37390476Y35779610D01*
X37390476Y35779610D02*
X37428571Y35741515D01*
X37428571Y35741515D02*
X37466667Y35665324D01*
X37466667Y35665324D02*
X37466667Y35551039D01*
X37466667Y35551039D02*
X37428571Y35474848D01*
X37428571Y35474848D02*
X37390476Y35436753D01*
X37390476Y35436753D02*
X37314286Y35398658D01*
X37314286Y35398658D02*
X37009524Y35398658D01*
X37733333Y35817705D02*
X38266667Y35017705D01*
X38266667Y35817705D02*
X37733333Y35017705D01*
X39790476Y35817705D02*
X40247619Y35817705D01*
X40019047Y35017705D02*
X40019047Y35817705D01*
X40438095Y35817705D02*
X40971429Y35017705D01*
X40971429Y35817705D02*
X40438095Y35017705D01*
X38011904Y5436753D02*
X38126190Y5398658D01*
X38126190Y5398658D02*
X38164285Y5360562D01*
X38164285Y5360562D02*
X38202381Y5284372D01*
X38202381Y5284372D02*
X38202381Y5170086D01*
X38202381Y5170086D02*
X38164285Y5093896D01*
X38164285Y5093896D02*
X38126190Y5055800D01*
X38126190Y5055800D02*
X38050000Y5017705D01*
X38050000Y5017705D02*
X37745238Y5017705D01*
X37745238Y5017705D02*
X37745238Y5817705D01*
X37745238Y5817705D02*
X38011904Y5817705D01*
X38011904Y5817705D02*
X38088095Y5779610D01*
X38088095Y5779610D02*
X38126190Y5741515D01*
X38126190Y5741515D02*
X38164285Y5665324D01*
X38164285Y5665324D02*
X38164285Y5589134D01*
X38164285Y5589134D02*
X38126190Y5512943D01*
X38126190Y5512943D02*
X38088095Y5474848D01*
X38088095Y5474848D02*
X38011904Y5436753D01*
X38011904Y5436753D02*
X37745238Y5436753D01*
X38507142Y5246277D02*
X38888095Y5246277D01*
X38430952Y5017705D02*
X38697619Y5817705D01*
X38697619Y5817705D02*
X38964285Y5017705D01*
X39116666Y5817705D02*
X39573809Y5817705D01*
X39345237Y5017705D02*
X39345237Y5817705D01*
X39840476Y5322467D02*
X40450000Y5322467D01*
X40145238Y5017705D02*
X40145238Y5627229D01*
X42316666Y5436753D02*
X42430952Y5398658D01*
X42430952Y5398658D02*
X42469047Y5360562D01*
X42469047Y5360562D02*
X42507143Y5284372D01*
X42507143Y5284372D02*
X42507143Y5170086D01*
X42507143Y5170086D02*
X42469047Y5093896D01*
X42469047Y5093896D02*
X42430952Y5055800D01*
X42430952Y5055800D02*
X42354762Y5017705D01*
X42354762Y5017705D02*
X42050000Y5017705D01*
X42050000Y5017705D02*
X42050000Y5817705D01*
X42050000Y5817705D02*
X42316666Y5817705D01*
X42316666Y5817705D02*
X42392857Y5779610D01*
X42392857Y5779610D02*
X42430952Y5741515D01*
X42430952Y5741515D02*
X42469047Y5665324D01*
X42469047Y5665324D02*
X42469047Y5589134D01*
X42469047Y5589134D02*
X42430952Y5512943D01*
X42430952Y5512943D02*
X42392857Y5474848D01*
X42392857Y5474848D02*
X42316666Y5436753D01*
X42316666Y5436753D02*
X42050000Y5436753D01*
X42811904Y5246277D02*
X43192857Y5246277D01*
X42735714Y5017705D02*
X43002381Y5817705D01*
X43002381Y5817705D02*
X43269047Y5017705D01*
X43421428Y5817705D02*
X43878571Y5817705D01*
X43649999Y5017705D02*
X43649999Y5817705D01*
X44145238Y5322467D02*
X44754762Y5322467D01*
X49852380Y49017705D02*
X50347618Y49017705D01*
X50347618Y49017705D02*
X50080952Y48712943D01*
X50080952Y48712943D02*
X50195237Y48712943D01*
X50195237Y48712943D02*
X50271428Y48674848D01*
X50271428Y48674848D02*
X50309523Y48636753D01*
X50309523Y48636753D02*
X50347618Y48560562D01*
X50347618Y48560562D02*
X50347618Y48370086D01*
X50347618Y48370086D02*
X50309523Y48293896D01*
X50309523Y48293896D02*
X50271428Y48255800D01*
X50271428Y48255800D02*
X50195237Y48217705D01*
X50195237Y48217705D02*
X49966666Y48217705D01*
X49966666Y48217705D02*
X49890475Y48255800D01*
X49890475Y48255800D02*
X49852380Y48293896D01*
X50576190Y49017705D02*
X50842857Y48217705D01*
X50842857Y48217705D02*
X51109523Y49017705D01*
X51528571Y49017705D02*
X51604761Y49017705D01*
X51604761Y49017705D02*
X51680952Y48979610D01*
X51680952Y48979610D02*
X51719047Y48941515D01*
X51719047Y48941515D02*
X51757142Y48865324D01*
X51757142Y48865324D02*
X51795237Y48712943D01*
X51795237Y48712943D02*
X51795237Y48522467D01*
X51795237Y48522467D02*
X51757142Y48370086D01*
X51757142Y48370086D02*
X51719047Y48293896D01*
X51719047Y48293896D02*
X51680952Y48255800D01*
X51680952Y48255800D02*
X51604761Y48217705D01*
X51604761Y48217705D02*
X51528571Y48217705D01*
X51528571Y48217705D02*
X51452380Y48255800D01*
X51452380Y48255800D02*
X51414285Y48293896D01*
X51414285Y48293896D02*
X51376190Y48370086D01*
X51376190Y48370086D02*
X51338094Y48522467D01*
X51338094Y48522467D02*
X51338094Y48712943D01*
X51338094Y48712943D02*
X51376190Y48865324D01*
X51376190Y48865324D02*
X51414285Y48941515D01*
X51414285Y48941515D02*
X51452380Y48979610D01*
X51452380Y48979610D02*
X51528571Y49017705D01*
X52747619Y48217705D02*
X52747619Y49017705D01*
X52747619Y49017705D02*
X52938095Y49017705D01*
X52938095Y49017705D02*
X53052381Y48979610D01*
X53052381Y48979610D02*
X53128571Y48903420D01*
X53128571Y48903420D02*
X53166666Y48827229D01*
X53166666Y48827229D02*
X53204762Y48674848D01*
X53204762Y48674848D02*
X53204762Y48560562D01*
X53204762Y48560562D02*
X53166666Y48408181D01*
X53166666Y48408181D02*
X53128571Y48331991D01*
X53128571Y48331991D02*
X53052381Y48255800D01*
X53052381Y48255800D02*
X52938095Y48217705D01*
X52938095Y48217705D02*
X52747619Y48217705D01*
X53547619Y48217705D02*
X53547619Y49017705D01*
X54080952Y49017705D02*
X54233333Y49017705D01*
X54233333Y49017705D02*
X54309523Y48979610D01*
X54309523Y48979610D02*
X54385714Y48903420D01*
X54385714Y48903420D02*
X54423809Y48751039D01*
X54423809Y48751039D02*
X54423809Y48484372D01*
X54423809Y48484372D02*
X54385714Y48331991D01*
X54385714Y48331991D02*
X54309523Y48255800D01*
X54309523Y48255800D02*
X54233333Y48217705D01*
X54233333Y48217705D02*
X54080952Y48217705D01*
X54080952Y48217705D02*
X54004761Y48255800D01*
X54004761Y48255800D02*
X53928571Y48331991D01*
X53928571Y48331991D02*
X53890475Y48484372D01*
X53890475Y48484372D02*
X53890475Y48751039D01*
X53890475Y48751039D02*
X53928571Y48903420D01*
X53928571Y48903420D02*
X54004761Y48979610D01*
X54004761Y48979610D02*
X54080952Y49017705D01*
X55833333Y48293896D02*
X55795237Y48255800D01*
X55795237Y48255800D02*
X55680952Y48217705D01*
X55680952Y48217705D02*
X55604761Y48217705D01*
X55604761Y48217705D02*
X55490475Y48255800D01*
X55490475Y48255800D02*
X55414285Y48331991D01*
X55414285Y48331991D02*
X55376190Y48408181D01*
X55376190Y48408181D02*
X55338094Y48560562D01*
X55338094Y48560562D02*
X55338094Y48674848D01*
X55338094Y48674848D02*
X55376190Y48827229D01*
X55376190Y48827229D02*
X55414285Y48903420D01*
X55414285Y48903420D02*
X55490475Y48979610D01*
X55490475Y48979610D02*
X55604761Y49017705D01*
X55604761Y49017705D02*
X55680952Y49017705D01*
X55680952Y49017705D02*
X55795237Y48979610D01*
X55795237Y48979610D02*
X55833333Y48941515D01*
X56557142Y48217705D02*
X56176190Y48217705D01*
X56176190Y48217705D02*
X56176190Y49017705D01*
X56823809Y48217705D02*
X56823809Y49017705D01*
X57280952Y48217705D02*
X56938094Y48674848D01*
X57280952Y49017705D02*
X56823809Y48560562D01*
X58690476Y48217705D02*
X58423809Y48598658D01*
X58233333Y48217705D02*
X58233333Y49017705D01*
X58233333Y49017705D02*
X58538095Y49017705D01*
X58538095Y49017705D02*
X58614285Y48979610D01*
X58614285Y48979610D02*
X58652380Y48941515D01*
X58652380Y48941515D02*
X58690476Y48865324D01*
X58690476Y48865324D02*
X58690476Y48751039D01*
X58690476Y48751039D02*
X58652380Y48674848D01*
X58652380Y48674848D02*
X58614285Y48636753D01*
X58614285Y48636753D02*
X58538095Y48598658D01*
X58538095Y48598658D02*
X58233333Y48598658D01*
X58995237Y48255800D02*
X59109523Y48217705D01*
X59109523Y48217705D02*
X59299999Y48217705D01*
X59299999Y48217705D02*
X59376190Y48255800D01*
X59376190Y48255800D02*
X59414285Y48293896D01*
X59414285Y48293896D02*
X59452380Y48370086D01*
X59452380Y48370086D02*
X59452380Y48446277D01*
X59452380Y48446277D02*
X59414285Y48522467D01*
X59414285Y48522467D02*
X59376190Y48560562D01*
X59376190Y48560562D02*
X59299999Y48598658D01*
X59299999Y48598658D02*
X59147618Y48636753D01*
X59147618Y48636753D02*
X59071428Y48674848D01*
X59071428Y48674848D02*
X59033333Y48712943D01*
X59033333Y48712943D02*
X58995237Y48789134D01*
X58995237Y48789134D02*
X58995237Y48865324D01*
X58995237Y48865324D02*
X59033333Y48941515D01*
X59033333Y48941515D02*
X59071428Y48979610D01*
X59071428Y48979610D02*
X59147618Y49017705D01*
X59147618Y49017705D02*
X59338095Y49017705D01*
X59338095Y49017705D02*
X59452380Y48979610D01*
X59680952Y49017705D02*
X60138095Y49017705D01*
X59909523Y48217705D02*
X59909523Y49017705D01*
X61433333Y48979610D02*
X61357143Y49017705D01*
X61357143Y49017705D02*
X61242857Y49017705D01*
X61242857Y49017705D02*
X61128571Y48979610D01*
X61128571Y48979610D02*
X61052381Y48903420D01*
X61052381Y48903420D02*
X61014286Y48827229D01*
X61014286Y48827229D02*
X60976190Y48674848D01*
X60976190Y48674848D02*
X60976190Y48560562D01*
X60976190Y48560562D02*
X61014286Y48408181D01*
X61014286Y48408181D02*
X61052381Y48331991D01*
X61052381Y48331991D02*
X61128571Y48255800D01*
X61128571Y48255800D02*
X61242857Y48217705D01*
X61242857Y48217705D02*
X61319048Y48217705D01*
X61319048Y48217705D02*
X61433333Y48255800D01*
X61433333Y48255800D02*
X61471429Y48293896D01*
X61471429Y48293896D02*
X61471429Y48560562D01*
X61471429Y48560562D02*
X61319048Y48560562D01*
X61814286Y48217705D02*
X61814286Y49017705D01*
X61814286Y49017705D02*
X62271429Y48217705D01*
X62271429Y48217705D02*
X62271429Y49017705D01*
X62652381Y48217705D02*
X62652381Y49017705D01*
X62652381Y49017705D02*
X62842857Y49017705D01*
X62842857Y49017705D02*
X62957143Y48979610D01*
X62957143Y48979610D02*
X63033333Y48903420D01*
X63033333Y48903420D02*
X63071428Y48827229D01*
X63071428Y48827229D02*
X63109524Y48674848D01*
X63109524Y48674848D02*
X63109524Y48560562D01*
X63109524Y48560562D02*
X63071428Y48408181D01*
X63071428Y48408181D02*
X63033333Y48331991D01*
X63033333Y48331991D02*
X62957143Y48255800D01*
X62957143Y48255800D02*
X62842857Y48217705D01*
X62842857Y48217705D02*
X62652381Y48217705D01*
X54485715Y6017705D02*
X54638096Y6017705D01*
X54638096Y6017705D02*
X54714286Y5979610D01*
X54714286Y5979610D02*
X54790477Y5903420D01*
X54790477Y5903420D02*
X54828572Y5751039D01*
X54828572Y5751039D02*
X54828572Y5484372D01*
X54828572Y5484372D02*
X54790477Y5331991D01*
X54790477Y5331991D02*
X54714286Y5255800D01*
X54714286Y5255800D02*
X54638096Y5217705D01*
X54638096Y5217705D02*
X54485715Y5217705D01*
X54485715Y5217705D02*
X54409524Y5255800D01*
X54409524Y5255800D02*
X54333334Y5331991D01*
X54333334Y5331991D02*
X54295238Y5484372D01*
X54295238Y5484372D02*
X54295238Y5751039D01*
X54295238Y5751039D02*
X54333334Y5903420D01*
X54333334Y5903420D02*
X54409524Y5979610D01*
X54409524Y5979610D02*
X54485715Y6017705D01*
X55171429Y5217705D02*
X55171429Y6017705D01*
X55171429Y6017705D02*
X55628572Y5217705D01*
X55628572Y5217705D02*
X55628572Y6017705D01*
X57990477Y6017705D02*
X58142858Y6017705D01*
X58142858Y6017705D02*
X58219048Y5979610D01*
X58219048Y5979610D02*
X58295239Y5903420D01*
X58295239Y5903420D02*
X58333334Y5751039D01*
X58333334Y5751039D02*
X58333334Y5484372D01*
X58333334Y5484372D02*
X58295239Y5331991D01*
X58295239Y5331991D02*
X58219048Y5255800D01*
X58219048Y5255800D02*
X58142858Y5217705D01*
X58142858Y5217705D02*
X57990477Y5217705D01*
X57990477Y5217705D02*
X57914286Y5255800D01*
X57914286Y5255800D02*
X57838096Y5331991D01*
X57838096Y5331991D02*
X57800000Y5484372D01*
X57800000Y5484372D02*
X57800000Y5751039D01*
X57800000Y5751039D02*
X57838096Y5903420D01*
X57838096Y5903420D02*
X57914286Y5979610D01*
X57914286Y5979610D02*
X57990477Y6017705D01*
X58942857Y5636753D02*
X58676191Y5636753D01*
X58676191Y5217705D02*
X58676191Y6017705D01*
X58676191Y6017705D02*
X59057143Y6017705D01*
X59628571Y5636753D02*
X59361905Y5636753D01*
X59361905Y5217705D02*
X59361905Y6017705D01*
X59361905Y6017705D02*
X59742857Y6017705D01*
X65266666Y4836753D02*
X65380952Y4798658D01*
X65380952Y4798658D02*
X65419047Y4760562D01*
X65419047Y4760562D02*
X65457143Y4684372D01*
X65457143Y4684372D02*
X65457143Y4570086D01*
X65457143Y4570086D02*
X65419047Y4493896D01*
X65419047Y4493896D02*
X65380952Y4455800D01*
X65380952Y4455800D02*
X65304762Y4417705D01*
X65304762Y4417705D02*
X65000000Y4417705D01*
X65000000Y4417705D02*
X65000000Y5217705D01*
X65000000Y5217705D02*
X65266666Y5217705D01*
X65266666Y5217705D02*
X65342857Y5179610D01*
X65342857Y5179610D02*
X65380952Y5141515D01*
X65380952Y5141515D02*
X65419047Y5065324D01*
X65419047Y5065324D02*
X65419047Y4989134D01*
X65419047Y4989134D02*
X65380952Y4912943D01*
X65380952Y4912943D02*
X65342857Y4874848D01*
X65342857Y4874848D02*
X65266666Y4836753D01*
X65266666Y4836753D02*
X65000000Y4836753D01*
X65761904Y4646277D02*
X66142857Y4646277D01*
X65685714Y4417705D02*
X65952381Y5217705D01*
X65952381Y5217705D02*
X66219047Y4417705D01*
X66371428Y5217705D02*
X66828571Y5217705D01*
X66599999Y4417705D02*
X66599999Y5217705D01*
X68238095Y5217705D02*
X68733333Y5217705D01*
X68733333Y5217705D02*
X68466667Y4912943D01*
X68466667Y4912943D02*
X68580952Y4912943D01*
X68580952Y4912943D02*
X68657143Y4874848D01*
X68657143Y4874848D02*
X68695238Y4836753D01*
X68695238Y4836753D02*
X68733333Y4760562D01*
X68733333Y4760562D02*
X68733333Y4570086D01*
X68733333Y4570086D02*
X68695238Y4493896D01*
X68695238Y4493896D02*
X68657143Y4455800D01*
X68657143Y4455800D02*
X68580952Y4417705D01*
X68580952Y4417705D02*
X68352381Y4417705D01*
X68352381Y4417705D02*
X68276190Y4455800D01*
X68276190Y4455800D02*
X68238095Y4493896D01*
X68961905Y5217705D02*
X69228572Y4417705D01*
X69228572Y4417705D02*
X69495238Y5217705D01*
X69914286Y5217705D02*
X69990476Y5217705D01*
X69990476Y5217705D02*
X70066667Y5179610D01*
X70066667Y5179610D02*
X70104762Y5141515D01*
X70104762Y5141515D02*
X70142857Y5065324D01*
X70142857Y5065324D02*
X70180952Y4912943D01*
X70180952Y4912943D02*
X70180952Y4722467D01*
X70180952Y4722467D02*
X70142857Y4570086D01*
X70142857Y4570086D02*
X70104762Y4493896D01*
X70104762Y4493896D02*
X70066667Y4455800D01*
X70066667Y4455800D02*
X69990476Y4417705D01*
X69990476Y4417705D02*
X69914286Y4417705D01*
X69914286Y4417705D02*
X69838095Y4455800D01*
X69838095Y4455800D02*
X69800000Y4493896D01*
X69800000Y4493896D02*
X69761905Y4570086D01*
X69761905Y4570086D02*
X69723809Y4722467D01*
X69723809Y4722467D02*
X69723809Y4912943D01*
X69723809Y4912943D02*
X69761905Y5065324D01*
X69761905Y5065324D02*
X69800000Y5141515D01*
X69800000Y5141515D02*
X69838095Y5179610D01*
X69838095Y5179610D02*
X69914286Y5217705D01*
X72161905Y5179610D02*
X72085715Y5217705D01*
X72085715Y5217705D02*
X71971429Y5217705D01*
X71971429Y5217705D02*
X71857143Y5179610D01*
X71857143Y5179610D02*
X71780953Y5103420D01*
X71780953Y5103420D02*
X71742858Y5027229D01*
X71742858Y5027229D02*
X71704762Y4874848D01*
X71704762Y4874848D02*
X71704762Y4760562D01*
X71704762Y4760562D02*
X71742858Y4608181D01*
X71742858Y4608181D02*
X71780953Y4531991D01*
X71780953Y4531991D02*
X71857143Y4455800D01*
X71857143Y4455800D02*
X71971429Y4417705D01*
X71971429Y4417705D02*
X72047620Y4417705D01*
X72047620Y4417705D02*
X72161905Y4455800D01*
X72161905Y4455800D02*
X72200001Y4493896D01*
X72200001Y4493896D02*
X72200001Y4760562D01*
X72200001Y4760562D02*
X72047620Y4760562D01*
X72542858Y4417705D02*
X72542858Y5217705D01*
X72542858Y5217705D02*
X73000001Y4417705D01*
X73000001Y4417705D02*
X73000001Y5217705D01*
X73380953Y4417705D02*
X73380953Y5217705D01*
X73380953Y5217705D02*
X73571429Y5217705D01*
X73571429Y5217705D02*
X73685715Y5179610D01*
X73685715Y5179610D02*
X73761905Y5103420D01*
X73761905Y5103420D02*
X73800000Y5027229D01*
X73800000Y5027229D02*
X73838096Y4874848D01*
X73838096Y4874848D02*
X73838096Y4760562D01*
X73838096Y4760562D02*
X73800000Y4608181D01*
X73800000Y4608181D02*
X73761905Y4531991D01*
X73761905Y4531991D02*
X73685715Y4455800D01*
X73685715Y4455800D02*
X73571429Y4417705D01*
X73571429Y4417705D02*
X73380953Y4417705D01*
X70838095Y44217705D02*
X70571428Y44598658D01*
X70380952Y44217705D02*
X70380952Y45017705D01*
X70380952Y45017705D02*
X70685714Y45017705D01*
X70685714Y45017705D02*
X70761904Y44979610D01*
X70761904Y44979610D02*
X70799999Y44941515D01*
X70799999Y44941515D02*
X70838095Y44865324D01*
X70838095Y44865324D02*
X70838095Y44751039D01*
X70838095Y44751039D02*
X70799999Y44674848D01*
X70799999Y44674848D02*
X70761904Y44636753D01*
X70761904Y44636753D02*
X70685714Y44598658D01*
X70685714Y44598658D02*
X70380952Y44598658D01*
X71180952Y44636753D02*
X71447618Y44636753D01*
X71561904Y44217705D02*
X71180952Y44217705D01*
X71180952Y44217705D02*
X71180952Y45017705D01*
X71180952Y45017705D02*
X71561904Y45017705D01*
X71866666Y44255800D02*
X71980952Y44217705D01*
X71980952Y44217705D02*
X72171428Y44217705D01*
X72171428Y44217705D02*
X72247619Y44255800D01*
X72247619Y44255800D02*
X72285714Y44293896D01*
X72285714Y44293896D02*
X72323809Y44370086D01*
X72323809Y44370086D02*
X72323809Y44446277D01*
X72323809Y44446277D02*
X72285714Y44522467D01*
X72285714Y44522467D02*
X72247619Y44560562D01*
X72247619Y44560562D02*
X72171428Y44598658D01*
X72171428Y44598658D02*
X72019047Y44636753D01*
X72019047Y44636753D02*
X71942857Y44674848D01*
X71942857Y44674848D02*
X71904762Y44712943D01*
X71904762Y44712943D02*
X71866666Y44789134D01*
X71866666Y44789134D02*
X71866666Y44865324D01*
X71866666Y44865324D02*
X71904762Y44941515D01*
X71904762Y44941515D02*
X71942857Y44979610D01*
X71942857Y44979610D02*
X72019047Y45017705D01*
X72019047Y45017705D02*
X72209524Y45017705D01*
X72209524Y45017705D02*
X72323809Y44979610D01*
X72666667Y44636753D02*
X72933333Y44636753D01*
X73047619Y44217705D02*
X72666667Y44217705D01*
X72666667Y44217705D02*
X72666667Y45017705D01*
X72666667Y45017705D02*
X73047619Y45017705D01*
X73276191Y45017705D02*
X73733334Y45017705D01*
X73504762Y44217705D02*
X73504762Y45017705D01*
X46577505Y50455800D02*
X46691791Y50417705D01*
X46691791Y50417705D02*
X46882267Y50417705D01*
X46882267Y50417705D02*
X46958458Y50455800D01*
X46958458Y50455800D02*
X46996553Y50493896D01*
X46996553Y50493896D02*
X47034648Y50570086D01*
X47034648Y50570086D02*
X47034648Y50646277D01*
X47034648Y50646277D02*
X46996553Y50722467D01*
X46996553Y50722467D02*
X46958458Y50760562D01*
X46958458Y50760562D02*
X46882267Y50798658D01*
X46882267Y50798658D02*
X46729886Y50836753D01*
X46729886Y50836753D02*
X46653696Y50874848D01*
X46653696Y50874848D02*
X46615601Y50912943D01*
X46615601Y50912943D02*
X46577505Y50989134D01*
X46577505Y50989134D02*
X46577505Y51065324D01*
X46577505Y51065324D02*
X46615601Y51141515D01*
X46615601Y51141515D02*
X46653696Y51179610D01*
X46653696Y51179610D02*
X46729886Y51217705D01*
X46729886Y51217705D02*
X46920363Y51217705D01*
X46920363Y51217705D02*
X47034648Y51179610D01*
X47301315Y51217705D02*
X47491791Y50417705D01*
X47491791Y50417705D02*
X47644172Y50989134D01*
X47644172Y50989134D02*
X47796553Y50417705D01*
X47796553Y50417705D02*
X47987030Y51217705D01*
X48291792Y50417705D02*
X48291792Y51217705D01*
X48291792Y51217705D02*
X48482268Y51217705D01*
X48482268Y51217705D02*
X48596554Y51179610D01*
X48596554Y51179610D02*
X48672744Y51103420D01*
X48672744Y51103420D02*
X48710839Y51027229D01*
X48710839Y51027229D02*
X48748935Y50874848D01*
X48748935Y50874848D02*
X48748935Y50760562D01*
X48748935Y50760562D02*
X48710839Y50608181D01*
X48710839Y50608181D02*
X48672744Y50531991D01*
X48672744Y50531991D02*
X48596554Y50455800D01*
X48596554Y50455800D02*
X48482268Y50417705D01*
X48482268Y50417705D02*
X48291792Y50417705D01*
X57827255Y39671443D02*
X57527255Y40100015D01*
X57312969Y39671443D02*
X57312969Y40571443D01*
X57312969Y40571443D02*
X57655826Y40571443D01*
X57655826Y40571443D02*
X57741541Y40528586D01*
X57741541Y40528586D02*
X57784398Y40485729D01*
X57784398Y40485729D02*
X57827255Y40400015D01*
X57827255Y40400015D02*
X57827255Y40271443D01*
X57827255Y40271443D02*
X57784398Y40185729D01*
X57784398Y40185729D02*
X57741541Y40142872D01*
X57741541Y40142872D02*
X57655826Y40100015D01*
X57655826Y40100015D02*
X57312969Y40100015D01*
X58212969Y40142872D02*
X58512969Y40142872D01*
X58641541Y39671443D02*
X58212969Y39671443D01*
X58212969Y39671443D02*
X58212969Y40571443D01*
X58212969Y40571443D02*
X58641541Y40571443D01*
X58898684Y40571443D02*
X59198684Y39671443D01*
X59198684Y39671443D02*
X59498684Y40571443D01*
X60398684Y40571443D02*
X60955827Y40571443D01*
X60955827Y40571443D02*
X60655827Y40228586D01*
X60655827Y40228586D02*
X60784398Y40228586D01*
X60784398Y40228586D02*
X60870113Y40185729D01*
X60870113Y40185729D02*
X60912970Y40142872D01*
X60912970Y40142872D02*
X60955827Y40057158D01*
X60955827Y40057158D02*
X60955827Y39842872D01*
X60955827Y39842872D02*
X60912970Y39757158D01*
X60912970Y39757158D02*
X60870113Y39714300D01*
X60870113Y39714300D02*
X60784398Y39671443D01*
X60784398Y39671443D02*
X60527255Y39671443D01*
X60527255Y39671443D02*
X60441541Y39714300D01*
X60441541Y39714300D02*
X60398684Y39757158D01*
X57312969Y35971443D02*
X57312969Y36871443D01*
X57312969Y36871443D02*
X57827255Y35971443D01*
X57827255Y35971443D02*
X57827255Y36871443D01*
X58427255Y36871443D02*
X58598683Y36871443D01*
X58598683Y36871443D02*
X58684398Y36828586D01*
X58684398Y36828586D02*
X58770112Y36742872D01*
X58770112Y36742872D02*
X58812969Y36571443D01*
X58812969Y36571443D02*
X58812969Y36271443D01*
X58812969Y36271443D02*
X58770112Y36100015D01*
X58770112Y36100015D02*
X58684398Y36014300D01*
X58684398Y36014300D02*
X58598683Y35971443D01*
X58598683Y35971443D02*
X58427255Y35971443D01*
X58427255Y35971443D02*
X58341541Y36014300D01*
X58341541Y36014300D02*
X58255826Y36100015D01*
X58255826Y36100015D02*
X58212969Y36271443D01*
X58212969Y36271443D02*
X58212969Y36571443D01*
X58212969Y36571443D02*
X58255826Y36742872D01*
X58255826Y36742872D02*
X58341541Y36828586D01*
X58341541Y36828586D02*
X58427255Y36871443D01*
X59070112Y36871443D02*
X59584398Y36871443D01*
X59327255Y35971443D02*
X59327255Y36871443D01*
X60870111Y36442872D02*
X60570111Y36442872D01*
X60570111Y35971443D02*
X60570111Y36871443D01*
X60570111Y36871443D02*
X60998683Y36871443D01*
X61512969Y36871443D02*
X61684397Y36871443D01*
X61684397Y36871443D02*
X61770112Y36828586D01*
X61770112Y36828586D02*
X61855826Y36742872D01*
X61855826Y36742872D02*
X61898683Y36571443D01*
X61898683Y36571443D02*
X61898683Y36271443D01*
X61898683Y36271443D02*
X61855826Y36100015D01*
X61855826Y36100015D02*
X61770112Y36014300D01*
X61770112Y36014300D02*
X61684397Y35971443D01*
X61684397Y35971443D02*
X61512969Y35971443D01*
X61512969Y35971443D02*
X61427255Y36014300D01*
X61427255Y36014300D02*
X61341540Y36100015D01*
X61341540Y36100015D02*
X61298683Y36271443D01*
X61298683Y36271443D02*
X61298683Y36571443D01*
X61298683Y36571443D02*
X61341540Y36742872D01*
X61341540Y36742872D02*
X61427255Y36828586D01*
X61427255Y36828586D02*
X61512969Y36871443D01*
X62798683Y35971443D02*
X62498683Y36400015D01*
X62284397Y35971443D02*
X62284397Y36871443D01*
X62284397Y36871443D02*
X62627254Y36871443D01*
X62627254Y36871443D02*
X62712969Y36828586D01*
X62712969Y36828586D02*
X62755826Y36785729D01*
X62755826Y36785729D02*
X62798683Y36700015D01*
X62798683Y36700015D02*
X62798683Y36571443D01*
X62798683Y36571443D02*
X62755826Y36485729D01*
X62755826Y36485729D02*
X62712969Y36442872D01*
X62712969Y36442872D02*
X62627254Y36400015D01*
X62627254Y36400015D02*
X62284397Y36400015D01*
X63870111Y35971443D02*
X63870111Y36871443D01*
X63870111Y36871443D02*
X64170111Y36228586D01*
X64170111Y36228586D02*
X64470111Y36871443D01*
X64470111Y36871443D02*
X64470111Y35971443D01*
X64855825Y36228586D02*
X65284397Y36228586D01*
X64770111Y35971443D02*
X65070111Y36871443D01*
X65070111Y36871443D02*
X65370111Y35971443D01*
X65670111Y35971443D02*
X65670111Y36871443D01*
X66098682Y35971443D02*
X66098682Y36871443D01*
X66098682Y36871443D02*
X66612968Y35971443D01*
X66612968Y35971443D02*
X66612968Y36871443D01*
X66998682Y36014300D02*
X67127254Y35971443D01*
X67127254Y35971443D02*
X67341539Y35971443D01*
X67341539Y35971443D02*
X67427254Y36014300D01*
X67427254Y36014300D02*
X67470111Y36057158D01*
X67470111Y36057158D02*
X67512968Y36142872D01*
X67512968Y36142872D02*
X67512968Y36228586D01*
X67512968Y36228586D02*
X67470111Y36314300D01*
X67470111Y36314300D02*
X67427254Y36357158D01*
X67427254Y36357158D02*
X67341539Y36400015D01*
X67341539Y36400015D02*
X67170111Y36442872D01*
X67170111Y36442872D02*
X67084396Y36485729D01*
X67084396Y36485729D02*
X67041539Y36528586D01*
X67041539Y36528586D02*
X66998682Y36614300D01*
X66998682Y36614300D02*
X66998682Y36700015D01*
X66998682Y36700015D02*
X67041539Y36785729D01*
X67041539Y36785729D02*
X67084396Y36828586D01*
X67084396Y36828586D02*
X67170111Y36871443D01*
X67170111Y36871443D02*
X67384396Y36871443D01*
X67384396Y36871443D02*
X67512968Y36828586D01*
D11*
X57246992Y38573003D02*
X57804135Y38573003D01*
X57804135Y38573003D02*
X57504135Y38230146D01*
X57504135Y38230146D02*
X57632706Y38230146D01*
X57632706Y38230146D02*
X57718421Y38187289D01*
X57718421Y38187289D02*
X57761278Y38144432D01*
X57761278Y38144432D02*
X57804135Y38058718D01*
X57804135Y38058718D02*
X57804135Y37844432D01*
X57804135Y37844432D02*
X57761278Y37758718D01*
X57761278Y37758718D02*
X57718421Y37715860D01*
X57718421Y37715860D02*
X57632706Y37673003D01*
X57632706Y37673003D02*
X57375563Y37673003D01*
X57375563Y37673003D02*
X57289849Y37715860D01*
X57289849Y37715860D02*
X57246992Y37758718D01*
X58361278Y38573003D02*
X58446992Y38573003D01*
X58446992Y38573003D02*
X58532706Y38530146D01*
X58532706Y38530146D02*
X58575564Y38487289D01*
X58575564Y38487289D02*
X58618421Y38401575D01*
X58618421Y38401575D02*
X58661278Y38230146D01*
X58661278Y38230146D02*
X58661278Y38015860D01*
X58661278Y38015860D02*
X58618421Y37844432D01*
X58618421Y37844432D02*
X58575564Y37758718D01*
X58575564Y37758718D02*
X58532706Y37715860D01*
X58532706Y37715860D02*
X58446992Y37673003D01*
X58446992Y37673003D02*
X58361278Y37673003D01*
X58361278Y37673003D02*
X58275564Y37715860D01*
X58275564Y37715860D02*
X58232706Y37758718D01*
X58232706Y37758718D02*
X58189849Y37844432D01*
X58189849Y37844432D02*
X58146992Y38015860D01*
X58146992Y38015860D02*
X58146992Y38230146D01*
X58146992Y38230146D02*
X58189849Y38401575D01*
X58189849Y38401575D02*
X58232706Y38487289D01*
X58232706Y38487289D02*
X58275564Y38530146D01*
X58275564Y38530146D02*
X58361278Y38573003D01*
X59604135Y38573003D02*
X59904135Y37673003D01*
X59904135Y37673003D02*
X60204135Y38573003D01*
X61189849Y37673003D02*
X61189849Y38573003D01*
X61189849Y38573003D02*
X61404135Y38573003D01*
X61404135Y38573003D02*
X61532706Y38530146D01*
X61532706Y38530146D02*
X61618421Y38444432D01*
X61618421Y38444432D02*
X61661278Y38358718D01*
X61661278Y38358718D02*
X61704135Y38187289D01*
X61704135Y38187289D02*
X61704135Y38058718D01*
X61704135Y38058718D02*
X61661278Y37887289D01*
X61661278Y37887289D02*
X61618421Y37801575D01*
X61618421Y37801575D02*
X61532706Y37715860D01*
X61532706Y37715860D02*
X61404135Y37673003D01*
X61404135Y37673003D02*
X61189849Y37673003D01*
X62604135Y37758718D02*
X62561278Y37715860D01*
X62561278Y37715860D02*
X62432706Y37673003D01*
X62432706Y37673003D02*
X62346992Y37673003D01*
X62346992Y37673003D02*
X62218421Y37715860D01*
X62218421Y37715860D02*
X62132706Y37801575D01*
X62132706Y37801575D02*
X62089849Y37887289D01*
X62089849Y37887289D02*
X62046992Y38058718D01*
X62046992Y38058718D02*
X62046992Y38187289D01*
X62046992Y38187289D02*
X62089849Y38358718D01*
X62089849Y38358718D02*
X62132706Y38444432D01*
X62132706Y38444432D02*
X62218421Y38530146D01*
X62218421Y38530146D02*
X62346992Y38573003D01*
X62346992Y38573003D02*
X62432706Y38573003D01*
X62432706Y38573003D02*
X62561278Y38530146D01*
X62561278Y38530146D02*
X62604135Y38487289D01*
X63675563Y37673003D02*
X63675563Y38573003D01*
X63675563Y38573003D02*
X63975563Y37930146D01*
X63975563Y37930146D02*
X64275563Y38573003D01*
X64275563Y38573003D02*
X64275563Y37673003D01*
X64661277Y37930146D02*
X65089849Y37930146D01*
X64575563Y37673003D02*
X64875563Y38573003D01*
X64875563Y38573003D02*
X65175563Y37673003D01*
X65389849Y38573003D02*
X65989849Y37673003D01*
X65989849Y38573003D02*
X65389849Y37673003D01*
D12*
X8261905Y25213496D02*
X8738095Y25213496D01*
X8166667Y24927781D02*
X8500000Y25927781D01*
X8500000Y25927781D02*
X8833333Y24927781D01*
X19571428Y25451591D02*
X19714285Y25403972D01*
X19714285Y25403972D02*
X19761904Y25356353D01*
X19761904Y25356353D02*
X19809523Y25261115D01*
X19809523Y25261115D02*
X19809523Y25118258D01*
X19809523Y25118258D02*
X19761904Y25023020D01*
X19761904Y25023020D02*
X19714285Y24975400D01*
X19714285Y24975400D02*
X19619047Y24927781D01*
X19619047Y24927781D02*
X19238095Y24927781D01*
X19238095Y24927781D02*
X19238095Y25927781D01*
X19238095Y25927781D02*
X19571428Y25927781D01*
X19571428Y25927781D02*
X19666666Y25880162D01*
X19666666Y25880162D02*
X19714285Y25832543D01*
X19714285Y25832543D02*
X19761904Y25737305D01*
X19761904Y25737305D02*
X19761904Y25642067D01*
X19761904Y25642067D02*
X19714285Y25546829D01*
X19714285Y25546829D02*
X19666666Y25499210D01*
X19666666Y25499210D02*
X19571428Y25451591D01*
X19571428Y25451591D02*
X19238095Y25451591D01*
X30809523Y25023020D02*
X30761904Y24975400D01*
X30761904Y24975400D02*
X30619047Y24927781D01*
X30619047Y24927781D02*
X30523809Y24927781D01*
X30523809Y24927781D02*
X30380952Y24975400D01*
X30380952Y24975400D02*
X30285714Y25070639D01*
X30285714Y25070639D02*
X30238095Y25165877D01*
X30238095Y25165877D02*
X30190476Y25356353D01*
X30190476Y25356353D02*
X30190476Y25499210D01*
X30190476Y25499210D02*
X30238095Y25689686D01*
X30238095Y25689686D02*
X30285714Y25784924D01*
X30285714Y25784924D02*
X30380952Y25880162D01*
X30380952Y25880162D02*
X30523809Y25927781D01*
X30523809Y25927781D02*
X30619047Y25927781D01*
X30619047Y25927781D02*
X30761904Y25880162D01*
X30761904Y25880162D02*
X30809523Y25832543D01*
X78087469Y27123020D02*
X78039850Y27075400D01*
X78039850Y27075400D02*
X77896993Y27027781D01*
X77896993Y27027781D02*
X77801755Y27027781D01*
X77801755Y27027781D02*
X77658898Y27075400D01*
X77658898Y27075400D02*
X77563660Y27170639D01*
X77563660Y27170639D02*
X77516041Y27265877D01*
X77516041Y27265877D02*
X77468422Y27456353D01*
X77468422Y27456353D02*
X77468422Y27599210D01*
X77468422Y27599210D02*
X77516041Y27789686D01*
X77516041Y27789686D02*
X77563660Y27884924D01*
X77563660Y27884924D02*
X77658898Y27980162D01*
X77658898Y27980162D02*
X77801755Y28027781D01*
X77801755Y28027781D02*
X77896993Y28027781D01*
X77896993Y28027781D02*
X78039850Y27980162D01*
X78039850Y27980162D02*
X78087469Y27932543D01*
X78706517Y28027781D02*
X78896993Y28027781D01*
X78896993Y28027781D02*
X78992231Y27980162D01*
X78992231Y27980162D02*
X79087469Y27884924D01*
X79087469Y27884924D02*
X79135088Y27694448D01*
X79135088Y27694448D02*
X79135088Y27361115D01*
X79135088Y27361115D02*
X79087469Y27170639D01*
X79087469Y27170639D02*
X78992231Y27075400D01*
X78992231Y27075400D02*
X78896993Y27027781D01*
X78896993Y27027781D02*
X78706517Y27027781D01*
X78706517Y27027781D02*
X78611279Y27075400D01*
X78611279Y27075400D02*
X78516041Y27170639D01*
X78516041Y27170639D02*
X78468422Y27361115D01*
X78468422Y27361115D02*
X78468422Y27694448D01*
X78468422Y27694448D02*
X78516041Y27884924D01*
X78516041Y27884924D02*
X78611279Y27980162D01*
X78611279Y27980162D02*
X78706517Y28027781D01*
X79563660Y27027781D02*
X79563660Y28027781D01*
X79563660Y28027781D02*
X79896993Y27313496D01*
X79896993Y27313496D02*
X80230326Y28027781D01*
X80230326Y28027781D02*
X80230326Y27027781D01*
X79706517Y25487782D02*
X80039850Y24487782D01*
X80039850Y24487782D02*
X80373183Y25487782D01*
X76182707Y21947782D02*
X76420802Y21947782D01*
X76420802Y21947782D02*
X76420802Y22138259D01*
X76420802Y22138259D02*
X76325564Y22185878D01*
X76325564Y22185878D02*
X76230326Y22281116D01*
X76230326Y22281116D02*
X76182707Y22423973D01*
X76182707Y22423973D02*
X76182707Y22662068D01*
X76182707Y22662068D02*
X76230326Y22804925D01*
X76230326Y22804925D02*
X76325564Y22900163D01*
X76325564Y22900163D02*
X76468421Y22947782D01*
X76468421Y22947782D02*
X76658897Y22947782D01*
X76658897Y22947782D02*
X76801754Y22900163D01*
X76801754Y22900163D02*
X76896992Y22804925D01*
X76896992Y22804925D02*
X76944611Y22662068D01*
X76944611Y22662068D02*
X76944611Y22423973D01*
X76944611Y22423973D02*
X76896992Y22281116D01*
X76896992Y22281116D02*
X76801754Y22185878D01*
X76801754Y22185878D02*
X76706516Y22138259D01*
X76706516Y22138259D02*
X76706516Y21947782D01*
X76706516Y21947782D02*
X76944611Y21947782D01*
X78182707Y22709687D02*
X78182707Y21947782D01*
X78230326Y22662068D02*
X78230326Y21995401D01*
X78277945Y22662068D02*
X78277945Y21995401D01*
X78325564Y22614449D02*
X78325564Y22043021D01*
X78373183Y22614449D02*
X78373183Y22043021D01*
X78420802Y22566830D02*
X78420802Y22090640D01*
X78468421Y22566830D02*
X78468421Y22090640D01*
X78516040Y22519211D02*
X78516040Y22138259D01*
X78563659Y22471592D02*
X78563659Y22185878D01*
X78611278Y22471592D02*
X78611278Y22185878D01*
X78658897Y22423973D02*
X78658897Y22233497D01*
X78706516Y22423973D02*
X78706516Y22233497D01*
X78754135Y22328735D02*
X78801754Y22328735D01*
X78754135Y22376354D02*
X78754135Y22281116D01*
X78135088Y22709687D02*
X78849373Y22328735D01*
X78849373Y22328735D02*
X78135088Y21947782D01*
X78896993Y22328735D02*
X78135088Y21900163D01*
X78135088Y21900163D02*
X78135088Y22757306D01*
X78135088Y22757306D02*
X78896993Y22328735D01*
X79277945Y21566830D02*
X79325564Y21614449D01*
X79325564Y21614449D02*
X79420802Y21757306D01*
X79420802Y21757306D02*
X79468421Y21852544D01*
X79468421Y21852544D02*
X79516040Y21995401D01*
X79516040Y21995401D02*
X79563659Y22233497D01*
X79563659Y22233497D02*
X79563659Y22423973D01*
X79563659Y22423973D02*
X79516040Y22662068D01*
X79516040Y22662068D02*
X79468421Y22804925D01*
X79468421Y22804925D02*
X79420802Y22900163D01*
X79420802Y22900163D02*
X79325564Y23043021D01*
X79325564Y23043021D02*
X79277945Y23090640D01*
X79944612Y21566830D02*
X79992231Y21614449D01*
X79992231Y21614449D02*
X80087469Y21757306D01*
X80087469Y21757306D02*
X80135088Y21852544D01*
X80135088Y21852544D02*
X80182707Y21995401D01*
X80182707Y21995401D02*
X80230326Y22233497D01*
X80230326Y22233497D02*
X80230326Y22423973D01*
X80230326Y22423973D02*
X80182707Y22662068D01*
X80182707Y22662068D02*
X80135088Y22804925D01*
X80135088Y22804925D02*
X80087469Y22900163D01*
X80087469Y22900163D02*
X79992231Y23043021D01*
X79992231Y23043021D02*
X79944612Y23090640D01*
D13*
X57384210Y43146894D02*
X57717543Y41746894D01*
X57717543Y41746894D02*
X57984210Y42746894D01*
X57984210Y42746894D02*
X58250876Y41746894D01*
X58250876Y41746894D02*
X58584210Y43146894D01*
X59050876Y42146894D02*
X59717543Y42146894D01*
X58917543Y41746894D02*
X59384210Y43146894D01*
X59384210Y43146894D02*
X59850876Y41746894D01*
X60984210Y41746894D02*
X60317543Y41746894D01*
X60317543Y41746894D02*
X60317543Y43146894D01*
X62117543Y41746894D02*
X61450876Y41746894D01*
X61450876Y41746894D02*
X61450876Y43146894D01*
X62584209Y42480227D02*
X63050876Y42480227D01*
X63250876Y41746894D02*
X62584209Y41746894D01*
X62584209Y41746894D02*
X62584209Y43146894D01*
X62584209Y43146894D02*
X63250876Y43146894D01*
X63650876Y43146894D02*
X64450876Y43146894D01*
X64050876Y41746894D02*
X64050876Y43146894D01*
X65984210Y41746894D02*
X65984210Y43146894D01*
X65984210Y43146894D02*
X66317543Y43146894D01*
X66317543Y43146894D02*
X66517543Y43080227D01*
X66517543Y43080227D02*
X66650877Y42946894D01*
X66650877Y42946894D02*
X66717543Y42813560D01*
X66717543Y42813560D02*
X66784210Y42546894D01*
X66784210Y42546894D02*
X66784210Y42346894D01*
X66784210Y42346894D02*
X66717543Y42080227D01*
X66717543Y42080227D02*
X66650877Y41946894D01*
X66650877Y41946894D02*
X66517543Y41813560D01*
X66517543Y41813560D02*
X66317543Y41746894D01*
X66317543Y41746894D02*
X65984210Y41746894D01*
X67384210Y41746894D02*
X67384210Y43146894D01*
X67384210Y43146894D02*
X67850877Y42146894D01*
X67850877Y42146894D02*
X68317543Y43146894D01*
X68317543Y43146894D02*
X68317543Y41746894D01*
X68984210Y41746894D02*
X68984210Y43146894D01*
X68984210Y43146894D02*
X69450877Y42146894D01*
X69450877Y42146894D02*
X69917543Y43146894D01*
X69917543Y43146894D02*
X69917543Y41746894D01*
D10*
X3172744Y50379610D02*
X3096554Y50417705D01*
X3096554Y50417705D02*
X2982268Y50417705D01*
X2982268Y50417705D02*
X2867982Y50379610D01*
X2867982Y50379610D02*
X2791792Y50303420D01*
X2791792Y50303420D02*
X2753697Y50227229D01*
X2753697Y50227229D02*
X2715601Y50074848D01*
X2715601Y50074848D02*
X2715601Y49960562D01*
X2715601Y49960562D02*
X2753697Y49808181D01*
X2753697Y49808181D02*
X2791792Y49731991D01*
X2791792Y49731991D02*
X2867982Y49655800D01*
X2867982Y49655800D02*
X2982268Y49617705D01*
X2982268Y49617705D02*
X3058459Y49617705D01*
X3058459Y49617705D02*
X3172744Y49655800D01*
X3172744Y49655800D02*
X3210840Y49693896D01*
X3210840Y49693896D02*
X3210840Y49960562D01*
X3210840Y49960562D02*
X3058459Y49960562D01*
X3553697Y49617705D02*
X3553697Y50417705D01*
X3553697Y50417705D02*
X4010840Y49617705D01*
X4010840Y49617705D02*
X4010840Y50417705D01*
X4391792Y49617705D02*
X4391792Y50417705D01*
X4391792Y50417705D02*
X4582268Y50417705D01*
X4582268Y50417705D02*
X4696554Y50379610D01*
X4696554Y50379610D02*
X4772744Y50303420D01*
X4772744Y50303420D02*
X4810839Y50227229D01*
X4810839Y50227229D02*
X4848935Y50074848D01*
X4848935Y50074848D02*
X4848935Y49960562D01*
X4848935Y49960562D02*
X4810839Y49808181D01*
X4810839Y49808181D02*
X4772744Y49731991D01*
X4772744Y49731991D02*
X4696554Y49655800D01*
X4696554Y49655800D02*
X4582268Y49617705D01*
X4582268Y49617705D02*
X4391792Y49617705D01*
X2791792Y47877705D02*
X3058459Y47077705D01*
X3058459Y47077705D02*
X3325125Y47877705D01*
X4048935Y47153896D02*
X4010839Y47115800D01*
X4010839Y47115800D02*
X3896554Y47077705D01*
X3896554Y47077705D02*
X3820363Y47077705D01*
X3820363Y47077705D02*
X3706077Y47115800D01*
X3706077Y47115800D02*
X3629887Y47191991D01*
X3629887Y47191991D02*
X3591792Y47268181D01*
X3591792Y47268181D02*
X3553696Y47420562D01*
X3553696Y47420562D02*
X3553696Y47534848D01*
X3553696Y47534848D02*
X3591792Y47687229D01*
X3591792Y47687229D02*
X3629887Y47763420D01*
X3629887Y47763420D02*
X3706077Y47839610D01*
X3706077Y47839610D02*
X3820363Y47877705D01*
X3820363Y47877705D02*
X3896554Y47877705D01*
X3896554Y47877705D02*
X4010839Y47839610D01*
X4010839Y47839610D02*
X4048935Y47801515D01*
X4848935Y47153896D02*
X4810839Y47115800D01*
X4810839Y47115800D02*
X4696554Y47077705D01*
X4696554Y47077705D02*
X4620363Y47077705D01*
X4620363Y47077705D02*
X4506077Y47115800D01*
X4506077Y47115800D02*
X4429887Y47191991D01*
X4429887Y47191991D02*
X4391792Y47268181D01*
X4391792Y47268181D02*
X4353696Y47420562D01*
X4353696Y47420562D02*
X4353696Y47534848D01*
X4353696Y47534848D02*
X4391792Y47687229D01*
X4391792Y47687229D02*
X4429887Y47763420D01*
X4429887Y47763420D02*
X4506077Y47839610D01*
X4506077Y47839610D02*
X4620363Y47877705D01*
X4620363Y47877705D02*
X4696554Y47877705D01*
X4696554Y47877705D02*
X4810839Y47839610D01*
X4810839Y47839610D02*
X4848935Y47801515D01*
X2944172Y44575800D02*
X3058458Y44537705D01*
X3058458Y44537705D02*
X3248934Y44537705D01*
X3248934Y44537705D02*
X3325125Y44575800D01*
X3325125Y44575800D02*
X3363220Y44613896D01*
X3363220Y44613896D02*
X3401315Y44690086D01*
X3401315Y44690086D02*
X3401315Y44766277D01*
X3401315Y44766277D02*
X3363220Y44842467D01*
X3363220Y44842467D02*
X3325125Y44880562D01*
X3325125Y44880562D02*
X3248934Y44918658D01*
X3248934Y44918658D02*
X3096553Y44956753D01*
X3096553Y44956753D02*
X3020363Y44994848D01*
X3020363Y44994848D02*
X2982268Y45032943D01*
X2982268Y45032943D02*
X2944172Y45109134D01*
X2944172Y45109134D02*
X2944172Y45185324D01*
X2944172Y45185324D02*
X2982268Y45261515D01*
X2982268Y45261515D02*
X3020363Y45299610D01*
X3020363Y45299610D02*
X3096553Y45337705D01*
X3096553Y45337705D02*
X3287030Y45337705D01*
X3287030Y45337705D02*
X3401315Y45299610D01*
X4201316Y44613896D02*
X4163220Y44575800D01*
X4163220Y44575800D02*
X4048935Y44537705D01*
X4048935Y44537705D02*
X3972744Y44537705D01*
X3972744Y44537705D02*
X3858458Y44575800D01*
X3858458Y44575800D02*
X3782268Y44651991D01*
X3782268Y44651991D02*
X3744173Y44728181D01*
X3744173Y44728181D02*
X3706077Y44880562D01*
X3706077Y44880562D02*
X3706077Y44994848D01*
X3706077Y44994848D02*
X3744173Y45147229D01*
X3744173Y45147229D02*
X3782268Y45223420D01*
X3782268Y45223420D02*
X3858458Y45299610D01*
X3858458Y45299610D02*
X3972744Y45337705D01*
X3972744Y45337705D02*
X4048935Y45337705D01*
X4048935Y45337705D02*
X4163220Y45299610D01*
X4163220Y45299610D02*
X4201316Y45261515D01*
X4925125Y44537705D02*
X4544173Y44537705D01*
X4544173Y44537705D02*
X4544173Y45337705D01*
X2906077Y42035800D02*
X3020363Y41997705D01*
X3020363Y41997705D02*
X3210839Y41997705D01*
X3210839Y41997705D02*
X3287030Y42035800D01*
X3287030Y42035800D02*
X3325125Y42073896D01*
X3325125Y42073896D02*
X3363220Y42150086D01*
X3363220Y42150086D02*
X3363220Y42226277D01*
X3363220Y42226277D02*
X3325125Y42302467D01*
X3325125Y42302467D02*
X3287030Y42340562D01*
X3287030Y42340562D02*
X3210839Y42378658D01*
X3210839Y42378658D02*
X3058458Y42416753D01*
X3058458Y42416753D02*
X2982268Y42454848D01*
X2982268Y42454848D02*
X2944173Y42492943D01*
X2944173Y42492943D02*
X2906077Y42569134D01*
X2906077Y42569134D02*
X2906077Y42645324D01*
X2906077Y42645324D02*
X2944173Y42721515D01*
X2944173Y42721515D02*
X2982268Y42759610D01*
X2982268Y42759610D02*
X3058458Y42797705D01*
X3058458Y42797705D02*
X3248935Y42797705D01*
X3248935Y42797705D02*
X3363220Y42759610D01*
X3706078Y41997705D02*
X3706078Y42797705D01*
X3706078Y42797705D02*
X3896554Y42797705D01*
X3896554Y42797705D02*
X4010840Y42759610D01*
X4010840Y42759610D02*
X4087030Y42683420D01*
X4087030Y42683420D02*
X4125125Y42607229D01*
X4125125Y42607229D02*
X4163221Y42454848D01*
X4163221Y42454848D02*
X4163221Y42340562D01*
X4163221Y42340562D02*
X4125125Y42188181D01*
X4125125Y42188181D02*
X4087030Y42111991D01*
X4087030Y42111991D02*
X4010840Y42035800D01*
X4010840Y42035800D02*
X3896554Y41997705D01*
X3896554Y41997705D02*
X3706078Y41997705D01*
X4467982Y42226277D02*
X4848935Y42226277D01*
X4391792Y41997705D02*
X4658459Y42797705D01*
X4658459Y42797705D02*
X4925125Y41997705D01*
D14*
X40090000Y17439420D02*
X40090000Y17720580D01*
X41110000Y17439420D02*
X41110000Y17720580D01*
X59962742Y11902500D02*
X60437258Y11902500D01*
X59962742Y10857500D02*
X60437258Y10857500D01*
X38090000Y8039420D02*
X38090000Y8320580D01*
X39110000Y8039420D02*
X39110000Y8320580D01*
X40390000Y28590000D02*
X40690000Y28590000D01*
X40390000Y28290000D02*
X40390000Y28590000D01*
X40390000Y21370000D02*
X40390000Y21670000D01*
X40690000Y21370000D02*
X40390000Y21370000D01*
X47310000Y28590000D02*
X47610000Y28590000D01*
X47610000Y28590000D02*
X47610000Y28290000D01*
X47610000Y21670000D02*
X47610000Y21370000D01*
X47610000Y21370000D02*
X47310000Y21370000D01*
X40680000Y20730000D02*
X40210000Y20390000D01*
X40210000Y21070000D01*
X40680000Y20730000D01*
G36*
X40680000Y20730000D02*
G01*
X40210000Y20390000D01*
X40210000Y21070000D01*
X40680000Y20730000D01*
G37*
X44477500Y42142742D02*
X44477500Y42617258D01*
X45522500Y42142742D02*
X45522500Y42617258D01*
X69250000Y49480000D02*
X69250000Y47480000D01*
X70250000Y50780000D02*
X70700000Y51230000D01*
X70250000Y46180000D02*
X70700000Y45730000D01*
X70700000Y51230000D02*
X73300000Y51230000D01*
X70700000Y45730000D02*
X73300000Y45730000D01*
X73750000Y50780000D02*
X73300000Y51230000D01*
X73750000Y46180000D02*
X73300000Y45730000D01*
X74750000Y49480000D02*
X74750000Y47480000D01*
X16750000Y30480000D02*
X16750000Y28480000D01*
X17750000Y31780000D02*
X18200000Y32230000D01*
X17750000Y27180000D02*
X18200000Y26730000D01*
X18200000Y32230000D02*
X20800000Y32230000D01*
X18200000Y26730000D02*
X20800000Y26730000D01*
X21250000Y31780000D02*
X20800000Y32230000D01*
X21250000Y27180000D02*
X20800000Y26730000D01*
X22250000Y30480000D02*
X22250000Y28480000D01*
X81020000Y28860000D02*
X82400000Y28860000D01*
X81020000Y27480000D02*
X81020000Y28860000D01*
X81020000Y26210000D02*
X81020000Y21020000D01*
X81020000Y26210000D02*
X83780000Y26210000D01*
X81020000Y21020000D02*
X83780000Y21020000D01*
X83780000Y26210000D02*
X83780000Y21020000D01*
X64459420Y27290000D02*
X64740580Y27290000D01*
X64459420Y26270000D02*
X64740580Y26270000D01*
X42090000Y17439420D02*
X42090000Y17720580D01*
X43110000Y17439420D02*
X43110000Y17720580D01*
X32162742Y18702500D02*
X32637258Y18702500D01*
X32162742Y17657500D02*
X32637258Y17657500D01*
X59962742Y19302500D02*
X60437258Y19302500D01*
X59962742Y18257500D02*
X60437258Y18257500D01*
X43659420Y12290000D02*
X43940580Y12290000D01*
X43659420Y11270000D02*
X43940580Y11270000D01*
X57490000Y8239420D02*
X57490000Y8520580D01*
X58510000Y8239420D02*
X58510000Y8520580D01*
X15865000Y5580000D02*
X15865000Y3295000D01*
X15865000Y3295000D02*
X17335000Y3295000D01*
X17335000Y3295000D02*
X17335000Y5580000D01*
X2040000Y37140000D02*
X3040000Y37140000D01*
X2040000Y35620000D02*
X2040000Y37140000D01*
X2090000Y35620000D02*
X2040000Y35620000D01*
X3990000Y35620000D02*
X3210000Y35620000D01*
X4160000Y37140000D02*
X5160000Y37140000D01*
X5160000Y37140000D02*
X5160000Y35620000D01*
X5160000Y35620000D02*
X5110000Y35620000D01*
X3220000Y35080000D02*
X3550000Y35320000D01*
X3550000Y34840000D01*
X3220000Y35080000D01*
G36*
X3550000Y34840000D02*
G01*
X3220000Y35080000D01*
X3550000Y35320000D01*
X3550000Y34840000D01*
G37*
X66950000Y2780000D02*
G75*
G02*
X65050000Y2780000I-950000J0D01*
G01*
X65050000Y2780000D02*
G75*
G02*
X66950000Y2780000I950000J0D01*
G01*
X47677500Y42142742D02*
X47677500Y42617258D01*
X48722500Y42142742D02*
X48722500Y42617258D01*
X50020000Y49400000D02*
X50020000Y50780000D01*
X51400000Y49400000D02*
X50020000Y49400000D01*
X52670000Y52160000D02*
X62940000Y52160000D01*
X52670000Y49400000D02*
X52670000Y52160000D01*
X52670000Y49400000D02*
X62940000Y49400000D01*
X62940000Y49400000D02*
X62940000Y52160000D01*
X57877500Y28942742D02*
X57877500Y29417258D01*
X58922500Y28942742D02*
X58922500Y29417258D01*
X2880000Y16600000D02*
X6740000Y16600000D01*
X2880000Y4360000D02*
X2880000Y16600000D01*
X6740000Y4360000D02*
X2880000Y4360000D01*
X6740000Y4360000D02*
X6740000Y4060000D01*
X11260000Y16600000D02*
X15120000Y16600000D01*
X15120000Y16600000D02*
X15120000Y4360000D01*
X15120000Y4360000D02*
X11260000Y4360000D01*
X55877500Y8142742D02*
X55877500Y8617258D01*
X56922500Y8142742D02*
X56922500Y8617258D01*
X27750000Y30480000D02*
X27750000Y28480000D01*
X28750000Y31780000D02*
X29200000Y32230000D01*
X28750000Y27180000D02*
X29200000Y26730000D01*
X29200000Y32230000D02*
X31800000Y32230000D01*
X29200000Y26730000D02*
X31800000Y26730000D01*
X32250000Y31780000D02*
X31800000Y32230000D01*
X32250000Y27180000D02*
X31800000Y26730000D01*
X33250000Y30480000D02*
X33250000Y28480000D01*
X51477500Y14942742D02*
X51477500Y15417258D01*
X52522500Y14942742D02*
X52522500Y15417258D01*
X5600000Y52300000D02*
X43860000Y52300000D01*
X5600000Y40040000D02*
X5600000Y52300000D01*
X43860000Y52300000D02*
X43860000Y40040000D01*
X43860000Y40040000D02*
X5600000Y40040000D01*
X7040000Y37140000D02*
X8040000Y37140000D01*
X7040000Y35620000D02*
X7040000Y37140000D01*
X7090000Y35620000D02*
X7040000Y35620000D01*
X8990000Y35620000D02*
X8210000Y35620000D01*
X9160000Y37140000D02*
X10160000Y37140000D01*
X10160000Y37140000D02*
X10160000Y35620000D01*
X10160000Y35620000D02*
X10110000Y35620000D01*
X8220000Y35080000D02*
X8550000Y35320000D01*
X8550000Y34840000D01*
X8220000Y35080000D01*
G36*
X8550000Y34840000D02*
G01*
X8220000Y35080000D01*
X8550000Y35320000D01*
X8550000Y34840000D01*
G37*
X56290000Y29039420D02*
X56290000Y29320580D01*
X57310000Y29039420D02*
X57310000Y29320580D01*
X32762742Y13902500D02*
X33237258Y13902500D01*
X32762742Y12857500D02*
X33237258Y12857500D01*
X41350000Y33580000D02*
G75*
G02*
X39450000Y33580000I-950000J0D01*
G01*
X39450000Y33580000D02*
G75*
G02*
X41350000Y33580000I950000J0D01*
G01*
X21490000Y11039420D02*
X21490000Y11320580D01*
X22510000Y11039420D02*
X22510000Y11320580D01*
X44090000Y17439420D02*
X44090000Y17720580D01*
X45110000Y17439420D02*
X45110000Y17720580D01*
X38550000Y33580000D02*
G75*
G02*
X36650000Y33580000I-950000J0D01*
G01*
X36650000Y33580000D02*
G75*
G02*
X38550000Y33580000I950000J0D01*
G01*
X32162742Y17102500D02*
X32637258Y17102500D01*
X32162742Y16057500D02*
X32637258Y16057500D01*
X46090000Y10740000D02*
X47910000Y10740000D01*
X46090000Y9740000D02*
X46090000Y10740000D01*
X46090000Y7620000D02*
X46090000Y8620000D01*
X47910000Y10740000D02*
X47910000Y10690000D01*
X47910000Y9570000D02*
X47910000Y8790000D01*
X47910000Y7670000D02*
X47910000Y7620000D01*
X47910000Y7620000D02*
X46090000Y7620000D01*
X48450000Y8800000D02*
X48210000Y9130000D01*
X48690000Y9130000D01*
X48450000Y8800000D01*
G36*
X48450000Y8800000D02*
G01*
X48210000Y9130000D01*
X48690000Y9130000D01*
X48450000Y8800000D01*
G37*
X6059420Y39290000D02*
X6340580Y39290000D01*
X6059420Y38270000D02*
X6340580Y38270000D01*
X11477500Y36142742D02*
X11477500Y36617258D01*
X12522500Y36142742D02*
X12522500Y36617258D01*
X50090000Y8639420D02*
X50090000Y8920580D01*
X51110000Y8639420D02*
X51110000Y8920580D01*
X70350000Y2780000D02*
G75*
G02*
X68450000Y2780000I-950000J0D01*
G01*
X68450000Y2780000D02*
G75*
G02*
X70350000Y2780000I950000J0D01*
G01*
X68272936Y33890000D02*
X69727064Y33890000D01*
X68272936Y32070000D02*
X69727064Y32070000D01*
X64440000Y8940000D02*
X65960000Y8940000D01*
X64440000Y8890000D02*
X64440000Y8940000D01*
X64440000Y6990000D02*
X64440000Y7770000D01*
X64440000Y5820000D02*
X64440000Y5870000D01*
X65960000Y8940000D02*
X65960000Y7940000D01*
X65960000Y6820000D02*
X65960000Y5820000D01*
X65960000Y5820000D02*
X64440000Y5820000D01*
X63900000Y7760000D02*
X64140000Y7430000D01*
X63660000Y7430000D01*
X63900000Y7760000D01*
G36*
X64140000Y7430000D02*
G01*
X63660000Y7430000D01*
X63900000Y7760000D01*
X64140000Y7430000D01*
G37*
X73750000Y2780000D02*
G75*
G02*
X71850000Y2780000I-950000J0D01*
G01*
X71850000Y2780000D02*
G75*
G02*
X73750000Y2780000I950000J0D01*
G01*
X17677500Y4542742D02*
X17677500Y5017258D01*
X18722500Y4542742D02*
X18722500Y5017258D01*
X22300000Y5880000D02*
X22300000Y3880000D01*
X22300000Y1980000D02*
X22300000Y80000D01*
X22300000Y80000D02*
X31700000Y80000D01*
X31700000Y5880000D02*
X31700000Y3880000D01*
X31700000Y1980000D02*
X31700000Y80000D01*
X18762742Y19902500D02*
X19237258Y19902500D01*
X18762742Y18857500D02*
X19237258Y18857500D01*
X30077500Y10942742D02*
X30077500Y11417258D01*
X31122500Y10942742D02*
X31122500Y11417258D01*
X49877500Y14942742D02*
X49877500Y15417258D01*
X50922500Y14942742D02*
X50922500Y15417258D01*
X45690000Y17439420D02*
X45690000Y17720580D01*
X46710000Y17439420D02*
X46710000Y17720580D01*
X47859420Y32690000D02*
X48140580Y32690000D01*
X47859420Y31670000D02*
X48140580Y31670000D01*
X69962742Y24902500D02*
X70437258Y24902500D01*
X69962742Y23857500D02*
X70437258Y23857500D01*
X35162742Y23502500D02*
X35637258Y23502500D01*
X35162742Y22457500D02*
X35637258Y22457500D01*
X33840000Y10290000D02*
X33890000Y10290000D01*
X33840000Y8470000D02*
X33840000Y10290000D01*
X33890000Y8470000D02*
X33840000Y8470000D01*
X35010000Y10290000D02*
X35790000Y10290000D01*
X36910000Y10290000D02*
X36960000Y10290000D01*
X36960000Y10290000D02*
X36960000Y8470000D01*
X36960000Y8470000D02*
X36910000Y8470000D01*
X33890000Y7930000D02*
X33560000Y7690000D01*
X33560000Y8170000D01*
X33890000Y7930000D01*
G36*
X33890000Y7930000D02*
G01*
X33560000Y7690000D01*
X33560000Y8170000D01*
X33890000Y7930000D01*
G37*
X69472936Y21690001D02*
X70927064Y21690001D01*
X69472936Y19870001D02*
X70927064Y19870001D01*
X23077500Y10942742D02*
X23077500Y11417258D01*
X24122500Y10942742D02*
X24122500Y11417258D01*
X54277500Y8142742D02*
X54277500Y8617258D01*
X55322500Y8142742D02*
X55322500Y8617258D01*
X64440000Y17940000D02*
X65960000Y17940000D01*
X64440000Y17890000D02*
X64440000Y17940000D01*
X64440000Y15990000D02*
X64440000Y16770000D01*
X64440000Y14820000D02*
X64440000Y14870000D01*
X65960000Y17940000D02*
X65960000Y16940000D01*
X65960000Y15820000D02*
X65960000Y14820000D01*
X65960000Y14820000D02*
X64440000Y14820000D01*
X63900000Y16760000D02*
X64140000Y16430000D01*
X63660000Y16430000D01*
X63900000Y16760000D01*
G36*
X64140000Y16430000D02*
G01*
X63660000Y16430000D01*
X63900000Y16760000D01*
X64140000Y16430000D01*
G37*
X18762742Y18302500D02*
X19237258Y18302500D01*
X18762742Y17257500D02*
X19237258Y17257500D01*
X47450000Y49780000D02*
X48150000Y49780000D01*
X47450000Y47780000D02*
X48150000Y47780000D01*
D12*
X49500000Y49680000D02*
G75*
G02*
X49300000Y49680000I-100000J0D01*
G01*
X49300000Y49680000D02*
G75*
G02*
X49500000Y49680000I100000J0D01*
G01*
D14*
X53077500Y14942742D02*
X53077500Y15417258D01*
X54122500Y14942742D02*
X54122500Y15417258D01*
X75072936Y33890000D02*
X76527064Y33890000D01*
X75072936Y32070000D02*
X76527064Y32070000D01*
X5750000Y30480000D02*
X5750000Y28480000D01*
X6750000Y31780000D02*
X7200000Y32230000D01*
X6750000Y27180000D02*
X7200000Y26730000D01*
X7200000Y32230000D02*
X9800000Y32230000D01*
X7200000Y26730000D02*
X9800000Y26730000D01*
X10250000Y31780000D02*
X9800000Y32230000D01*
X10250000Y27180000D02*
X9800000Y26730000D01*
X11250000Y30480000D02*
X11250000Y28480000D01*
X69962742Y11902500D02*
X70437258Y11902500D01*
X69962742Y10857500D02*
X70437258Y10857500D01*
X59962742Y24102500D02*
X60437258Y24102500D01*
X59962742Y23057500D02*
X60437258Y23057500D01*
X46077500Y42142742D02*
X46077500Y42617258D01*
X47122500Y42142742D02*
X47122500Y42617258D01*
X53550000Y2380000D02*
X53550000Y1580000D01*
X55400000Y3480000D02*
X57100000Y3480000D01*
X58400000Y3480000D02*
X58600000Y3480000D01*
X60450000Y2380000D02*
X60450000Y1580000D01*
X54690000Y15039420D02*
X54690000Y15320580D01*
X55710000Y15039420D02*
X55710000Y15320580D01*
X2962742Y33302500D02*
X3437258Y33302500D01*
X2962742Y32257500D02*
X3437258Y32257500D01*
%LPC*%
D15*
X40600000Y16805000D03*
X40600000Y18355000D03*
D16*
X59375000Y11380000D03*
X61025000Y11380000D03*
D15*
X38600000Y7405000D03*
X38600000Y8955000D03*
D17*
X41200000Y20805000D03*
X42000000Y20805000D03*
X42800000Y20805000D03*
X43600000Y20805000D03*
X44400000Y20805000D03*
X45200000Y20805000D03*
X46000000Y20805000D03*
X46800000Y20805000D03*
D18*
X48175000Y22180000D03*
X48175000Y22980000D03*
X48175000Y23780000D03*
X48175000Y24580000D03*
X48175000Y25380000D03*
X48175000Y26180000D03*
X48175000Y26980000D03*
X48175000Y27780000D03*
D17*
X46800000Y29155000D03*
X46000000Y29155000D03*
X45200000Y29155000D03*
X44400000Y29155000D03*
X43600000Y29155000D03*
X42800000Y29155000D03*
X42000000Y29155000D03*
X41200000Y29155000D03*
D18*
X39825000Y27780000D03*
X39825000Y26980000D03*
X39825000Y26180000D03*
X39825000Y25380000D03*
X39825000Y24580000D03*
X39825000Y23780000D03*
X39825000Y22980000D03*
X39825000Y22180000D03*
D19*
X45000000Y41555000D03*
X45000000Y43205000D03*
D20*
X69000000Y50355000D03*
X75000000Y50355000D03*
X69000000Y46605000D03*
X75000000Y46605000D03*
X16500000Y31355000D03*
X22500000Y31355000D03*
X16500000Y27605000D03*
X22500000Y27605000D03*
D21*
X82400000Y27480000D03*
D22*
X82400000Y24940000D03*
X82400000Y22400000D03*
D23*
X63825000Y26780000D03*
X65375000Y26780000D03*
D15*
X42600000Y16805000D03*
X42600000Y18355000D03*
D16*
X31575000Y18180000D03*
X33225000Y18180000D03*
X59375000Y18780000D03*
X61025000Y18780000D03*
D23*
X43025000Y11780000D03*
X44575000Y11780000D03*
D15*
X58000000Y7605000D03*
X58000000Y9155000D03*
D24*
X16600000Y3992500D03*
X16600000Y5567500D03*
D25*
X2650000Y35442500D03*
X4550000Y35442500D03*
X3600000Y37317500D03*
D26*
X66000000Y2780000D03*
D19*
X48200000Y41555000D03*
X48200000Y43205000D03*
D21*
X51400000Y50780000D03*
D22*
X53940000Y50780000D03*
X56480000Y50780000D03*
X59020000Y50780000D03*
X61560000Y50780000D03*
D19*
X58400000Y28355000D03*
X58400000Y30005000D03*
D27*
X9000000Y4880000D03*
X9000000Y16080000D03*
D19*
X56400000Y7555000D03*
X56400000Y9205000D03*
D28*
X39000000Y3180000D03*
D29*
X43500000Y3180000D03*
D20*
X27500000Y31355000D03*
X33500000Y31355000D03*
X27500000Y27605000D03*
X33500000Y27605000D03*
D19*
X52000000Y14355000D03*
X52000000Y16005000D03*
D21*
X7000000Y49980000D03*
D22*
X7000000Y47440000D03*
X7000000Y44900000D03*
X7000000Y42360000D03*
D25*
X7650000Y35442500D03*
X9550000Y35442500D03*
X8600000Y37317500D03*
D15*
X56800000Y28405000D03*
X56800000Y29955000D03*
D16*
X32175000Y13380000D03*
X33825000Y13380000D03*
D26*
X40400000Y33580000D03*
D15*
X22000000Y10405000D03*
X22000000Y11955000D03*
X44600000Y16805000D03*
X44600000Y18355000D03*
D26*
X37600000Y33580000D03*
D16*
X31575000Y16580000D03*
X33225000Y16580000D03*
D30*
X48137500Y8230000D03*
X48137500Y10130000D03*
X45862500Y9180000D03*
D23*
X5425000Y38780000D03*
X6975000Y38780000D03*
D19*
X12000000Y35555000D03*
X12000000Y37205000D03*
D15*
X50600000Y8005000D03*
X50600000Y9555000D03*
D26*
X69400000Y2780000D03*
D31*
X67537500Y32980000D03*
X70462500Y32980000D03*
D32*
X64262500Y8330000D03*
X64262500Y6430000D03*
X66137500Y7380000D03*
D26*
X72800000Y2780000D03*
D19*
X18200000Y3955000D03*
X18200000Y5605000D03*
D33*
X24110000Y6580000D03*
X29890000Y6580000D03*
D34*
X23750000Y8025000D03*
X24550000Y8025000D03*
D35*
X25750000Y8025000D03*
X26750000Y8025000D03*
X27250000Y8025000D03*
X28250000Y8025000D03*
D34*
X29450000Y8025000D03*
X30250000Y8025000D03*
X30250000Y8025000D03*
X29450000Y8025000D03*
D35*
X28750000Y8025000D03*
X27750000Y8025000D03*
X26250000Y8025000D03*
X25250000Y8025000D03*
D34*
X24550000Y8025000D03*
X23750000Y8025000D03*
D36*
X22680000Y7110000D03*
D37*
X22680000Y2930000D03*
D36*
X31320000Y7110000D03*
D37*
X31320000Y2930000D03*
D16*
X18175000Y19380000D03*
X19825000Y19380000D03*
D19*
X30600000Y10355000D03*
X30600000Y12005000D03*
X50400000Y14355000D03*
X50400000Y16005000D03*
D15*
X46200000Y16805000D03*
X46200000Y18355000D03*
D23*
X47225000Y32180000D03*
X48775000Y32180000D03*
D16*
X69375000Y24380000D03*
X71025000Y24380000D03*
X34575000Y22980000D03*
X36225000Y22980000D03*
D38*
X34450000Y8242500D03*
X35400000Y8242500D03*
X36350000Y8242500D03*
X36350000Y10517500D03*
X34450000Y10517500D03*
D31*
X68737500Y20780001D03*
X71662500Y20780001D03*
D19*
X23600000Y10355000D03*
X23600000Y12005000D03*
X54800000Y7555000D03*
X54800000Y9205000D03*
D32*
X64262500Y17330000D03*
X64262500Y15430000D03*
X66137500Y16380000D03*
D16*
X18175000Y17780000D03*
X19825000Y17780000D03*
D39*
X48675000Y49330000D03*
X48675000Y48230000D03*
X46925000Y48230000D03*
X46925000Y49330000D03*
D19*
X53600000Y14355000D03*
X53600000Y16005000D03*
D31*
X74337500Y32980000D03*
X77262500Y32980000D03*
D20*
X5500000Y31355000D03*
X11500000Y31355000D03*
X5500000Y27605000D03*
X11500000Y27605000D03*
D16*
X69375000Y11380000D03*
X71025000Y11380000D03*
X59375000Y23580000D03*
X61025000Y23580000D03*
D19*
X46600000Y41555000D03*
X46600000Y43205000D03*
D40*
X55500000Y1980000D03*
X58500000Y1980000D03*
D41*
X54750000Y3930000D03*
X57750000Y3930000D03*
X59250000Y3930000D03*
D42*
X53325000Y3080000D03*
X53325000Y880000D03*
X60675000Y3080000D03*
X60675000Y880000D03*
D15*
X55200000Y14405000D03*
X55200000Y15955000D03*
D16*
X2375000Y32780000D03*
X4025000Y32780000D03*
%LPD*%
M02*
