G04 #@! TF.GenerationSoftware,KiCad,Pcbnew,10.0.6*
G04 #@! TF.CreationDate,2026-09-30T09:38:30-04:00*
G04 #@! TF.ProjectId,wallet_dmm,77616c6c-6574-45f6-946d-6d2e6b696361,3*
G04 #@! TF.SameCoordinates,Original*
G04 #@! TF.FileFunction,Paste,Top*
G04 #@! TF.FilePolarity,Positive*
%FSLAX46Y46*%
G04 Gerber Fmt 4.6, Leading zero omitted, Abs format (unit mm)*
G04 Created by KiCad (PCBNEW 10.0.6) date 2026-09-30 09:38:30*
%MOMM*%
%LPD*%
G01*
G04 APERTURE LIST*
G04 Aperture macros list*
%AMRoundRect*
0 Rectangle with rounded corners*
0 $1 Rounding radius*
0 $2 $3 $4 $5 $6 $7 $8 $9 X,Y pos of 4 corners*
0 Add a 4 corners polygon primitive as box body*
4,1,4,$2,$3,$4,$5,$6,$7,$8,$9,$2,$3,0*
0 Add four circle primitives for the rounded corners*
1,1,$1+$1,$2,$3*
1,1,$1+$1,$4,$5*
1,1,$1+$1,$6,$7*
1,1,$1+$1,$8,$9*
0 Add four rect primitives between the rounded corners*
20,1,$1+$1,$2,$3,$4,$5,0*
20,1,$1+$1,$4,$5,$6,$7,0*
20,1,$1+$1,$6,$7,$8,$9,0*
20,1,$1+$1,$8,$9,$2,$3,0*%
G04 Aperture macros list end*
%ADD10RoundRect,0.225000X0.250000X-0.225000X0.250000X0.225000X-0.250000X0.225000X-0.250000X-0.225000X0*%
%ADD11RoundRect,0.200000X-0.200000X-0.275000X0.200000X-0.275000X0.200000X0.275000X-0.200000X0.275000X0*%
%ADD12RoundRect,0.125000X0.125000X-0.625000X0.125000X0.625000X-0.125000X0.625000X-0.125000X-0.625000X0*%
%ADD13RoundRect,0.125000X0.625000X-0.125000X0.625000X0.125000X-0.625000X0.125000X-0.625000X-0.125000X0*%
%ADD14RoundRect,0.200000X0.275000X-0.200000X0.275000X0.200000X-0.275000X0.200000X-0.275000X-0.200000X0*%
%ADD15R,1.000000X0.750000*%
%ADD16RoundRect,0.225000X-0.225000X-0.250000X0.225000X-0.250000X0.225000X0.250000X-0.225000X0.250000X0*%
%ADD17RoundRect,0.218750X0.256250X-0.218750X0.256250X0.218750X-0.256250X0.218750X-0.256250X-0.218750X0*%
%ADD18RoundRect,0.150000X0.150000X-0.587500X0.150000X0.587500X-0.150000X0.587500X-0.150000X-0.587500X0*%
%ADD19R,4.000000X1.200000*%
%ADD20RoundRect,0.150000X0.512500X0.150000X-0.512500X0.150000X-0.512500X-0.150000X0.512500X-0.150000X0*%
%ADD21RoundRect,0.250000X-0.312500X-0.625000X0.312500X-0.625000X0.312500X0.625000X-0.312500X0.625000X0*%
%ADD22RoundRect,0.150000X-0.587500X-0.150000X0.587500X-0.150000X0.587500X0.150000X-0.587500X0.150000X0*%
%ADD23RoundRect,0.150000X-0.150000X-0.575000X0.150000X-0.575000X0.150000X0.575000X-0.150000X0.575000X0*%
%ADD24RoundRect,0.075000X-0.075000X-0.650000X0.075000X-0.650000X0.075000X0.650000X-0.075000X0.650000X0*%
%ADD25RoundRect,0.150000X0.150000X-0.512500X0.150000X0.512500X-0.150000X0.512500X-0.150000X-0.512500X0*%
%ADD26R,0.850000X0.500000*%
%ADD27RoundRect,0.150000X-0.150000X-0.500000X0.150000X-0.500000X0.150000X0.500000X-0.150000X0.500000X0*%
%ADD28RoundRect,0.175000X-0.350000X-0.175000X0.350000X-0.175000X0.350000X0.175000X-0.350000X0.175000X0*%
G04 APERTURE END LIST*
D10*
X40600000Y16805000D03*
X40600000Y18355000D03*
D11*
X59375000Y11380000D03*
X61025000Y11380000D03*
D10*
X38600000Y7405000D03*
X38600000Y8955000D03*
D12*
X41200000Y20805000D03*
X42000000Y20805000D03*
X42800000Y20805000D03*
X43600000Y20805000D03*
X44400000Y20805000D03*
X45200000Y20805000D03*
X46000000Y20805000D03*
X46800000Y20805000D03*
D13*
X48175000Y22180000D03*
X48175000Y22980000D03*
X48175000Y23780000D03*
X48175000Y24580000D03*
X48175000Y25380000D03*
X48175000Y26180000D03*
X48175000Y26980000D03*
X48175000Y27780000D03*
D12*
X46800000Y29155000D03*
X46000000Y29155000D03*
X45200000Y29155000D03*
X44400000Y29155000D03*
X43600000Y29155000D03*
X42800000Y29155000D03*
X42000000Y29155000D03*
X41200000Y29155000D03*
D13*
X39825000Y27780000D03*
X39825000Y26980000D03*
X39825000Y26180000D03*
X39825000Y25380000D03*
X39825000Y24580000D03*
X39825000Y23780000D03*
X39825000Y22980000D03*
X39825000Y22180000D03*
D14*
X45000000Y41555000D03*
X45000000Y43205000D03*
D15*
X69000000Y50355000D03*
X75000000Y50355000D03*
X69000000Y46605000D03*
X75000000Y46605000D03*
X16500000Y31355000D03*
X22500000Y31355000D03*
X16500000Y27605000D03*
X22500000Y27605000D03*
D16*
X63825000Y26780000D03*
X65375000Y26780000D03*
D10*
X42600000Y16805000D03*
X42600000Y18355000D03*
D11*
X31575000Y18180000D03*
X33225000Y18180000D03*
X59375000Y18780000D03*
X61025000Y18780000D03*
D16*
X43025000Y11780000D03*
X44575000Y11780000D03*
D10*
X58000000Y7605000D03*
X58000000Y9155000D03*
D17*
X16600000Y3992500D03*
X16600000Y5567500D03*
D18*
X2650000Y35442500D03*
X4550000Y35442500D03*
X3600000Y37317500D03*
D14*
X48200000Y41555000D03*
X48200000Y43205000D03*
X58400000Y28355000D03*
X58400000Y30005000D03*
D19*
X9000000Y4880000D03*
X9000000Y16080000D03*
D14*
X56400000Y7555000D03*
X56400000Y9205000D03*
D15*
X27500000Y31355000D03*
X33500000Y31355000D03*
X27500000Y27605000D03*
X33500000Y27605000D03*
D14*
X52000000Y14355000D03*
X52000000Y16005000D03*
D18*
X7650000Y35442500D03*
X9550000Y35442500D03*
X8600000Y37317500D03*
D10*
X56800000Y28405000D03*
X56800000Y29955000D03*
D11*
X32175000Y13380000D03*
X33825000Y13380000D03*
D10*
X22000000Y10405000D03*
X22000000Y11955000D03*
X44600000Y16805000D03*
X44600000Y18355000D03*
D11*
X31575000Y16580000D03*
X33225000Y16580000D03*
D20*
X48137500Y8230000D03*
X48137500Y10130000D03*
X45862500Y9180000D03*
D16*
X5425000Y38780000D03*
X6975000Y38780000D03*
D14*
X12000000Y35555000D03*
X12000000Y37205000D03*
D10*
X50600000Y8005000D03*
X50600000Y9555000D03*
D21*
X67537500Y32980000D03*
X70462500Y32980000D03*
D22*
X64262500Y8330000D03*
X64262500Y6430000D03*
X66137500Y7380000D03*
D14*
X18200000Y3955000D03*
X18200000Y5605000D03*
D23*
X23750000Y8025000D03*
X24550000Y8025000D03*
D24*
X25750000Y8025000D03*
X26750000Y8025000D03*
X27250000Y8025000D03*
X28250000Y8025000D03*
D23*
X29450000Y8025000D03*
X30250000Y8025000D03*
X30250000Y8025000D03*
X29450000Y8025000D03*
D24*
X28750000Y8025000D03*
X27750000Y8025000D03*
X26250000Y8025000D03*
X25250000Y8025000D03*
D23*
X24550000Y8025000D03*
X23750000Y8025000D03*
D11*
X18175000Y19380000D03*
X19825000Y19380000D03*
D14*
X30600000Y10355000D03*
X30600000Y12005000D03*
X50400000Y14355000D03*
X50400000Y16005000D03*
D10*
X46200000Y16805000D03*
X46200000Y18355000D03*
D16*
X47225000Y32180000D03*
X48775000Y32180000D03*
D11*
X69375000Y24380000D03*
X71025000Y24380000D03*
X34575000Y22980000D03*
X36225000Y22980000D03*
D25*
X34450000Y8242500D03*
X35400000Y8242500D03*
X36350000Y8242500D03*
X36350000Y10517500D03*
X34450000Y10517500D03*
D21*
X68737500Y20780001D03*
X71662500Y20780001D03*
D14*
X23600000Y10355000D03*
X23600000Y12005000D03*
X54800000Y7555000D03*
X54800000Y9205000D03*
D22*
X64262500Y17330000D03*
X64262500Y15430000D03*
X66137500Y16380000D03*
D11*
X18175000Y17780000D03*
X19825000Y17780000D03*
D26*
X48675000Y49330000D03*
X48675000Y48230000D03*
X46925000Y48230000D03*
X46925000Y49330000D03*
D14*
X53600000Y14355000D03*
X53600000Y16005000D03*
D21*
X74337500Y32980000D03*
X77262500Y32980000D03*
D15*
X5500000Y31355000D03*
X11500000Y31355000D03*
X5500000Y27605000D03*
X11500000Y27605000D03*
D11*
X69375000Y11380000D03*
X71025000Y11380000D03*
X59375000Y23580000D03*
X61025000Y23580000D03*
D14*
X46600000Y41555000D03*
X46600000Y43205000D03*
D27*
X54750000Y3930000D03*
X57750000Y3930000D03*
X59250000Y3930000D03*
D28*
X53325000Y3080000D03*
X53325000Y880000D03*
X60675000Y3080000D03*
X60675000Y880000D03*
D10*
X55200000Y14405000D03*
X55200000Y15955000D03*
D11*
X2375000Y32780000D03*
X4025000Y32780000D03*
M02*
