M48
; DRILL file KiCad 10.0.6 date 2026-09-30T13:17:50
; FORMAT={-:-/ absolute / metric / decimal}
; #@! TF.CreationDate,2026-09-30T13:17:50-04:00
; #@! TF.GenerationSoftware,Kicad,Pcbnew,10.0.6
; #@! TF.FileFunction,Plated,1,2,PTH
FMAT,2
METRIC
; #@! TA.AperFunction,Plated,PTH,ViaDrill
T1C0.300
; #@! TA.AperFunction,Plated,PTH,ComponentDrill
T2C0.600
; #@! TA.AperFunction,Plated,PTH,ComponentDrill
T3C0.850
; #@! TA.AperFunction,Plated,PTH,ComponentDrill
T4C1.000
%
G90
G05
T1
X1.0Y42.98
X1.0Y22.98
X1.0Y12.98
X1.0Y2.98
X3.5Y47.98
X3.5Y27.98
X3.5Y17.98
X3.5Y7.98
X5.392Y39.986
X6.0Y52.98
X6.0Y22.98
X6.0Y2.98
X7.438Y27.605
X8.5Y27.98
X8.5Y17.98
X8.5Y7.98
X8.702Y38.78
X10.255Y7.029
X11.0Y52.98
X11.0Y22.98
X11.0Y12.98
X11.0Y2.98
X13.5Y47.98
X13.5Y27.98
X13.5Y17.98
X13.5Y7.98
X13.676Y35.278
X16.0Y52.98
X16.0Y22.98
X16.0Y12.98
X18.5Y47.98
X18.5Y27.98
X18.5Y7.98
X19.132Y24.139
X20.766Y19.472
X21.0Y52.98
X21.0Y22.98
X22.65Y18.718
X23.5Y47.98
X23.5Y27.98
X26.0Y52.98
X26.0Y2.98
X27.945Y22.86
X28.008Y12.005
X28.5Y27.98
X28.5Y17.98
X31.0Y52.98
X31.131Y25.465
X31.988Y25.714
X32.871Y19.312
X33.79Y30.24
X35.329Y24.265
X35.4Y6.38
X35.511Y20.817
X36.0Y52.98
X36.0Y12.98
X36.0Y2.98
X36.884Y35.545
X37.235Y21.015
X38.025Y24.788
X39.305Y28.898
X41.0Y52.98
X41.086Y27.269
X41.533Y23.149
X41.898Y12.306
X42.068Y30.521
X43.5Y7.98
X43.6Y18.237
X44.053Y19.337
X45.09Y19.518
X45.521Y45.332
X45.76Y38.397
X45.95Y23.934
X46.0Y52.98
X46.0Y12.98
X46.0Y2.98
X46.789Y27.625
X46.909Y24.743
X46.954Y46.765
X47.557Y29.337
X47.652Y17.089
X48.775Y30.555
X49.462Y10.393
X50.066Y23.241
X51.0Y42.98
X51.0Y2.98
X51.053Y17.795
X51.695Y12.932
X52.02Y18.964
X52.776Y25.183
X53.5Y47.98
X53.5Y37.98
X53.5Y27.98
X53.69Y9.324
X55.0Y17.895
X55.015Y23.034
X55.909Y16.803
X55.969Y4.178
X56.0Y42.98
X56.0Y32.98
X56.0Y2.98
X56.829Y26.695
X58.5Y47.98
X58.5Y37.98
X59.186Y13.265
X60.552Y29.948
X60.553Y9.155
X61.0Y52.98
X61.0Y42.98
X61.0Y32.98
X63.003Y17.607
X63.5Y47.98
X63.5Y37.98
X66.0Y52.98
X66.0Y42.98
X66.0Y32.98
X66.402Y27.118
X68.5Y47.98
X68.5Y37.98
X68.5Y27.98
X68.5Y17.98
X69.196Y12.845
X71.0Y52.98
X71.0Y42.98
X72.388Y46.605
X72.8Y4.032
X73.5Y47.98
X73.5Y37.98
X73.5Y27.98
X73.5Y7.98
X76.0Y52.98
X76.0Y42.98
X76.0Y12.98
X76.0Y2.98
X78.5Y47.98
X78.5Y37.98
X78.5Y17.98
X78.5Y7.98
X81.0Y52.98
X81.0Y42.98
X81.0Y32.98
X81.0Y12.98
X81.0Y2.98
X83.5Y47.98
X83.5Y37.98
X83.5Y17.98
X83.5Y7.98
T3
X39.0Y3.18
X43.5Y3.18
T4
X7.0Y49.98
X7.0Y47.44
X7.0Y44.9
X7.0Y42.36
X51.4Y50.78
X53.94Y50.78
X56.48Y50.78
X59.02Y50.78
X61.56Y50.78
X82.4Y27.48
X82.4Y24.94
X82.4Y22.4
T2
X22.68Y7.66G85X22.68Y6.56
G05
X22.68Y3.23G85X22.68Y2.63
G05
X31.32Y7.66G85X31.32Y6.56
G05
X31.32Y3.23G85X31.32Y2.63
G05
M30
