G04 #@! TF.GenerationSoftware,KiCad,Pcbnew,10.0.6*
G04 #@! TF.CreationDate,2026-09-30T09:38:30-04:00*
G04 #@! TF.ProjectId,wallet_dmm,77616c6c-6574-45f6-946d-6d2e6b696361,3*
G04 #@! TF.SameCoordinates,Original*
G04 #@! TF.FileFunction,Copper,L2,Bot*
G04 #@! TF.FilePolarity,Positive*
%FSLAX46Y46*%
G04 Gerber Fmt 4.6, Leading zero omitted, Abs format (unit mm)*
G04 Created by KiCad (PCBNEW 10.0.6) date 2026-09-30 09:38:30*
%MOMM*%
%LPD*%
G01*
G04 APERTURE LIST*
G04 Aperture macros list*
%AMRoundRect*
0 Rectangle with rounded corners*
0 $1 Rounding radius*
0 $2 $3 $4 $5 $6 $7 $8 $9 X,Y pos of 4 corners*
0 Add a 4 corners polygon primitive as box body*
4,1,4,$2,$3,$4,$5,$6,$7,$8,$9,$2,$3,0*
0 Add four circle primitives for the rounded corners*
1,1,$1+$1,$2,$3*
1,1,$1+$1,$4,$5*
1,1,$1+$1,$6,$7*
1,1,$1+$1,$8,$9*
0 Add four rect primitives between the rounded corners*
20,1,$1+$1,$2,$3,$4,$5,0*
20,1,$1+$1,$4,$5,$6,$7,0*
20,1,$1+$1,$6,$7,$8,$9,0*
20,1,$1+$1,$8,$9,$2,$3,0*%
G04 Aperture macros list end*
G04 #@! TA.AperFunction,ComponentPad*
%ADD10R,1.700000X1.700000*%
G04 #@! TD*
G04 #@! TA.AperFunction,ComponentPad*
%ADD11C,1.700000*%
G04 #@! TD*
G04 #@! TA.AperFunction,ComponentPad*
%ADD12RoundRect,0.250000X-0.750000X-0.750000X0.750000X-0.750000X0.750000X0.750000X-0.750000X0.750000X0*%
G04 #@! TD*
G04 #@! TA.AperFunction,ComponentPad*
%ADD13C,2.000000*%
G04 #@! TD*
G04 #@! TA.AperFunction,ComponentPad*
%ADD14O,1.000000X2.100000*%
G04 #@! TD*
G04 #@! TA.AperFunction,ComponentPad*
%ADD15O,1.000000X1.600000*%
G04 #@! TD*
G04 #@! TA.AperFunction,ViaPad*
%ADD16C,0.600000*%
G04 #@! TD*
G04 #@! TA.AperFunction,Conductor*
%ADD17C,0.400000*%
G04 #@! TD*
G04 #@! TA.AperFunction,Conductor*
%ADD18C,0.250000*%
G04 #@! TD*
G04 APERTURE END LIST*
D10*
X82400000Y27480000D03*
D11*
X82400000Y24940000D03*
X82400000Y22400000D03*
D10*
X51400000Y50780000D03*
D11*
X53940000Y50780000D03*
X56480000Y50780000D03*
X59020000Y50780000D03*
X61560000Y50780000D03*
D12*
X39000000Y3180000D03*
D13*
X43500000Y3180000D03*
D10*
X7000000Y49980000D03*
D11*
X7000000Y47440000D03*
X7000000Y44900000D03*
X7000000Y42360000D03*
D14*
X22680000Y7110000D03*
D15*
X22680000Y2930000D03*
D14*
X31320000Y7110000D03*
D15*
X31320000Y2930000D03*
D16*
X47098400Y31005800D03*
X68504900Y3675100D03*
X44152300Y19332700D03*
X46182600Y13119000D03*
X46951400Y10621500D03*
X61000000Y32980000D03*
X6000000Y12980000D03*
X68500000Y37980000D03*
X23500000Y27980000D03*
X10567000Y35875500D03*
X66000000Y32980000D03*
X66000000Y22980000D03*
X1000000Y42980000D03*
X73500000Y7980000D03*
X46000000Y52980000D03*
X81000000Y42980000D03*
X61000000Y52980000D03*
X71000000Y42980000D03*
X35400000Y6380000D03*
X76000000Y42980000D03*
X23500000Y37980000D03*
X18500000Y27980000D03*
X60553400Y9155000D03*
X53500000Y27980000D03*
X68500000Y47980000D03*
X51000000Y52980000D03*
X73500000Y37980000D03*
X38500000Y37980000D03*
X36000000Y32980000D03*
X1000000Y22980000D03*
X3500000Y7980000D03*
X48775000Y30163300D03*
X56238100Y15955000D03*
X21000000Y52980000D03*
X36000000Y2980000D03*
X6000000Y2980000D03*
X11000000Y12980000D03*
X81000000Y32980000D03*
X81000000Y2980000D03*
X43500000Y7980000D03*
X31000000Y42980000D03*
X66000000Y42980000D03*
X7438100Y27605000D03*
X8500000Y17980000D03*
X78500000Y17980000D03*
X26000000Y22980000D03*
X73500000Y17980000D03*
X8500000Y7980000D03*
X36000000Y12980000D03*
X51000000Y2980000D03*
X3500000Y47980000D03*
X43500000Y47980000D03*
X63500000Y37980000D03*
X11000000Y22980000D03*
X26000000Y12980000D03*
X31000000Y52980000D03*
X23500000Y17980000D03*
X33500000Y47980000D03*
X61000000Y42980000D03*
X66000000Y52980000D03*
X63010000Y17296700D03*
X28007700Y12005000D03*
X16000000Y12980000D03*
X68500000Y17980000D03*
X3500000Y17980000D03*
X78500000Y47980000D03*
X8500000Y27980000D03*
X83500000Y17980000D03*
X73500000Y47980000D03*
X63500000Y47980000D03*
X3500000Y27980000D03*
X41000000Y52980000D03*
X1000000Y2980000D03*
X28500000Y47980000D03*
X83500000Y7980000D03*
X81000000Y52980000D03*
X6000000Y22980000D03*
X21000000Y12980000D03*
X56000000Y32980000D03*
X81000000Y12980000D03*
X83500000Y37980000D03*
X38500000Y47980000D03*
X1000000Y12980000D03*
X11000000Y2980000D03*
X66397100Y26466400D03*
X36000000Y52980000D03*
X11000000Y52980000D03*
X34175999Y16748200D03*
X26000000Y52980000D03*
X26000000Y2980000D03*
X13500000Y7980000D03*
X18500000Y37980000D03*
X13500000Y47980000D03*
X16000000Y22980000D03*
X56000000Y52980000D03*
X71545800Y2340800D03*
X46000000Y2980000D03*
X72388200Y46605000D03*
X23500000Y47980000D03*
X56000000Y42980000D03*
X78500000Y37980000D03*
X71000000Y52980000D03*
X13500000Y17980000D03*
X13500000Y27980000D03*
X33500000Y37980000D03*
X28500000Y17980000D03*
X6000000Y52980000D03*
X26000000Y42980000D03*
X83500000Y47980000D03*
X76000000Y52980000D03*
X76000000Y2980000D03*
X18500000Y47980000D03*
X76000000Y12980000D03*
X78500000Y7980000D03*
X16000000Y52980000D03*
X62719000Y14623200D03*
X55633000Y3644400D03*
X33357900Y30301700D03*
X36395300Y21569900D03*
X24928800Y33733100D03*
X34528400Y19454700D03*
X41720700Y17580000D03*
X43262100Y22335601D03*
X58364700Y21219000D03*
X45337600Y19383600D03*
X49647600Y13607700D03*
X47774900Y20793701D03*
X54636000Y26990200D03*
X54348700Y23397700D03*
X33636100Y23440600D03*
X44433200Y24819200D03*
X53980600Y17501400D03*
X52183500Y25184700D03*
X46615600Y40503300D03*
X45794800Y30611800D03*
X44508000Y26962300D03*
X40386000Y29484100D03*
X39697400Y41227300D03*
X39362000Y28724600D03*
X44752800Y40576200D03*
X41328300Y27314400D03*
X41109700Y26116000D03*
X37453000Y24473800D03*
X47981200Y40494200D03*
X43193300Y43743400D03*
X26057100Y31708800D03*
X42580200Y9719100D03*
X5392200Y39985900D03*
X60646500Y29130900D03*
X54243800Y18536300D03*
X22090300Y18435400D03*
X15534300Y5472900D03*
D17*
X46182600Y13119000D02*
X46951400Y12350200D01*
X46951400Y12350200D02*
X46951400Y10621500D01*
X68504900Y3675100D02*
X68504900Y9900600D01*
X68504900Y9900600D02*
X63017200Y15388300D01*
X56736600Y10621500D02*
X46951400Y10621500D01*
X63017200Y15388300D02*
X61503400Y15388300D01*
X44152300Y15149300D02*
X44152300Y19332700D01*
X61503400Y15388300D02*
X56736600Y10621500D01*
X46182600Y13119000D02*
X44152300Y15149300D01*
X51400000Y35307400D02*
X51400000Y50780000D01*
X47098400Y31005800D02*
X51400000Y35307400D01*
X53759500Y1770900D02*
X55633000Y3644400D01*
X40409100Y1770900D02*
X53759500Y1770900D01*
X62719000Y14623200D02*
X55633000Y7537200D01*
X39000000Y3180000D02*
X40409100Y1770900D01*
X55633000Y7537200D02*
X55633000Y3644400D01*
D18*
X36395300Y27264300D02*
X36395300Y21569900D01*
X33357900Y30301700D02*
X36395300Y27264300D01*
X34528400Y19454700D02*
X24928800Y29054300D01*
X24928800Y29054300D02*
X24928800Y33733100D01*
X41720700Y17580000D02*
X41720700Y20794200D01*
X59020000Y38093500D02*
X43262100Y22335601D01*
X41720700Y20794200D02*
X43262100Y22335601D01*
X59020000Y50780000D02*
X59020000Y38093500D01*
X61296100Y29370900D02*
X61296100Y24150400D01*
X52439200Y25815300D02*
X52810200Y25444301D01*
X60898300Y29768700D02*
X61296100Y29370900D01*
X52810200Y25444301D02*
X52810200Y23978900D01*
X52810200Y23978900D02*
X54056600Y22732500D01*
X60019800Y29417600D02*
X60370900Y29768700D01*
X60019800Y28182500D02*
X60019800Y29417600D01*
X60370900Y29768700D02*
X60898300Y29768700D01*
X54056600Y22732500D02*
X54569800Y22732500D01*
X54569800Y22732500D02*
X60019800Y28182500D01*
X61296100Y24150400D02*
X58364700Y21219000D01*
X51769300Y25815300D02*
X52439200Y25815300D01*
X45337600Y19383600D02*
X51769300Y25815300D01*
X47774900Y15480400D02*
X47774900Y20793701D01*
X49647600Y13607700D02*
X47774900Y15480400D01*
X54348700Y26702900D02*
X54348700Y23397700D01*
X54636000Y26990200D02*
X54348700Y26702900D01*
X44433200Y24819200D02*
X40536500Y20922500D01*
X36154200Y20922500D02*
X33636100Y23440600D01*
X40536500Y20922500D02*
X36154200Y20922500D01*
X52183500Y25184700D02*
X52183500Y19298500D01*
X52183500Y19298500D02*
X53980600Y17501400D01*
X46615600Y40503300D02*
X46615600Y31432600D01*
X46615600Y31432600D02*
X45794800Y30611800D01*
X53940000Y50780000D02*
X53940000Y36394300D01*
X53940000Y36394300D02*
X44508000Y26962300D01*
X55303300Y51956700D02*
X50357700Y51956700D01*
X56480000Y50780000D02*
X55303300Y51956700D01*
X50357700Y51956700D02*
X40386000Y41985000D01*
X40386000Y41985000D02*
X40386000Y29484100D01*
X39697400Y41227300D02*
X39697400Y29060000D01*
X39697400Y29060000D02*
X39362000Y28724600D01*
X44752800Y40576200D02*
X44752800Y30738900D01*
X44752800Y30738900D02*
X41328300Y27314400D01*
X39827800Y26116000D02*
X41109700Y26116000D01*
X7000000Y44900000D02*
X21043800Y44900000D01*
X21043800Y44900000D02*
X39827800Y26116000D01*
X22233000Y42360000D02*
X37453000Y27140000D01*
X7000000Y42360000D02*
X22233000Y42360000D01*
X37453000Y27140000D02*
X37453000Y24473800D01*
X44732000Y43743400D02*
X43193300Y43743400D01*
X47981200Y40494200D02*
X44732000Y43743400D01*
D17*
X42580200Y12466100D02*
X26057100Y28989200D01*
X26057100Y28989200D02*
X26057100Y31708800D01*
X42580200Y9719100D02*
X42580200Y12466100D01*
X5392200Y45832200D02*
X7000000Y47440000D01*
X5392200Y39985900D02*
X5392200Y45832200D01*
D18*
X54243800Y18536300D02*
X60646500Y24939000D01*
X60646500Y24939000D02*
X60646500Y29130900D01*
X15534300Y5472900D02*
X22090300Y12028900D01*
X22090300Y12028900D02*
X22090300Y18435400D01*
G04 #@! TA.AperFunction,Conductor*
G36*
X57820003Y50149722D02*
G01*
X57838210Y50124663D01*
X57864948Y50072185D01*
X57864950Y50072181D01*
X57989891Y49900214D01*
X57989893Y49900212D01*
X57989896Y49900208D01*
X58140208Y49749896D01*
X58140211Y49749894D01*
X58140213Y49749892D01*
X58312180Y49624951D01*
X58312193Y49624944D01*
X58340443Y49610550D01*
X58383709Y49567287D01*
X58394500Y49522340D01*
X58394500Y38393600D01*
X58375593Y38335409D01*
X58365504Y38323596D01*
X45267023Y25225116D01*
X45212506Y25197339D01*
X45152074Y25206910D01*
X45114705Y25240117D01*
X45054989Y25329489D01*
X44943489Y25440989D01*
X44891259Y25475888D01*
X44812385Y25528591D01*
X44812374Y25528597D01*
X44666697Y25588937D01*
X44512044Y25619700D01*
X44512042Y25619700D01*
X44354358Y25619700D01*
X44354355Y25619700D01*
X44199703Y25588937D01*
X44199701Y25588937D01*
X44054025Y25528597D01*
X44054014Y25528591D01*
X43922911Y25440989D01*
X43922907Y25440986D01*
X43811414Y25329493D01*
X43811411Y25329489D01*
X43723809Y25198386D01*
X43723803Y25198375D01*
X43663463Y25052699D01*
X43639862Y24934049D01*
X43612768Y24883360D01*
X40306406Y21576996D01*
X40251889Y21549219D01*
X40236402Y21548000D01*
X37294800Y21548000D01*
X37236609Y21566907D01*
X37200645Y21616407D01*
X37196289Y21643908D01*
X37196276Y21643906D01*
X37196253Y21644140D01*
X37195800Y21647000D01*
X37195800Y21648741D01*
X37195799Y21648745D01*
X37187159Y21692181D01*
X37165037Y21803397D01*
X37104694Y21949079D01*
X37037484Y22049667D01*
X37020800Y22104668D01*
X37020800Y23638205D01*
X37039707Y23696396D01*
X37089207Y23732360D01*
X37150393Y23732360D01*
X37157669Y23729676D01*
X37219503Y23704063D01*
X37374158Y23673300D01*
X37374159Y23673300D01*
X37531841Y23673300D01*
X37531842Y23673300D01*
X37686497Y23704063D01*
X37832179Y23764406D01*
X37963289Y23852011D01*
X38074789Y23963511D01*
X38162394Y24094621D01*
X38222737Y24240303D01*
X38253500Y24394958D01*
X38253500Y24552642D01*
X38222737Y24707297D01*
X38192565Y24780138D01*
X38162395Y24852977D01*
X38095184Y24953567D01*
X38078500Y25008568D01*
X38078500Y26741702D01*
X38097407Y26799893D01*
X38146907Y26835857D01*
X38208093Y26835857D01*
X38247503Y26811707D01*
X38858700Y26200509D01*
X39429067Y25630142D01*
X39531507Y25561692D01*
X39531513Y25561689D01*
X39531514Y25561689D01*
X39531515Y25561688D01*
X39584998Y25539535D01*
X39645348Y25514537D01*
X39665397Y25510549D01*
X39766194Y25490499D01*
X39766195Y25490499D01*
X39894287Y25490499D01*
X39894307Y25490500D01*
X40574934Y25490500D01*
X40629936Y25473815D01*
X40730513Y25406610D01*
X40730525Y25406604D01*
X40784338Y25384315D01*
X40876203Y25346263D01*
X41030858Y25315500D01*
X41030859Y25315500D01*
X41188541Y25315500D01*
X41188542Y25315500D01*
X41343197Y25346263D01*
X41488879Y25406606D01*
X41619989Y25494211D01*
X41731489Y25605711D01*
X41819094Y25736821D01*
X41879437Y25882503D01*
X41910200Y26037158D01*
X41910200Y26194842D01*
X41879437Y26349497D01*
X41834692Y26457523D01*
X41819096Y26495175D01*
X41819095Y26495177D01*
X41819094Y26495179D01*
X41788910Y26540352D01*
X41772302Y26599238D01*
X41793479Y26656642D01*
X41816224Y26677668D01*
X41838589Y26692611D01*
X41950089Y26804111D01*
X42037694Y26935221D01*
X42098037Y27080903D01*
X42121637Y27199554D01*
X42148728Y27250240D01*
X45018414Y30119926D01*
X45072930Y30147701D01*
X45133362Y30138130D01*
X45170730Y30104924D01*
X45173008Y30101514D01*
X45173011Y30101511D01*
X45284502Y29990019D01*
X45284506Y29990016D01*
X45284511Y29990011D01*
X45362676Y29937783D01*
X45415614Y29902410D01*
X45415625Y29902404D01*
X45469438Y29880115D01*
X45561303Y29842063D01*
X45715958Y29811300D01*
X45715959Y29811300D01*
X45873641Y29811300D01*
X45873642Y29811300D01*
X46028297Y29842063D01*
X46173979Y29902406D01*
X46305089Y29990011D01*
X46416589Y30101511D01*
X46504194Y30232621D01*
X46525335Y30283663D01*
X46565070Y30330187D01*
X46624565Y30344471D01*
X46671801Y30328091D01*
X46719214Y30296410D01*
X46719217Y30296408D01*
X46719219Y30296407D01*
X46719221Y30296406D01*
X46750833Y30283312D01*
X46797359Y30243577D01*
X46811643Y30184082D01*
X46788229Y30127554D01*
X46782952Y30121844D01*
X44443840Y27782732D01*
X44393151Y27755638D01*
X44274501Y27732037D01*
X44128825Y27671697D01*
X44128814Y27671691D01*
X43997711Y27584089D01*
X43997707Y27584086D01*
X43886214Y27472593D01*
X43886211Y27472589D01*
X43798609Y27341486D01*
X43798603Y27341475D01*
X43738263Y27195799D01*
X43738263Y27195797D01*
X43707500Y27041145D01*
X43707500Y26883456D01*
X43723283Y26804112D01*
X43735737Y26741500D01*
X43738263Y26728804D01*
X43738263Y26728802D01*
X43798603Y26583126D01*
X43798609Y26583115D01*
X43851312Y26504241D01*
X43886211Y26452011D01*
X43997711Y26340511D01*
X44056836Y26301005D01*
X44128814Y26252910D01*
X44128825Y26252904D01*
X44182638Y26230615D01*
X44274503Y26192563D01*
X44429158Y26161800D01*
X44429159Y26161800D01*
X44586841Y26161800D01*
X44586842Y26161800D01*
X44741497Y26192563D01*
X44887179Y26252906D01*
X45018289Y26340511D01*
X45129789Y26452011D01*
X45217394Y26583121D01*
X45277737Y26728803D01*
X45301337Y26847454D01*
X45328428Y26898140D01*
X54333090Y35902801D01*
X54333095Y35902805D01*
X54338731Y35908442D01*
X54338733Y35908442D01*
X54425858Y35995567D01*
X54494311Y36098014D01*
X54541463Y36211848D01*
X54565500Y36332694D01*
X54565500Y49522340D01*
X54584407Y49580531D01*
X54619557Y49610550D01*
X54647806Y49624944D01*
X54647816Y49624949D01*
X54819792Y49749896D01*
X54970104Y49900208D01*
X55095051Y50072184D01*
X55121790Y50124664D01*
X55165054Y50167927D01*
X55225486Y50177499D01*
X55280003Y50149722D01*
X55298210Y50124663D01*
X55324948Y50072185D01*
X55324950Y50072181D01*
X55449891Y49900214D01*
X55449893Y49900212D01*
X55449896Y49900208D01*
X55600208Y49749896D01*
X55600211Y49749894D01*
X55600213Y49749892D01*
X55772180Y49624951D01*
X55772184Y49624949D01*
X55961588Y49528443D01*
X56163757Y49462754D01*
X56163758Y49462754D01*
X56163761Y49462753D01*
X56373710Y49429500D01*
X56373713Y49429500D01*
X56586290Y49429500D01*
X56796238Y49462753D01*
X56796239Y49462754D01*
X56796243Y49462754D01*
X56998412Y49528443D01*
X57187816Y49624949D01*
X57359792Y49749896D01*
X57510104Y49900208D01*
X57635051Y50072184D01*
X57661790Y50124664D01*
X57705054Y50167927D01*
X57765486Y50177499D01*
X57820003Y50149722D01*
G37*
G04 #@! TD.AperFunction*
G04 #@! TA.AperFunction,Conductor*
G36*
X82422777Y53679345D02*
G01*
X82736855Y53661706D01*
X82747878Y53660464D01*
X83055278Y53608235D01*
X83066072Y53605772D01*
X83365702Y53519450D01*
X83376173Y53515786D01*
X83664233Y53396467D01*
X83674235Y53391650D01*
X83947117Y53240833D01*
X83956517Y53234927D01*
X84026742Y53185100D01*
X84210802Y53054503D01*
X84210804Y53054502D01*
X84219481Y53047582D01*
X84451976Y52839812D01*
X84459811Y52831977D01*
X84667579Y52599485D01*
X84674501Y52590805D01*
X84854926Y52336518D01*
X84860832Y52327118D01*
X85011649Y52054236D01*
X85016466Y52044234D01*
X85135783Y51756178D01*
X85139450Y51745699D01*
X85225767Y51446088D01*
X85228237Y51435264D01*
X85280462Y51127884D01*
X85281705Y51116852D01*
X85299344Y50802778D01*
X85299500Y50797227D01*
X85299500Y3182774D01*
X85299344Y3177223D01*
X85281705Y2863150D01*
X85280462Y2852118D01*
X85228237Y2544737D01*
X85225767Y2533913D01*
X85139450Y2234303D01*
X85135783Y2223824D01*
X85016465Y1935767D01*
X85011648Y1925765D01*
X84860831Y1652881D01*
X84854924Y1643480D01*
X84674501Y1389198D01*
X84667580Y1380519D01*
X84459818Y1148033D01*
X84451967Y1140182D01*
X84219481Y932420D01*
X84210802Y925499D01*
X83956520Y745076D01*
X83947119Y739169D01*
X83674235Y588352D01*
X83664233Y583535D01*
X83376176Y464217D01*
X83365697Y460550D01*
X83066087Y374233D01*
X83055263Y371763D01*
X82747882Y319538D01*
X82736850Y318295D01*
X82422778Y300656D01*
X82417227Y300500D01*
X3182773Y300500D01*
X3177222Y300656D01*
X2863148Y318295D01*
X2852116Y319538D01*
X2544736Y371763D01*
X2533912Y374233D01*
X2510194Y381066D01*
X2460278Y395447D01*
X2234301Y460550D01*
X2223822Y464217D01*
X1935766Y583534D01*
X1925764Y588351D01*
X1652882Y739168D01*
X1643482Y745074D01*
X1389195Y925499D01*
X1380515Y932421D01*
X1148023Y1140189D01*
X1140188Y1148024D01*
X932418Y1380519D01*
X925498Y1389196D01*
X878591Y1455305D01*
X745073Y1643483D01*
X739167Y1652883D01*
X588350Y1925765D01*
X583533Y1935767D01*
X572937Y1961348D01*
X464214Y2223827D01*
X460549Y2234302D01*
X460549Y2234303D01*
X374228Y2533928D01*
X371765Y2544722D01*
X319536Y2852122D01*
X318294Y2863149D01*
X317647Y2874663D01*
X300656Y3177223D01*
X300500Y3182774D01*
X300500Y3980017D01*
X37499500Y3980017D01*
X37499500Y2379984D01*
X37509999Y2277212D01*
X37510000Y2277205D01*
X37510001Y2277203D01*
X37543192Y2177038D01*
X37565187Y2110664D01*
X37657285Y1961348D01*
X37657286Y1961347D01*
X37657288Y1961344D01*
X37781344Y1837288D01*
X37930666Y1745186D01*
X38097203Y1690001D01*
X38199991Y1679500D01*
X39468835Y1679501D01*
X39527026Y1660594D01*
X39538838Y1650505D01*
X39864985Y1324359D01*
X39962558Y1226786D01*
X40077282Y1150129D01*
X40077286Y1150127D01*
X40077289Y1150125D01*
X40151966Y1119193D01*
X40204771Y1097320D01*
X40231687Y1091967D01*
X40231690Y1091965D01*
X40231691Y1091966D01*
X40340107Y1070400D01*
X40340108Y1070400D01*
X53828493Y1070400D01*
X53828494Y1070400D01*
X53963828Y1097320D01*
X54091311Y1150125D01*
X54206043Y1226786D01*
X54719847Y1740592D01*
X54774364Y1768368D01*
X54834796Y1758797D01*
X54878061Y1715532D01*
X54881315Y1708472D01*
X54901378Y1660034D01*
X54901379Y1660032D01*
X54901380Y1660031D01*
X54975305Y1549394D01*
X55069394Y1455305D01*
X55180031Y1381380D01*
X55180032Y1381380D01*
X55180033Y1381379D01*
X55182117Y1380516D01*
X55302964Y1330460D01*
X55433469Y1304500D01*
X55433470Y1304500D01*
X55566530Y1304500D01*
X55566531Y1304500D01*
X55697036Y1330460D01*
X55819969Y1381380D01*
X55930606Y1455305D01*
X56024695Y1549394D01*
X56098620Y1660031D01*
X56149540Y1782964D01*
X56175500Y1913469D01*
X56175500Y2046531D01*
X56175500Y2046532D01*
X57824500Y2046532D01*
X57824500Y1913469D01*
X57850460Y1782963D01*
X57901378Y1660034D01*
X57901379Y1660032D01*
X57901380Y1660031D01*
X57975305Y1549394D01*
X58069394Y1455305D01*
X58180031Y1381380D01*
X58180032Y1381380D01*
X58180033Y1381379D01*
X58182117Y1380516D01*
X58302964Y1330460D01*
X58433469Y1304500D01*
X58433470Y1304500D01*
X58566530Y1304500D01*
X58566531Y1304500D01*
X58697036Y1330460D01*
X58819969Y1381380D01*
X58930606Y1455305D01*
X59024695Y1549394D01*
X59098620Y1660031D01*
X59149540Y1782964D01*
X59175500Y1913469D01*
X59175500Y2046531D01*
X59149540Y2177036D01*
X59098620Y2299969D01*
X59024695Y2410606D01*
X58930606Y2504695D01*
X58819969Y2578620D01*
X58819968Y2578621D01*
X58819966Y2578622D01*
X58697037Y2629540D01*
X58566531Y2655500D01*
X58433469Y2655500D01*
X58433468Y2655500D01*
X58302962Y2629540D01*
X58180033Y2578622D01*
X58069397Y2504698D01*
X57975302Y2410603D01*
X57901378Y2299967D01*
X57850460Y2177038D01*
X57824500Y2046532D01*
X56175500Y2046532D01*
X56149540Y2177036D01*
X56098620Y2299969D01*
X56024695Y2410606D01*
X55930606Y2504695D01*
X55819969Y2578620D01*
X55771526Y2598686D01*
X55725001Y2638421D01*
X55710717Y2697915D01*
X55734131Y2754443D01*
X55739395Y2760140D01*
X55831104Y2851849D01*
X55863220Y2873306D01*
X55866495Y2874663D01*
X55866497Y2874663D01*
X56012179Y2935006D01*
X56143289Y3022611D01*
X56254789Y3134111D01*
X56342394Y3265221D01*
X56402737Y3410903D01*
X56433500Y3565558D01*
X56433500Y3723242D01*
X56402737Y3877897D01*
X56389193Y3910595D01*
X56341036Y4026859D01*
X56333500Y4064744D01*
X56333500Y7206036D01*
X56352407Y7264227D01*
X56362490Y7276034D01*
X62917104Y13830649D01*
X62949220Y13852106D01*
X62952495Y13853463D01*
X62952497Y13853463D01*
X63098179Y13913806D01*
X63229289Y14001411D01*
X63251356Y14023479D01*
X63305868Y14051257D01*
X63366301Y14041687D01*
X63391363Y14023480D01*
X67775404Y9639439D01*
X67803181Y9584922D01*
X67804400Y9569435D01*
X67804400Y4095444D01*
X67796864Y4057559D01*
X67735163Y3908599D01*
X67735163Y3908597D01*
X67704400Y3753945D01*
X67704400Y3596256D01*
X67735163Y3441604D01*
X67735163Y3441602D01*
X67795503Y3295926D01*
X67795509Y3295915D01*
X67816023Y3265215D01*
X67883111Y3164811D01*
X67994611Y3053311D01*
X68040557Y3022611D01*
X68125714Y2965710D01*
X68125725Y2965704D01*
X68179538Y2943415D01*
X68271403Y2905363D01*
X68426058Y2874600D01*
X68426059Y2874600D01*
X68583741Y2874600D01*
X68583742Y2874600D01*
X68738397Y2905363D01*
X68884079Y2965706D01*
X69015189Y3053311D01*
X69126689Y3164811D01*
X69214294Y3295921D01*
X69274637Y3441603D01*
X69305400Y3596258D01*
X69305400Y3753942D01*
X69274637Y3908597D01*
X69245058Y3980008D01*
X69212936Y4057559D01*
X69205400Y4095444D01*
X69205400Y9969589D01*
X69205400Y9969593D01*
X69200147Y9995999D01*
X69178480Y10104928D01*
X69125675Y10232411D01*
X69049014Y10347143D01*
X63463743Y15932414D01*
X63349011Y16009075D01*
X63349010Y16009076D01*
X63349008Y16009077D01*
X63221528Y16061880D01*
X63086196Y16088800D01*
X63086194Y16088800D01*
X63086193Y16088800D01*
X61434407Y16088800D01*
X61434404Y16088800D01*
X61325991Y16067236D01*
X61325991Y16067235D01*
X61312531Y16064558D01*
X61299070Y16061880D01*
X61171589Y16009076D01*
X61056860Y15932417D01*
X56475439Y11350996D01*
X56420922Y11323219D01*
X56405435Y11322000D01*
X47750900Y11322000D01*
X47692709Y11340907D01*
X47656745Y11390407D01*
X47651900Y11421000D01*
X47651900Y12419192D01*
X47651899Y12419196D01*
X47624980Y12554527D01*
X47624978Y12554534D01*
X47616548Y12574883D01*
X47616546Y12574888D01*
X47593568Y12630363D01*
X47572175Y12682011D01*
X47572172Y12682016D01*
X47572171Y12682018D01*
X47495514Y12796742D01*
X47397942Y12894314D01*
X47397942Y12894315D01*
X47397941Y12894315D01*
X46975153Y13317104D01*
X46953693Y13349222D01*
X46952337Y13352495D01*
X46952337Y13352497D01*
X46915994Y13440238D01*
X46891996Y13498175D01*
X46891990Y13498186D01*
X46856617Y13551124D01*
X46804389Y13629289D01*
X46692889Y13740789D01*
X46640659Y13775688D01*
X46561785Y13828391D01*
X46561774Y13828397D01*
X46412822Y13890094D01*
X46380703Y13911554D01*
X44881796Y15410461D01*
X44854019Y15464978D01*
X44852800Y15480465D01*
X44852800Y18569792D01*
X44871707Y18627983D01*
X44921207Y18663947D01*
X44982393Y18663947D01*
X44989685Y18661256D01*
X45104103Y18613863D01*
X45258758Y18583100D01*
X45258759Y18583100D01*
X45416441Y18583100D01*
X45416442Y18583100D01*
X45571097Y18613863D01*
X45716779Y18674206D01*
X45847889Y18761811D01*
X45959389Y18873311D01*
X46046994Y19004421D01*
X46107337Y19150103D01*
X46130937Y19268754D01*
X46158028Y19319440D01*
X46980396Y20141807D01*
X47034913Y20169584D01*
X47095345Y20160013D01*
X47138610Y20116748D01*
X47149400Y20071803D01*
X47149400Y15418791D01*
X47173437Y15297950D01*
X47173437Y15297948D01*
X47220586Y15184117D01*
X47220589Y15184111D01*
X47231811Y15167319D01*
X47231812Y15167314D01*
X47231814Y15167314D01*
X47289043Y15081665D01*
X47376169Y14994540D01*
X47376170Y14994540D01*
X48827168Y13543542D01*
X48854262Y13492852D01*
X48877863Y13374204D01*
X48877863Y13374202D01*
X48938203Y13228526D01*
X48938209Y13228515D01*
X48990912Y13149641D01*
X49025811Y13097411D01*
X49137311Y12985911D01*
X49215476Y12933683D01*
X49268414Y12898310D01*
X49268425Y12898304D01*
X49299330Y12885503D01*
X49414103Y12837963D01*
X49568758Y12807200D01*
X49568759Y12807200D01*
X49726441Y12807200D01*
X49726442Y12807200D01*
X49881097Y12837963D01*
X50026779Y12898306D01*
X50157889Y12985911D01*
X50269389Y13097411D01*
X50356994Y13228521D01*
X50417337Y13374203D01*
X50448100Y13528858D01*
X50448100Y13686542D01*
X50417337Y13841197D01*
X50388194Y13911554D01*
X50356996Y13986875D01*
X50356990Y13986886D01*
X50285763Y14093483D01*
X50269389Y14117989D01*
X50157889Y14229489D01*
X50105659Y14264388D01*
X50026785Y14317091D01*
X50026774Y14317097D01*
X49881097Y14377437D01*
X49762448Y14401038D01*
X49711758Y14428132D01*
X48429396Y15710494D01*
X48401619Y15765011D01*
X48400400Y15780498D01*
X48400400Y20258935D01*
X48417085Y20313937D01*
X48421829Y20321036D01*
X48453335Y20368188D01*
X48484290Y20414515D01*
X48484296Y20414527D01*
X48493456Y20436642D01*
X48544637Y20560204D01*
X48575400Y20714859D01*
X48575400Y20872543D01*
X48544637Y21027198D01*
X48484294Y21172880D01*
X48484293Y21172882D01*
X48484290Y21172887D01*
X48436139Y21244949D01*
X48396689Y21303990D01*
X48339638Y21361041D01*
X48311861Y21415558D01*
X48321432Y21475990D01*
X48339638Y21501049D01*
X49789246Y22950657D01*
X51388997Y24550408D01*
X51443513Y24578184D01*
X51503945Y24568613D01*
X51547210Y24525348D01*
X51558000Y24480403D01*
X51558000Y19236891D01*
X51567964Y19186800D01*
X51582037Y19116048D01*
X51593939Y19087314D01*
X51593939Y19087313D01*
X51629186Y19002218D01*
X51629188Y19002213D01*
X51640268Y18985632D01*
X51651426Y18968934D01*
X51651427Y18968931D01*
X51651428Y18968931D01*
X51697642Y18899767D01*
X51697645Y18899764D01*
X51697649Y18899759D01*
X51784769Y18812640D01*
X51784770Y18812640D01*
X53160168Y17437242D01*
X53187262Y17386552D01*
X53210863Y17267904D01*
X53210863Y17267902D01*
X53271203Y17122226D01*
X53271209Y17122215D01*
X53306291Y17069712D01*
X53358811Y16991111D01*
X53470311Y16879611D01*
X53548476Y16827383D01*
X53601414Y16792010D01*
X53601425Y16792004D01*
X53631611Y16779501D01*
X53747103Y16731663D01*
X53901758Y16700900D01*
X53901759Y16700900D01*
X54059441Y16700900D01*
X54059442Y16700900D01*
X54214097Y16731663D01*
X54359779Y16792006D01*
X54490889Y16879611D01*
X54602389Y16991111D01*
X54689994Y17122221D01*
X54750337Y17267903D01*
X54781100Y17422558D01*
X54781100Y17580242D01*
X54750337Y17734897D01*
X54723861Y17798814D01*
X54719061Y17859808D01*
X54751030Y17911977D01*
X54752528Y17913230D01*
X54754083Y17914508D01*
X54754089Y17914511D01*
X54865589Y18026011D01*
X54953194Y18157121D01*
X55013537Y18302803D01*
X55037137Y18421454D01*
X55064228Y18472140D01*
X57485108Y20893020D01*
X57539623Y20920795D01*
X57600055Y20911224D01*
X57643320Y20867959D01*
X57646573Y20860902D01*
X57655304Y20839825D01*
X57655309Y20839815D01*
X57708012Y20760941D01*
X57742911Y20708711D01*
X57854411Y20597211D01*
X57932576Y20544983D01*
X57985514Y20509610D01*
X57985525Y20509604D01*
X58022946Y20494104D01*
X58131203Y20449263D01*
X58285858Y20418500D01*
X58285859Y20418500D01*
X58443541Y20418500D01*
X58443542Y20418500D01*
X58598197Y20449263D01*
X58743879Y20509606D01*
X58874989Y20597211D01*
X58986489Y20708711D01*
X59074094Y20839821D01*
X59134437Y20985503D01*
X59158037Y21104154D01*
X59185128Y21154840D01*
X61781958Y23751667D01*
X61850412Y23854115D01*
X61897563Y23967949D01*
X61897678Y23968524D01*
X61907815Y24019489D01*
X61921601Y24088794D01*
X61921601Y24212007D01*
X61921601Y24216084D01*
X61921600Y24216110D01*
X61921600Y25046291D01*
X81049500Y25046291D01*
X81049500Y24833710D01*
X81082752Y24623762D01*
X81148443Y24421588D01*
X81244948Y24232185D01*
X81244950Y24232181D01*
X81369891Y24060214D01*
X81369893Y24060212D01*
X81369896Y24060208D01*
X81520208Y23909896D01*
X81520211Y23909894D01*
X81520213Y23909892D01*
X81692180Y23784951D01*
X81692184Y23784949D01*
X81744662Y23758210D01*
X81787927Y23714945D01*
X81797498Y23654513D01*
X81769720Y23599996D01*
X81744662Y23581790D01*
X81692184Y23555052D01*
X81692180Y23555050D01*
X81520213Y23430109D01*
X81369891Y23279787D01*
X81244950Y23107820D01*
X81244948Y23107816D01*
X81148443Y22918413D01*
X81082752Y22716239D01*
X81049500Y22506291D01*
X81049500Y22293710D01*
X81082752Y22083762D01*
X81148443Y21881588D01*
X81244948Y21692185D01*
X81244950Y21692181D01*
X81369891Y21520214D01*
X81369893Y21520212D01*
X81369896Y21520208D01*
X81520208Y21369896D01*
X81520211Y21369894D01*
X81520213Y21369892D01*
X81692180Y21244951D01*
X81692184Y21244949D01*
X81881588Y21148443D01*
X82083757Y21082754D01*
X82083758Y21082754D01*
X82083761Y21082753D01*
X82293710Y21049500D01*
X82293713Y21049500D01*
X82506290Y21049500D01*
X82716238Y21082753D01*
X82716239Y21082754D01*
X82716243Y21082754D01*
X82918412Y21148443D01*
X83107816Y21244949D01*
X83279792Y21369896D01*
X83430104Y21520208D01*
X83555051Y21692184D01*
X83651557Y21881588D01*
X83717246Y22083757D01*
X83720558Y22104668D01*
X83750500Y22293710D01*
X83750500Y22506291D01*
X83717247Y22716239D01*
X83717246Y22716243D01*
X83651557Y22918412D01*
X83555051Y23107816D01*
X83555049Y23107820D01*
X83430108Y23279787D01*
X83430106Y23279789D01*
X83430104Y23279792D01*
X83279792Y23430104D01*
X83279788Y23430107D01*
X83279786Y23430109D01*
X83107819Y23555050D01*
X83107815Y23555052D01*
X83076904Y23570802D01*
X83055336Y23581791D01*
X83012073Y23625054D01*
X83002501Y23685486D01*
X83030278Y23740003D01*
X83055335Y23758209D01*
X83107816Y23784949D01*
X83279792Y23909896D01*
X83430104Y24060208D01*
X83555051Y24232184D01*
X83651557Y24421588D01*
X83717246Y24623757D01*
X83750500Y24833713D01*
X83750500Y25046287D01*
X83750500Y25046291D01*
X83717247Y25256239D01*
X83697992Y25315500D01*
X83651557Y25458412D01*
X83555051Y25647816D01*
X83555049Y25647820D01*
X83430108Y25819787D01*
X83430106Y25819789D01*
X83430104Y25819792D01*
X83279792Y25970104D01*
X83279788Y25970107D01*
X83279786Y25970109D01*
X83107819Y26095050D01*
X83107815Y26095052D01*
X83014121Y26142791D01*
X82970856Y26186056D01*
X82961285Y26246488D01*
X82989062Y26301005D01*
X83043579Y26328782D01*
X83059066Y26330001D01*
X83294790Y26330001D01*
X83294791Y26330002D01*
X83319874Y26332910D01*
X83422477Y26378214D01*
X83501786Y26457523D01*
X83547090Y26560128D01*
X83549999Y26585203D01*
X83550000Y26585205D01*
X83550000Y27279999D01*
X83549999Y27280000D01*
X82861880Y27280000D01*
X82865925Y27287007D01*
X82900000Y27414174D01*
X82900000Y27545826D01*
X82865925Y27672993D01*
X82861880Y27680000D01*
X83549998Y27680000D01*
X83549999Y27680001D01*
X83549999Y28374790D01*
X83549998Y28374792D01*
X83547090Y28399875D01*
X83501786Y28502478D01*
X83422477Y28581787D01*
X83319872Y28627091D01*
X83294797Y28630000D01*
X82600001Y28630000D01*
X82600000Y28629999D01*
X82600000Y27941880D01*
X82592993Y27945925D01*
X82465826Y27980000D01*
X82334174Y27980000D01*
X82207007Y27945925D01*
X82200000Y27941880D01*
X82200000Y28629999D01*
X82199999Y28630000D01*
X81505210Y28630000D01*
X81505207Y28629999D01*
X81480125Y28627091D01*
X81377522Y28581787D01*
X81298213Y28502478D01*
X81252909Y28399873D01*
X81250000Y28374798D01*
X81250000Y27680001D01*
X81250001Y27680000D01*
X81938120Y27680000D01*
X81934075Y27672993D01*
X81900000Y27545826D01*
X81900000Y27414174D01*
X81934075Y27287007D01*
X81938120Y27280000D01*
X81250002Y27280000D01*
X81250001Y27279999D01*
X81250001Y26585209D01*
X81252909Y26560126D01*
X81298213Y26457523D01*
X81377522Y26378214D01*
X81480127Y26332910D01*
X81505203Y26330001D01*
X81740932Y26330001D01*
X81799122Y26311094D01*
X81835086Y26261594D01*
X81835087Y26200409D01*
X81799123Y26150909D01*
X81785878Y26142792D01*
X81692189Y26095055D01*
X81692180Y26095050D01*
X81520213Y25970109D01*
X81369891Y25819787D01*
X81244950Y25647820D01*
X81244948Y25647816D01*
X81148443Y25458413D01*
X81082752Y25256239D01*
X81049500Y25046291D01*
X61921600Y25046291D01*
X61921600Y29432504D01*
X61921599Y29432509D01*
X61921304Y29433994D01*
X61897563Y29553352D01*
X61881428Y29592306D01*
X61850412Y29667186D01*
X61806861Y29732363D01*
X61781958Y29769633D01*
X61781957Y29769634D01*
X61781950Y29769642D01*
X61692349Y29859242D01*
X61692348Y29859242D01*
X61384160Y30167430D01*
X61384160Y30167431D01*
X61297041Y30254551D01*
X61297036Y30254555D01*
X61297033Y30254558D01*
X61234403Y30296406D01*
X61234402Y30296407D01*
X61234402Y30296408D01*
X61234400Y30296408D01*
X61207858Y30314144D01*
X61194588Y30323011D01*
X61194586Y30323012D01*
X61114092Y30356353D01*
X61114089Y30356355D01*
X61114088Y30356355D01*
X61080753Y30370163D01*
X61080750Y30370164D01*
X61011131Y30384011D01*
X60959909Y30394200D01*
X60959907Y30394200D01*
X60959906Y30394200D01*
X60432506Y30394200D01*
X60309293Y30394200D01*
X60309290Y30394200D01*
X60258069Y30384011D01*
X60188448Y30370163D01*
X60188446Y30370163D01*
X60096845Y30332220D01*
X60074618Y30323014D01*
X60074616Y30323013D01*
X59972166Y30254558D01*
X59533945Y29816337D01*
X59533942Y29816334D01*
X59533942Y29816333D01*
X59502738Y29769633D01*
X59502737Y29769634D01*
X59465489Y29713889D01*
X59465486Y29713882D01*
X59451416Y29679911D01*
X59446145Y29667186D01*
X59418337Y29600052D01*
X59415591Y29586248D01*
X59415591Y29586247D01*
X59415590Y29586248D01*
X59400413Y29509939D01*
X59397310Y29494337D01*
X59394300Y29479206D01*
X59394300Y29479202D01*
X59394300Y28482598D01*
X59375393Y28424407D01*
X59365304Y28412594D01*
X55143204Y24190494D01*
X55088687Y24162717D01*
X55028255Y24172288D01*
X54984990Y24215553D01*
X54974200Y24260498D01*
X54974200Y26200509D01*
X54993107Y26258700D01*
X55018195Y26282822D01*
X55146289Y26368411D01*
X55257789Y26479911D01*
X55345394Y26611021D01*
X55405737Y26756703D01*
X55436500Y26911358D01*
X55436500Y27069042D01*
X55405737Y27223697D01*
X55356952Y27341475D01*
X55345396Y27369375D01*
X55345390Y27369386D01*
X55276431Y27472589D01*
X55257789Y27500489D01*
X55146289Y27611989D01*
X55056939Y27671691D01*
X55015185Y27699591D01*
X55015174Y27699597D01*
X54869497Y27759937D01*
X54714844Y27790700D01*
X54714842Y27790700D01*
X54557158Y27790700D01*
X54557155Y27790700D01*
X54402503Y27759937D01*
X54402501Y27759937D01*
X54256825Y27699597D01*
X54256814Y27699591D01*
X54125711Y27611989D01*
X54125707Y27611986D01*
X54014214Y27500493D01*
X54014211Y27500489D01*
X53926609Y27369386D01*
X53926603Y27369375D01*
X53866263Y27223699D01*
X53836982Y27076495D01*
X53822200Y27040809D01*
X53794386Y26999183D01*
X53764128Y26926131D01*
X53764128Y26926130D01*
X53747406Y26885760D01*
X53747402Y26885751D01*
X53747239Y26885358D01*
X53747236Y26885350D01*
X53723601Y26766518D01*
X53723596Y26766493D01*
X53723200Y26764508D01*
X53723200Y24189498D01*
X53704293Y24131307D01*
X53654793Y24095343D01*
X53593607Y24095343D01*
X53554196Y24119494D01*
X53464696Y24208994D01*
X53436919Y24263511D01*
X53435700Y24278998D01*
X53435700Y25377795D01*
X53435701Y25377816D01*
X53435701Y25505907D01*
X53435701Y25505908D01*
X53411663Y25626753D01*
X53364512Y25740587D01*
X53307017Y25826632D01*
X53296058Y25843034D01*
X53256588Y25882504D01*
X53208933Y25930160D01*
X53208933Y25930159D01*
X53208932Y25930160D01*
X53208932Y25930161D01*
X52837934Y26301157D01*
X52833429Y26304167D01*
X52786709Y26335385D01*
X52735484Y26369613D01*
X52688333Y26389143D01*
X52688333Y26389144D01*
X52621652Y26416763D01*
X52500808Y26440800D01*
X52500806Y26440800D01*
X51830906Y26440800D01*
X51707693Y26440800D01*
X51707688Y26440800D01*
X51647270Y26428783D01*
X51647271Y26428782D01*
X51586850Y26416764D01*
X51586844Y26416762D01*
X51473016Y26369612D01*
X51473014Y26369611D01*
X51442915Y26349499D01*
X51375074Y26304169D01*
X51375072Y26304168D01*
X51375071Y26304169D01*
X51370574Y26301164D01*
X51370566Y26301157D01*
X45273440Y20204032D01*
X45222751Y20176938D01*
X45104101Y20153337D01*
X44958425Y20092997D01*
X44958414Y20092991D01*
X44827311Y20005389D01*
X44827301Y20005381D01*
X44788269Y19966349D01*
X44733752Y19938572D01*
X44673320Y19948144D01*
X44663264Y19954038D01*
X44531486Y20042091D01*
X44531474Y20042097D01*
X44385797Y20102437D01*
X44231144Y20133200D01*
X44231142Y20133200D01*
X44073458Y20133200D01*
X44073455Y20133200D01*
X43918803Y20102437D01*
X43918801Y20102437D01*
X43773125Y20042097D01*
X43773114Y20042091D01*
X43642011Y19954489D01*
X43642007Y19954486D01*
X43530514Y19842993D01*
X43530511Y19842989D01*
X43442909Y19711886D01*
X43442903Y19711875D01*
X43382563Y19566199D01*
X43382563Y19566197D01*
X43351800Y19411545D01*
X43351800Y19253856D01*
X43382563Y19099204D01*
X43382563Y19099202D01*
X43444264Y18950242D01*
X43451800Y18912357D01*
X43451800Y15080304D01*
X43478720Y14944973D01*
X43478720Y14944971D01*
X43531523Y14817492D01*
X43531524Y14817490D01*
X43531525Y14817489D01*
X43608186Y14702757D01*
X44570154Y13740789D01*
X45390046Y12920897D01*
X45411506Y12888778D01*
X45473203Y12739826D01*
X45473209Y12739815D01*
X45511829Y12682018D01*
X45560811Y12608711D01*
X45672311Y12497211D01*
X45750476Y12444983D01*
X45803414Y12409610D01*
X45803425Y12409604D01*
X45861362Y12385606D01*
X45949103Y12349263D01*
X45949105Y12349263D01*
X45952378Y12347907D01*
X45984496Y12326447D01*
X46106004Y12204939D01*
X46221903Y12089041D01*
X46249681Y12034524D01*
X46250900Y12019037D01*
X46250900Y11041844D01*
X46243364Y11003959D01*
X46181663Y10854999D01*
X46181663Y10854997D01*
X46150900Y10700345D01*
X46150900Y10542656D01*
X46181663Y10388004D01*
X46181663Y10388002D01*
X46242003Y10242326D01*
X46242009Y10242315D01*
X46294712Y10163441D01*
X46329611Y10111211D01*
X46441111Y9999711D01*
X46486186Y9969593D01*
X46572214Y9912110D01*
X46572225Y9912104D01*
X46626038Y9889815D01*
X46717903Y9851763D01*
X46872558Y9821000D01*
X46872559Y9821000D01*
X47030241Y9821000D01*
X47030242Y9821000D01*
X47184897Y9851763D01*
X47257863Y9881987D01*
X47333859Y9913464D01*
X47371744Y9921000D01*
X56787134Y9921000D01*
X56845325Y9902093D01*
X56881289Y9852593D01*
X56881289Y9791407D01*
X56857138Y9751996D01*
X55088883Y7983740D01*
X55012223Y7869009D01*
X54959420Y7741530D01*
X54959420Y7741528D01*
X54932500Y7606196D01*
X54932500Y4064744D01*
X54924964Y4026858D01*
X54861906Y3874623D01*
X54840446Y3842505D01*
X53498339Y2500396D01*
X53443822Y2472619D01*
X53428335Y2471400D01*
X44759528Y2471400D01*
X44701337Y2490307D01*
X44665373Y2539807D01*
X44665373Y2600993D01*
X44671318Y2615345D01*
X44704756Y2680973D01*
X44767991Y2875588D01*
X44800000Y3077685D01*
X44800000Y3282316D01*
X44767991Y3484413D01*
X44704756Y3679028D01*
X44611860Y3861349D01*
X44611856Y3861355D01*
X44549719Y3946878D01*
X44549718Y3946878D01*
X43906782Y3303942D01*
X43896037Y3344044D01*
X43840084Y3440956D01*
X43760956Y3520084D01*
X43664044Y3576037D01*
X43623938Y3586784D01*
X44266876Y4229721D01*
X44181354Y4291857D01*
X44181348Y4291861D01*
X43999027Y4384757D01*
X43804412Y4447992D01*
X43602315Y4480000D01*
X43397685Y4480000D01*
X43195587Y4447992D01*
X43000972Y4384757D01*
X42818651Y4291861D01*
X42818647Y4291859D01*
X42733122Y4229721D01*
X43376060Y3586783D01*
X43335956Y3576037D01*
X43239044Y3520084D01*
X43159916Y3440956D01*
X43103963Y3344044D01*
X43093217Y3303941D01*
X42450279Y3946878D01*
X42388141Y3861353D01*
X42388139Y3861349D01*
X42295243Y3679028D01*
X42232008Y3484413D01*
X42200000Y3282316D01*
X42200000Y3077685D01*
X42232008Y2875588D01*
X42295243Y2680973D01*
X42328682Y2615345D01*
X42338253Y2554913D01*
X42310475Y2500396D01*
X42255959Y2472619D01*
X42240472Y2471400D01*
X40740264Y2471400D01*
X40682073Y2490307D01*
X40670260Y2500396D01*
X40529495Y2641161D01*
X40501718Y2695678D01*
X40500499Y2711165D01*
X40500499Y3980017D01*
X40490000Y4082789D01*
X40489999Y4082791D01*
X40489999Y4082797D01*
X40434814Y4249334D01*
X40408583Y4291861D01*
X40342714Y4398653D01*
X40342713Y4398654D01*
X40342712Y4398656D01*
X40218656Y4522712D01*
X40218653Y4522714D01*
X40218652Y4522715D01*
X40069336Y4614813D01*
X40069335Y4614814D01*
X40069334Y4614814D01*
X39902797Y4669999D01*
X39902794Y4670000D01*
X39800016Y4680500D01*
X38199983Y4680500D01*
X38097211Y4670001D01*
X38097199Y4669998D01*
X37930663Y4614813D01*
X37781347Y4522715D01*
X37657285Y4398653D01*
X37565187Y4249337D01*
X37510000Y4082795D01*
X37499500Y3980017D01*
X300500Y3980017D01*
X300500Y5551745D01*
X14733800Y5551745D01*
X14733800Y5394056D01*
X14764563Y5239404D01*
X14764563Y5239402D01*
X14824903Y5093726D01*
X14824909Y5093715D01*
X14877612Y5014841D01*
X14912511Y4962611D01*
X15024011Y4851111D01*
X15102176Y4798883D01*
X15155114Y4763510D01*
X15155125Y4763504D01*
X15208938Y4741215D01*
X15300803Y4703163D01*
X15455458Y4672400D01*
X15455459Y4672400D01*
X15613141Y4672400D01*
X15613142Y4672400D01*
X15767797Y4703163D01*
X15913479Y4763506D01*
X16044589Y4851111D01*
X16156089Y4962611D01*
X16243694Y5093721D01*
X16304037Y5239403D01*
X16327637Y5358054D01*
X16354728Y5408740D01*
X17601754Y6655766D01*
X23534500Y6655766D01*
X23534500Y6504234D01*
X23569086Y6375153D01*
X23573720Y6357861D01*
X23649481Y6226640D01*
X23649483Y6226638D01*
X23649485Y6226635D01*
X23756635Y6119485D01*
X23756637Y6119484D01*
X23756639Y6119482D01*
X23887861Y6043721D01*
X23887859Y6043721D01*
X23887863Y6043720D01*
X23887865Y6043719D01*
X24034234Y6004500D01*
X24034236Y6004500D01*
X24185764Y6004500D01*
X24185766Y6004500D01*
X24332135Y6043719D01*
X24332137Y6043721D01*
X24332139Y6043721D01*
X24463360Y6119482D01*
X24463360Y6119483D01*
X24463365Y6119485D01*
X24570515Y6226635D01*
X24646281Y6357865D01*
X24685500Y6504234D01*
X24685500Y6655766D01*
X29314500Y6655766D01*
X29314500Y6504234D01*
X29349086Y6375153D01*
X29353720Y6357861D01*
X29429481Y6226640D01*
X29429483Y6226638D01*
X29429485Y6226635D01*
X29536635Y6119485D01*
X29536637Y6119484D01*
X29536639Y6119482D01*
X29667861Y6043721D01*
X29667859Y6043721D01*
X29667863Y6043720D01*
X29667865Y6043719D01*
X29814234Y6004500D01*
X29814236Y6004500D01*
X29965764Y6004500D01*
X29965766Y6004500D01*
X30112135Y6043719D01*
X30112137Y6043721D01*
X30112139Y6043721D01*
X30243360Y6119482D01*
X30243360Y6119483D01*
X30243365Y6119485D01*
X30350515Y6226635D01*
X30426281Y6357865D01*
X30465500Y6504234D01*
X30465500Y6655766D01*
X30426281Y6802135D01*
X30426279Y6802138D01*
X30426279Y6802140D01*
X30350518Y6933361D01*
X30350516Y6933363D01*
X30350515Y6933365D01*
X30243365Y7040515D01*
X30243362Y7040517D01*
X30243360Y7040519D01*
X30112138Y7116280D01*
X30112140Y7116280D01*
X30055347Y7131497D01*
X29965766Y7155500D01*
X29814234Y7155500D01*
X29724652Y7131497D01*
X29667860Y7116280D01*
X29536639Y7040519D01*
X29429481Y6933361D01*
X29353720Y6802140D01*
X29353719Y6802135D01*
X29314500Y6655766D01*
X24685500Y6655766D01*
X24646281Y6802135D01*
X24646279Y6802138D01*
X24646279Y6802140D01*
X24570518Y6933361D01*
X24570516Y6933363D01*
X24570515Y6933365D01*
X24463365Y7040515D01*
X24463362Y7040517D01*
X24463360Y7040519D01*
X24332138Y7116280D01*
X24332140Y7116280D01*
X24275347Y7131497D01*
X24185766Y7155500D01*
X24034234Y7155500D01*
X23944652Y7131497D01*
X23887860Y7116280D01*
X23756639Y7040519D01*
X23649481Y6933361D01*
X23573720Y6802140D01*
X23573719Y6802135D01*
X23534500Y6655766D01*
X17601754Y6655766D01*
X22489029Y11543040D01*
X22489033Y11543042D01*
X22576158Y11630167D01*
X22610384Y11681391D01*
X22644612Y11732614D01*
X22677952Y11813108D01*
X22677952Y11813109D01*
X22677953Y11813109D01*
X22677953Y11813112D01*
X22691763Y11846448D01*
X22715800Y11967294D01*
X22715800Y17900634D01*
X22732485Y17955636D01*
X22799690Y18056214D01*
X22799696Y18056226D01*
X22811505Y18084736D01*
X22860037Y18201903D01*
X22890800Y18356558D01*
X22890800Y18514242D01*
X22860037Y18668897D01*
X22839922Y18717458D01*
X22799696Y18814575D01*
X22799690Y18814586D01*
X22742772Y18899768D01*
X22712089Y18945689D01*
X22600589Y19057189D01*
X22537709Y19099204D01*
X22469485Y19144791D01*
X22469474Y19144797D01*
X22323797Y19205137D01*
X22169144Y19235900D01*
X22169142Y19235900D01*
X22011458Y19235900D01*
X22011455Y19235900D01*
X21856803Y19205137D01*
X21856801Y19205137D01*
X21711125Y19144797D01*
X21711114Y19144791D01*
X21580011Y19057189D01*
X21580007Y19057186D01*
X21468514Y18945693D01*
X21468511Y18945689D01*
X21380909Y18814586D01*
X21380903Y18814575D01*
X21320563Y18668899D01*
X21320563Y18668897D01*
X21289800Y18514245D01*
X21289800Y18356556D01*
X21320563Y18201904D01*
X21320563Y18201902D01*
X21380903Y18056226D01*
X21380909Y18056214D01*
X21448115Y17955636D01*
X21464800Y17900634D01*
X21464800Y12328999D01*
X21445893Y12270808D01*
X21435804Y12258995D01*
X15470140Y6293332D01*
X15419451Y6266238D01*
X15300801Y6242637D01*
X15155125Y6182297D01*
X15155114Y6182291D01*
X15024011Y6094689D01*
X15024007Y6094686D01*
X14912514Y5983193D01*
X14912511Y5983189D01*
X14824909Y5852086D01*
X14824903Y5852075D01*
X14764563Y5706399D01*
X14764563Y5706397D01*
X14733800Y5551745D01*
X300500Y5551745D01*
X300500Y40064745D01*
X4591700Y40064745D01*
X4591700Y39907056D01*
X4622463Y39752404D01*
X4622463Y39752402D01*
X4682803Y39606726D01*
X4682809Y39606715D01*
X4735512Y39527841D01*
X4770411Y39475611D01*
X4881911Y39364111D01*
X4960076Y39311883D01*
X5013014Y39276510D01*
X5013025Y39276504D01*
X5066838Y39254215D01*
X5158703Y39216163D01*
X5313358Y39185400D01*
X5313359Y39185400D01*
X5471041Y39185400D01*
X5471042Y39185400D01*
X5625697Y39216163D01*
X5771379Y39276506D01*
X5902489Y39364111D01*
X6013989Y39475611D01*
X6101594Y39606721D01*
X6161937Y39752403D01*
X6192700Y39907058D01*
X6192700Y40064742D01*
X6161937Y40219397D01*
X6110863Y40342702D01*
X6100236Y40368359D01*
X6092700Y40406244D01*
X6092700Y41155584D01*
X6111607Y41213775D01*
X6161107Y41249739D01*
X6222293Y41249739D01*
X6249888Y41235679D01*
X6292184Y41204949D01*
X6481588Y41108443D01*
X6683757Y41042754D01*
X6683758Y41042754D01*
X6683761Y41042753D01*
X6893710Y41009500D01*
X6893713Y41009500D01*
X7106290Y41009500D01*
X7316238Y41042753D01*
X7316239Y41042754D01*
X7316243Y41042754D01*
X7518412Y41108443D01*
X7707816Y41204949D01*
X7879792Y41329896D01*
X8030104Y41480208D01*
X8155051Y41652184D01*
X8155986Y41654021D01*
X8169452Y41680446D01*
X8212717Y41723710D01*
X8257661Y41734500D01*
X21932902Y41734500D01*
X21991093Y41715593D01*
X22002906Y41705504D01*
X32746261Y30962148D01*
X32774038Y30907631D01*
X32764467Y30847199D01*
X32746266Y30822146D01*
X32736110Y30811990D01*
X32736110Y30811989D01*
X32648509Y30680887D01*
X32648503Y30680875D01*
X32588163Y30535199D01*
X32588163Y30535197D01*
X32557400Y30380545D01*
X32557400Y30222856D01*
X32588163Y30068204D01*
X32588163Y30068202D01*
X32648503Y29922526D01*
X32648509Y29922515D01*
X32690788Y29859242D01*
X32736111Y29791411D01*
X32847611Y29679911D01*
X32925776Y29627683D01*
X32978714Y29592310D01*
X32978725Y29592304D01*
X33032538Y29570015D01*
X33124403Y29531963D01*
X33243051Y29508363D01*
X33293741Y29481269D01*
X35740804Y27034206D01*
X35768581Y26979689D01*
X35769800Y26964202D01*
X35769800Y22430498D01*
X35750893Y22372307D01*
X35701393Y22336343D01*
X35640207Y22336343D01*
X35600796Y22360494D01*
X34456531Y23504759D01*
X34429437Y23555449D01*
X34405837Y23674097D01*
X34385722Y23722658D01*
X34345496Y23819775D01*
X34345490Y23819786D01*
X34285282Y23909892D01*
X34257889Y23950889D01*
X34146389Y24062389D01*
X34094159Y24097288D01*
X34015285Y24149991D01*
X34015274Y24149997D01*
X33869597Y24210337D01*
X33714944Y24241100D01*
X33714942Y24241100D01*
X33557258Y24241100D01*
X33557255Y24241100D01*
X33402603Y24210337D01*
X33402601Y24210337D01*
X33256925Y24149997D01*
X33256914Y24149991D01*
X33125811Y24062389D01*
X33125807Y24062386D01*
X33014314Y23950893D01*
X33014311Y23950889D01*
X32926709Y23819786D01*
X32926703Y23819775D01*
X32866363Y23674099D01*
X32866363Y23674097D01*
X32835600Y23519445D01*
X32835600Y23440365D01*
X32816693Y23382174D01*
X32767193Y23346210D01*
X32706007Y23346210D01*
X32666596Y23370361D01*
X26786596Y29250361D01*
X26758819Y29304878D01*
X26757600Y29320365D01*
X26757600Y31288457D01*
X26765136Y31326342D01*
X26800201Y31410997D01*
X26826837Y31475303D01*
X26857600Y31629958D01*
X26857600Y31787642D01*
X26826837Y31942297D01*
X26766494Y32087979D01*
X26766493Y32087981D01*
X26766490Y32087986D01*
X26731117Y32140924D01*
X26678889Y32219089D01*
X26567389Y32330589D01*
X26496187Y32378165D01*
X26436285Y32418191D01*
X26436274Y32418197D01*
X26290597Y32478537D01*
X26135944Y32509300D01*
X26135942Y32509300D01*
X25978258Y32509300D01*
X25978255Y32509300D01*
X25823603Y32478537D01*
X25823601Y32478537D01*
X25691185Y32423689D01*
X25630188Y32418889D01*
X25578019Y32450858D01*
X25554605Y32507386D01*
X25554300Y32515153D01*
X25554300Y33198334D01*
X25570985Y33253336D01*
X25638190Y33353914D01*
X25638196Y33353926D01*
X25698537Y33499603D01*
X25729300Y33654258D01*
X25729300Y33811942D01*
X25698537Y33966597D01*
X25638194Y34112279D01*
X25638193Y34112281D01*
X25638190Y34112286D01*
X25602817Y34165224D01*
X25550589Y34243389D01*
X25439089Y34354889D01*
X25386859Y34389788D01*
X25307985Y34442491D01*
X25307974Y34442497D01*
X25162297Y34502837D01*
X25007644Y34533600D01*
X25007642Y34533600D01*
X24849958Y34533600D01*
X24849955Y34533600D01*
X24695303Y34502837D01*
X24695301Y34502837D01*
X24549625Y34442497D01*
X24549614Y34442491D01*
X24418511Y34354889D01*
X24418507Y34354886D01*
X24307014Y34243393D01*
X24307011Y34243389D01*
X24219409Y34112286D01*
X24219403Y34112275D01*
X24159063Y33966599D01*
X24159063Y33966597D01*
X24128300Y33811945D01*
X24128300Y33654256D01*
X24159063Y33499604D01*
X24159063Y33499602D01*
X24219403Y33353926D01*
X24219409Y33353914D01*
X24286615Y33253336D01*
X24303300Y33198334D01*
X24303300Y28992691D01*
X24313551Y28941157D01*
X24313551Y28941156D01*
X24327336Y28871851D01*
X24327339Y28871840D01*
X24332824Y28858601D01*
X24332826Y28858597D01*
X24374486Y28758017D01*
X24374487Y28758015D01*
X24374488Y28758014D01*
X24403654Y28714366D01*
X24403655Y28714363D01*
X24403656Y28714363D01*
X24439684Y28660442D01*
X24442942Y28655567D01*
X24530067Y28568442D01*
X24530069Y28568441D01*
X33707968Y19390541D01*
X33735062Y19339851D01*
X33755542Y19236891D01*
X33758663Y19221204D01*
X33758663Y19221202D01*
X33819003Y19075526D01*
X33819009Y19075515D01*
X33867988Y19002214D01*
X33906611Y18944411D01*
X34018111Y18832911D01*
X34096276Y18780683D01*
X34149214Y18745310D01*
X34149225Y18745304D01*
X34203038Y18723015D01*
X34294903Y18684963D01*
X34449558Y18654200D01*
X34449559Y18654200D01*
X34607241Y18654200D01*
X34607242Y18654200D01*
X34761897Y18684963D01*
X34907579Y18745306D01*
X35038689Y18832911D01*
X35060706Y18854929D01*
X35115218Y18882707D01*
X35175651Y18873137D01*
X35200713Y18854930D01*
X41850704Y12204939D01*
X41878481Y12150422D01*
X41879700Y12134935D01*
X41879700Y10139444D01*
X41872164Y10101559D01*
X41810463Y9952599D01*
X41810463Y9952597D01*
X41779700Y9797945D01*
X41779700Y9640256D01*
X41810463Y9485604D01*
X41810463Y9485602D01*
X41870803Y9339926D01*
X41870809Y9339915D01*
X41923512Y9261041D01*
X41958411Y9208811D01*
X42069911Y9097311D01*
X42148076Y9045083D01*
X42201014Y9009710D01*
X42201025Y9009704D01*
X42254838Y8987415D01*
X42346703Y8949363D01*
X42501358Y8918600D01*
X42501359Y8918600D01*
X42659041Y8918600D01*
X42659042Y8918600D01*
X42813697Y8949363D01*
X42959379Y9009706D01*
X43090489Y9097311D01*
X43201989Y9208811D01*
X43289594Y9339921D01*
X43349937Y9485603D01*
X43380700Y9640258D01*
X43380700Y9797942D01*
X43349937Y9952597D01*
X43330422Y9999711D01*
X43288236Y10101559D01*
X43280700Y10139444D01*
X43280700Y12535092D01*
X43280699Y12535096D01*
X43276834Y12554528D01*
X43253780Y12670428D01*
X43200975Y12797911D01*
X43142448Y12885503D01*
X43124314Y12912643D01*
X35883168Y20153789D01*
X35855391Y20208306D01*
X35864962Y20268738D01*
X35908227Y20312003D01*
X35968659Y20321574D01*
X35972464Y20320895D01*
X36032171Y20309019D01*
X36092593Y20297000D01*
X36092594Y20297000D01*
X40598106Y20297000D01*
X40598107Y20297000D01*
X40658529Y20309019D01*
X40718952Y20321037D01*
X40752288Y20334847D01*
X40752291Y20334847D01*
X40752291Y20334848D01*
X40752292Y20334848D01*
X40832786Y20368188D01*
X40902128Y20414522D01*
X40935233Y20436642D01*
X40935236Y20436646D01*
X40939275Y20439344D01*
X40940288Y20437828D01*
X40990352Y20457434D01*
X41049558Y20441997D01*
X41088383Y20394708D01*
X41095200Y20358607D01*
X41095200Y18114768D01*
X41078516Y18059767D01*
X41011304Y17959177D01*
X40950963Y17813499D01*
X40950963Y17813497D01*
X40920200Y17658845D01*
X40920200Y17501156D01*
X40950963Y17346504D01*
X40950963Y17346502D01*
X41011303Y17200826D01*
X41011309Y17200815D01*
X41063822Y17122226D01*
X41098911Y17069711D01*
X41210411Y16958211D01*
X41288576Y16905983D01*
X41341514Y16870610D01*
X41341525Y16870604D01*
X41395338Y16848315D01*
X41487203Y16810263D01*
X41641858Y16779500D01*
X41641859Y16779500D01*
X41799541Y16779500D01*
X41799542Y16779500D01*
X41954197Y16810263D01*
X42099879Y16870606D01*
X42230989Y16958211D01*
X42342489Y17069711D01*
X42430094Y17200821D01*
X42490437Y17346503D01*
X42521200Y17501158D01*
X42521200Y17658842D01*
X42490437Y17813497D01*
X42430094Y17959179D01*
X42362884Y18059767D01*
X42346200Y18114768D01*
X42346200Y20494104D01*
X42365107Y20552295D01*
X42375190Y20564102D01*
X43326260Y21515173D01*
X43376946Y21542264D01*
X43495597Y21565864D01*
X43641279Y21626207D01*
X43772389Y21713812D01*
X43883889Y21825312D01*
X43971494Y21956422D01*
X44031837Y22102104D01*
X44055437Y22220755D01*
X44082528Y22271441D01*
X59413089Y37602001D01*
X59413095Y37602005D01*
X59418731Y37607642D01*
X59418733Y37607642D01*
X59505858Y37694767D01*
X59574311Y37797214D01*
X59621463Y37911048D01*
X59645500Y38031894D01*
X59645500Y49522340D01*
X59664407Y49580531D01*
X59699557Y49610550D01*
X59727806Y49624944D01*
X59727816Y49624949D01*
X59899792Y49749896D01*
X60050104Y49900208D01*
X60175051Y50072184D01*
X60271557Y50261588D01*
X60301254Y50352988D01*
X60337217Y50402485D01*
X60395407Y50421393D01*
X60453598Y50402486D01*
X60489562Y50352988D01*
X60494250Y50338561D01*
X60576430Y50177272D01*
X60617667Y50120512D01*
X61091980Y50594826D01*
X61094075Y50587007D01*
X61159901Y50472993D01*
X61252993Y50379901D01*
X61367007Y50314075D01*
X61374821Y50311981D01*
X60900511Y49837670D01*
X60957275Y49796429D01*
X61118559Y49714251D01*
X61290710Y49658317D01*
X61469490Y49630000D01*
X61650510Y49630000D01*
X61829289Y49658317D01*
X62001440Y49714251D01*
X62162728Y49796431D01*
X62219487Y49837670D01*
X61745176Y50311981D01*
X61752993Y50314075D01*
X61867007Y50379901D01*
X61960099Y50472993D01*
X62025925Y50587007D01*
X62028019Y50594824D01*
X62502330Y50120513D01*
X62543569Y50177272D01*
X62625749Y50338560D01*
X62681683Y50510711D01*
X62710000Y50689490D01*
X62710000Y50870511D01*
X62681683Y51049290D01*
X62625749Y51221441D01*
X62543571Y51382725D01*
X62502330Y51439489D01*
X62028019Y50965179D01*
X62025925Y50972993D01*
X61960099Y51087007D01*
X61867007Y51180099D01*
X61752993Y51245925D01*
X61745174Y51248020D01*
X62219488Y51722333D01*
X62162728Y51763570D01*
X62001440Y51845750D01*
X61829289Y51901684D01*
X61650510Y51930000D01*
X61469490Y51930000D01*
X61290710Y51901684D01*
X61118559Y51845750D01*
X60957267Y51763568D01*
X60900510Y51722333D01*
X61374823Y51248020D01*
X61367007Y51245925D01*
X61252993Y51180099D01*
X61159901Y51087007D01*
X61094075Y50972993D01*
X61091980Y50965177D01*
X60617667Y51439490D01*
X60576432Y51382733D01*
X60494249Y51221438D01*
X60489561Y51207011D01*
X60453595Y51157513D01*
X60395404Y51138608D01*
X60337214Y51157518D01*
X60301253Y51207015D01*
X60271557Y51298412D01*
X60175051Y51487816D01*
X60175049Y51487820D01*
X60074359Y51626408D01*
X60074357Y51626410D01*
X60059607Y51646712D01*
X60050104Y51659792D01*
X59899792Y51810104D01*
X59899788Y51810107D01*
X59899786Y51810109D01*
X59727819Y51935050D01*
X59727815Y51935052D01*
X59538412Y52031557D01*
X59336238Y52097248D01*
X59126290Y52130500D01*
X59126287Y52130500D01*
X58913713Y52130500D01*
X58913710Y52130500D01*
X58703761Y52097248D01*
X58501587Y52031557D01*
X58312184Y51935052D01*
X58312180Y51935050D01*
X58140213Y51810109D01*
X57989891Y51659787D01*
X57864950Y51487820D01*
X57864948Y51487816D01*
X57838210Y51435338D01*
X57794945Y51392073D01*
X57734513Y51382502D01*
X57679996Y51410280D01*
X57661790Y51435338D01*
X57635051Y51487816D01*
X57635049Y51487820D01*
X57510108Y51659787D01*
X57510105Y51659790D01*
X57510104Y51659792D01*
X57359792Y51810104D01*
X57359788Y51810107D01*
X57359786Y51810109D01*
X57187819Y51935050D01*
X57187815Y51935052D01*
X56998412Y52031557D01*
X56796238Y52097248D01*
X56586290Y52130500D01*
X56586287Y52130500D01*
X56373713Y52130500D01*
X56373710Y52130500D01*
X56163756Y52097247D01*
X56133589Y52087445D01*
X56072403Y52087446D01*
X56032994Y52111596D01*
X55789160Y52355430D01*
X55789160Y52355431D01*
X55702035Y52442557D01*
X55650809Y52476785D01*
X55599587Y52511011D01*
X55599588Y52511011D01*
X55599586Y52511012D01*
X55519092Y52544353D01*
X55502422Y52551258D01*
X55485755Y52558162D01*
X55485749Y52558164D01*
X55425329Y52570182D01*
X55425329Y52570183D01*
X55364911Y52582200D01*
X55364907Y52582200D01*
X55364906Y52582200D01*
X50419306Y52582200D01*
X50296093Y52582200D01*
X50296088Y52582200D01*
X50235670Y52570183D01*
X50235671Y52570182D01*
X50175249Y52558164D01*
X50061415Y52511012D01*
X50061406Y52511007D01*
X49958968Y52442560D01*
X39987267Y42470858D01*
X39987266Y42470859D01*
X39900141Y42383733D01*
X39865915Y42332510D01*
X39831686Y42281285D01*
X39831686Y42281284D01*
X39798347Y42200793D01*
X39792823Y42187457D01*
X39784537Y42167455D01*
X39784537Y42167453D01*
X39772610Y42107487D01*
X39742714Y42054103D01*
X39687149Y42028486D01*
X39675512Y42027800D01*
X39618555Y42027800D01*
X39463903Y41997037D01*
X39463901Y41997037D01*
X39318225Y41936697D01*
X39318214Y41936691D01*
X39187111Y41849089D01*
X39187107Y41849086D01*
X39075614Y41737593D01*
X39075611Y41737589D01*
X38988009Y41606486D01*
X38988003Y41606475D01*
X38927663Y41460799D01*
X38927663Y41460797D01*
X38896900Y41306145D01*
X38896900Y41148456D01*
X38909226Y41086493D01*
X38925537Y41004489D01*
X38927663Y40993804D01*
X38927663Y40993802D01*
X38988003Y40848126D01*
X38988009Y40848114D01*
X39055215Y40747536D01*
X39071900Y40692534D01*
X39071900Y29537042D01*
X39052993Y29478851D01*
X39010787Y29445578D01*
X38982820Y29433994D01*
X38851711Y29346389D01*
X38851707Y29346386D01*
X38740214Y29234893D01*
X38740211Y29234889D01*
X38652609Y29103786D01*
X38652603Y29103775D01*
X38592263Y28958099D01*
X38592263Y28958097D01*
X38561500Y28803445D01*
X38561500Y28645756D01*
X38591904Y28492907D01*
X38584712Y28432146D01*
X38543180Y28387216D01*
X38483170Y28375279D01*
X38427605Y28400895D01*
X38424802Y28403589D01*
X21442532Y45385859D01*
X21391309Y45420085D01*
X21340087Y45454311D01*
X21340088Y45454311D01*
X21340086Y45454312D01*
X21259592Y45487653D01*
X21242922Y45494558D01*
X21226255Y45501462D01*
X21226249Y45501464D01*
X21165829Y45513482D01*
X21165829Y45513483D01*
X21105411Y45525500D01*
X21105407Y45525500D01*
X21105406Y45525500D01*
X8257661Y45525500D01*
X8199470Y45544407D01*
X8169452Y45579554D01*
X8155054Y45607811D01*
X8155049Y45607820D01*
X8030108Y45779787D01*
X8030106Y45779789D01*
X8030104Y45779792D01*
X7879792Y45930104D01*
X7879788Y45930107D01*
X7879786Y45930109D01*
X7707819Y46055050D01*
X7707815Y46055052D01*
X7676904Y46070802D01*
X7655336Y46081791D01*
X7612073Y46125054D01*
X7602501Y46185486D01*
X7630278Y46240003D01*
X7655335Y46258209D01*
X7707816Y46284949D01*
X7879792Y46409896D01*
X8030104Y46560208D01*
X8155051Y46732184D01*
X8251557Y46921588D01*
X8317246Y47123757D01*
X8350500Y47333713D01*
X8350500Y47546287D01*
X8350500Y47546291D01*
X8317247Y47756239D01*
X8317246Y47756243D01*
X8251557Y47958412D01*
X8155051Y48147816D01*
X8155049Y48147820D01*
X8030108Y48319787D01*
X8030106Y48319789D01*
X8030104Y48319792D01*
X7879792Y48470104D01*
X7879788Y48470107D01*
X7879786Y48470109D01*
X7707819Y48595050D01*
X7707815Y48595052D01*
X7614121Y48642791D01*
X7570856Y48686056D01*
X7561285Y48746488D01*
X7589062Y48801005D01*
X7643579Y48828782D01*
X7659066Y48830001D01*
X7894790Y48830001D01*
X7894791Y48830002D01*
X7919874Y48832910D01*
X8022477Y48878214D01*
X8101786Y48957523D01*
X8147090Y49060128D01*
X8149999Y49085203D01*
X8150000Y49085205D01*
X8150000Y49779999D01*
X8149999Y49780000D01*
X7461880Y49780000D01*
X7465925Y49787007D01*
X7500000Y49914174D01*
X7500000Y50045826D01*
X7465925Y50172993D01*
X7461880Y50180000D01*
X8149998Y50180000D01*
X8149999Y50180001D01*
X8149999Y50874790D01*
X8149998Y50874792D01*
X8147090Y50899875D01*
X8101786Y51002478D01*
X8022477Y51081787D01*
X7919872Y51127091D01*
X7894797Y51130000D01*
X7200001Y51130000D01*
X7200000Y51129999D01*
X7200000Y50441880D01*
X7192993Y50445925D01*
X7065826Y50480000D01*
X6934174Y50480000D01*
X6807007Y50445925D01*
X6800000Y50441880D01*
X6800000Y51129999D01*
X6799999Y51130000D01*
X6105210Y51130000D01*
X6105207Y51129999D01*
X6080125Y51127091D01*
X5977522Y51081787D01*
X5898213Y51002478D01*
X5852909Y50899873D01*
X5850000Y50874798D01*
X5850000Y50180001D01*
X5850001Y50180000D01*
X6538120Y50180000D01*
X6534075Y50172993D01*
X6500000Y50045826D01*
X6500000Y49914174D01*
X6534075Y49787007D01*
X6538120Y49780000D01*
X5850002Y49780000D01*
X5850001Y49779999D01*
X5850001Y49085209D01*
X5852909Y49060126D01*
X5898213Y48957523D01*
X5977522Y48878214D01*
X6080127Y48832910D01*
X6105203Y48830001D01*
X6340932Y48830001D01*
X6399122Y48811094D01*
X6435086Y48761594D01*
X6435087Y48700409D01*
X6399123Y48650909D01*
X6385878Y48642792D01*
X6292189Y48595055D01*
X6292180Y48595050D01*
X6120213Y48470109D01*
X5969891Y48319787D01*
X5844950Y48147820D01*
X5844948Y48147816D01*
X5748443Y47958413D01*
X5682752Y47756239D01*
X5649500Y47546291D01*
X5649500Y47333710D01*
X5676276Y47164649D01*
X5666704Y47104217D01*
X5648499Y47079159D01*
X4848085Y46278743D01*
X4787751Y46188444D01*
X4771423Y46164008D01*
X4718620Y46036530D01*
X4718620Y46036528D01*
X4691700Y45901196D01*
X4691700Y40406244D01*
X4684164Y40368359D01*
X4622463Y40219399D01*
X4622463Y40219397D01*
X4591700Y40064745D01*
X300500Y40064745D01*
X300500Y50797227D01*
X300656Y50802778D01*
X305173Y50883203D01*
X318294Y51116852D01*
X319537Y51127884D01*
X371766Y51435283D01*
X374227Y51446069D01*
X460552Y51745709D01*
X464212Y51756169D01*
X583536Y52044242D01*
X588350Y52054237D01*
X739172Y52327130D01*
X745068Y52336513D01*
X925508Y52590819D01*
X932407Y52599470D01*
X1140196Y52831986D01*
X1148014Y52839804D01*
X1380530Y53047593D01*
X1389181Y53054492D01*
X1643487Y53234932D01*
X1652870Y53240828D01*
X1925769Y53391653D01*
X1935758Y53396464D01*
X2223831Y53515788D01*
X2234291Y53519448D01*
X2533931Y53605773D01*
X2544717Y53608234D01*
X2852123Y53660464D01*
X2863142Y53661706D01*
X3177222Y53679345D01*
X3182773Y53679500D01*
X3227594Y53679500D01*
X82372405Y53679500D01*
X82417227Y53679500D01*
X82422777Y53679345D01*
G37*
G04 #@! TD.AperFunction*
M02*
