M48
; DRILL file KiCad 10.0.6 date 2026-09-30T09:38:30
; FORMAT={-:-/ absolute / metric / decimal}
; #@! TF.CreationDate,2026-09-30T09:38:30-04:00
; #@! TF.GenerationSoftware,Kicad,Pcbnew,10.0.6
; #@! TF.FileFunction,Plated,1,2,PTH
FMAT,2
METRIC
; #@! TA.AperFunction,Plated,PTH,ViaDrill
T1C0.300
; #@! TA.AperFunction,Plated,PTH,ComponentDrill
T2C0.600
; #@! TA.AperFunction,Plated,PTH,ComponentDrill
T3C0.850
; #@! TA.AperFunction,Plated,PTH,ComponentDrill
T4C1.000
%
G90
G05
T1
X1.0Y42.98
X1.0Y22.98
X1.0Y12.98
X1.0Y2.98
X3.5Y47.98
X3.5Y27.98
X3.5Y17.98
X3.5Y7.98
X5.392Y39.986
X6.0Y52.98
X6.0Y22.98
X6.0Y12.98
X6.0Y2.98
X7.438Y27.605
X8.5Y27.98
X8.5Y17.98
X8.5Y7.98
X10.567Y35.875
X11.0Y52.98
X11.0Y22.98
X11.0Y12.98
X11.0Y2.98
X13.5Y47.98
X13.5Y27.98
X13.5Y17.98
X13.5Y7.98
X15.534Y5.473
X16.0Y52.98
X16.0Y22.98
X16.0Y12.98
X18.5Y47.98
X18.5Y37.98
X18.5Y27.98
X21.0Y52.98
X21.0Y12.98
X22.09Y18.435
X23.5Y47.98
X23.5Y37.98
X23.5Y27.98
X23.5Y17.98
X24.929Y33.733
X26.0Y52.98
X26.0Y42.98
X26.0Y22.98
X26.0Y12.98
X26.0Y2.98
X26.057Y31.709
X28.008Y12.005
X28.5Y47.98
X28.5Y17.98
X31.0Y52.98
X31.0Y42.98
X33.358Y30.302
X33.5Y47.98
X33.5Y37.98
X33.636Y23.441
X34.176Y16.748
X34.528Y19.455
X35.4Y6.38
X36.0Y52.98
X36.0Y32.98
X36.0Y12.98
X36.0Y2.98
X36.395Y21.57
X37.453Y24.474
X38.5Y47.98
X38.5Y37.98
X39.362Y28.725
X39.697Y41.227
X40.386Y29.484
X41.0Y52.98
X41.11Y26.116
X41.328Y27.314
X41.721Y17.58
X42.58Y9.719
X43.193Y43.743
X43.262Y22.336
X43.5Y47.98
X43.5Y7.98
X44.152Y19.333
X44.433Y24.819
X44.508Y26.962
X44.753Y40.576
X45.338Y19.384
X45.795Y30.612
X46.0Y52.98
X46.0Y2.98
X46.183Y13.119
X46.616Y40.503
X46.951Y10.621
X47.098Y31.006
X47.775Y20.794
X47.981Y40.494
X48.775Y30.163
X49.648Y13.608
X51.0Y52.98
X51.0Y2.98
X52.183Y25.185
X53.5Y27.98
X53.981Y17.501
X54.244Y18.536
X54.349Y23.398
X54.636Y26.99
X55.633Y3.644
X56.0Y52.98
X56.0Y42.98
X56.0Y32.98
X56.238Y15.955
X58.365Y21.219
X60.553Y9.155
X60.646Y29.131
X61.0Y52.98
X61.0Y42.98
X61.0Y32.98
X62.719Y14.623
X63.01Y17.297
X63.5Y47.98
X63.5Y37.98
X66.0Y52.98
X66.0Y42.98
X66.0Y32.98
X66.0Y22.98
X66.397Y26.466
X68.5Y47.98
X68.5Y37.98
X68.5Y17.98
X68.505Y3.675
X71.0Y52.98
X71.0Y42.98
X71.546Y2.341
X72.388Y46.605
X73.5Y47.98
X73.5Y37.98
X73.5Y17.98
X73.5Y7.98
X76.0Y52.98
X76.0Y42.98
X76.0Y12.98
X76.0Y2.98
X78.5Y47.98
X78.5Y37.98
X78.5Y17.98
X78.5Y7.98
X81.0Y52.98
X81.0Y42.98
X81.0Y32.98
X81.0Y12.98
X81.0Y2.98
X83.5Y47.98
X83.5Y37.98
X83.5Y17.98
X83.5Y7.98
T3
X39.0Y3.18
X43.5Y3.18
T4
X7.0Y49.98
X7.0Y47.44
X7.0Y44.9
X7.0Y42.36
X51.4Y50.78
X53.94Y50.78
X56.48Y50.78
X59.02Y50.78
X61.56Y50.78
X82.4Y27.48
X82.4Y24.94
X82.4Y22.4
T2
X22.68Y7.66G85X22.68Y6.56
G05
X22.68Y3.23G85X22.68Y2.63
G05
X31.32Y7.66G85X31.32Y6.56
G05
X31.32Y3.23G85X31.32Y2.63
G05
M30
