G04 #@! TF.GenerationSoftware,KiCad,Pcbnew,10.0.6*
G04 #@! TF.CreationDate,2026-09-30T13:17:49-04:00*
G04 #@! TF.ProjectId,wallet_dmm,77616c6c-6574-45f6-946d-6d2e6b696361,3*
G04 #@! TF.SameCoordinates,Original*
G04 #@! TF.FileFunction,Copper,L1,Top*
G04 #@! TF.FilePolarity,Positive*
%FSLAX46Y46*%
G04 Gerber Fmt 4.6, Leading zero omitted, Abs format (unit mm)*
G04 Created by KiCad (PCBNEW 10.0.6) date 2026-09-30 13:17:49*
%MOMM*%
%LPD*%
G01*
G04 APERTURE LIST*
G04 Aperture macros list*
%AMRoundRect*
0 Rectangle with rounded corners*
0 $1 Rounding radius*
0 $2 $3 $4 $5 $6 $7 $8 $9 X,Y pos of 4 corners*
0 Add a 4 corners polygon primitive as box body*
4,1,4,$2,$3,$4,$5,$6,$7,$8,$9,$2,$3,0*
0 Add four circle primitives for the rounded corners*
1,1,$1+$1,$2,$3*
1,1,$1+$1,$4,$5*
1,1,$1+$1,$6,$7*
1,1,$1+$1,$8,$9*
0 Add four rect primitives between the rounded corners*
20,1,$1+$1,$2,$3,$4,$5,0*
20,1,$1+$1,$4,$5,$6,$7,0*
20,1,$1+$1,$6,$7,$8,$9,0*
20,1,$1+$1,$8,$9,$2,$3,0*%
G04 Aperture macros list end*
G04 #@! TA.AperFunction,SMDPad,CuDef*
%ADD10RoundRect,0.225000X0.250000X-0.225000X0.250000X0.225000X-0.250000X0.225000X-0.250000X-0.225000X0*%
G04 #@! TD*
G04 #@! TA.AperFunction,SMDPad,CuDef*
%ADD11RoundRect,0.200000X-0.200000X-0.275000X0.200000X-0.275000X0.200000X0.275000X-0.200000X0.275000X0*%
G04 #@! TD*
G04 #@! TA.AperFunction,SMDPad,CuDef*
%ADD12RoundRect,0.125000X0.125000X-0.625000X0.125000X0.625000X-0.125000X0.625000X-0.125000X-0.625000X0*%
G04 #@! TD*
G04 #@! TA.AperFunction,SMDPad,CuDef*
%ADD13RoundRect,0.125000X0.625000X-0.125000X0.625000X0.125000X-0.625000X0.125000X-0.625000X-0.125000X0*%
G04 #@! TD*
G04 #@! TA.AperFunction,SMDPad,CuDef*
%ADD14RoundRect,0.200000X0.275000X-0.200000X0.275000X0.200000X-0.275000X0.200000X-0.275000X-0.200000X0*%
G04 #@! TD*
G04 #@! TA.AperFunction,SMDPad,CuDef*
%ADD15R,1.000000X0.750000*%
G04 #@! TD*
G04 #@! TA.AperFunction,ComponentPad*
%ADD16R,1.700000X1.700000*%
G04 #@! TD*
G04 #@! TA.AperFunction,ComponentPad*
%ADD17C,1.700000*%
G04 #@! TD*
G04 #@! TA.AperFunction,SMDPad,CuDef*
%ADD18RoundRect,0.225000X-0.225000X-0.250000X0.225000X-0.250000X0.225000X0.250000X-0.225000X0.250000X0*%
G04 #@! TD*
G04 #@! TA.AperFunction,SMDPad,CuDef*
%ADD19RoundRect,0.218750X0.256250X-0.218750X0.256250X0.218750X-0.256250X0.218750X-0.256250X-0.218750X0*%
G04 #@! TD*
G04 #@! TA.AperFunction,SMDPad,CuDef*
%ADD20RoundRect,0.150000X0.150000X-0.587500X0.150000X0.587500X-0.150000X0.587500X-0.150000X-0.587500X0*%
G04 #@! TD*
G04 #@! TA.AperFunction,SMDPad,CuDef*
%ADD21C,1.500000*%
G04 #@! TD*
G04 #@! TA.AperFunction,SMDPad,CuDef*
%ADD22R,4.000000X1.200000*%
G04 #@! TD*
G04 #@! TA.AperFunction,ComponentPad*
%ADD23RoundRect,0.250000X-0.750000X-0.750000X0.750000X-0.750000X0.750000X0.750000X-0.750000X0.750000X0*%
G04 #@! TD*
G04 #@! TA.AperFunction,ComponentPad*
%ADD24C,2.000000*%
G04 #@! TD*
G04 #@! TA.AperFunction,SMDPad,CuDef*
%ADD25RoundRect,0.150000X-0.587500X-0.150000X0.587500X-0.150000X0.587500X0.150000X-0.587500X0.150000X0*%
G04 #@! TD*
G04 #@! TA.AperFunction,SMDPad,CuDef*
%ADD26RoundRect,0.150000X0.512500X0.150000X-0.512500X0.150000X-0.512500X-0.150000X0.512500X-0.150000X0*%
G04 #@! TD*
G04 #@! TA.AperFunction,SMDPad,CuDef*
%ADD27RoundRect,0.250000X-0.312500X-0.625000X0.312500X-0.625000X0.312500X0.625000X-0.312500X0.625000X0*%
G04 #@! TD*
G04 #@! TA.AperFunction,SMDPad,CuDef*
%ADD28RoundRect,0.150000X-0.150000X-0.575000X0.150000X-0.575000X0.150000X0.575000X-0.150000X0.575000X0*%
G04 #@! TD*
G04 #@! TA.AperFunction,SMDPad,CuDef*
%ADD29RoundRect,0.075000X-0.075000X-0.650000X0.075000X-0.650000X0.075000X0.650000X-0.075000X0.650000X0*%
G04 #@! TD*
G04 #@! TA.AperFunction,ComponentPad*
%ADD30O,1.000000X2.100000*%
G04 #@! TD*
G04 #@! TA.AperFunction,ComponentPad*
%ADD31O,1.000000X1.600000*%
G04 #@! TD*
G04 #@! TA.AperFunction,SMDPad,CuDef*
%ADD32RoundRect,0.150000X0.150000X-0.512500X0.150000X0.512500X-0.150000X0.512500X-0.150000X-0.512500X0*%
G04 #@! TD*
G04 #@! TA.AperFunction,SMDPad,CuDef*
%ADD33R,0.850000X0.500000*%
G04 #@! TD*
G04 #@! TA.AperFunction,SMDPad,CuDef*
%ADD34RoundRect,0.150000X-0.150000X-0.500000X0.150000X-0.500000X0.150000X0.500000X-0.150000X0.500000X0*%
G04 #@! TD*
G04 #@! TA.AperFunction,SMDPad,CuDef*
%ADD35RoundRect,0.175000X-0.350000X-0.175000X0.350000X-0.175000X0.350000X0.175000X-0.350000X0.175000X0*%
G04 #@! TD*
G04 #@! TA.AperFunction,ViaPad*
%ADD36C,0.600000*%
G04 #@! TD*
G04 #@! TA.AperFunction,Conductor*
%ADD37C,0.400000*%
G04 #@! TD*
G04 #@! TA.AperFunction,Conductor*
%ADD38C,0.300000*%
G04 #@! TD*
G04 #@! TA.AperFunction,Conductor*
%ADD39C,0.250000*%
G04 #@! TD*
G04 APERTURE END LIST*
D10*
X40600000Y16805000D03*
X40600000Y18355000D03*
D11*
X59375000Y11380000D03*
X61025000Y11380000D03*
D10*
X38600000Y7405000D03*
X38600000Y8955000D03*
D12*
X41200000Y20805000D03*
X42000000Y20805000D03*
X42800000Y20805000D03*
X43600000Y20805000D03*
X44400000Y20805000D03*
X45200000Y20805000D03*
X46000000Y20805000D03*
X46800000Y20805000D03*
D13*
X48175000Y22180000D03*
X48175000Y22980000D03*
X48175000Y23780000D03*
X48175000Y24580000D03*
X48175000Y25380000D03*
X48175000Y26180000D03*
X48175000Y26980000D03*
X48175000Y27780000D03*
D12*
X46800000Y29155000D03*
X46000000Y29155000D03*
X45200000Y29155000D03*
X44400000Y29155000D03*
X43600000Y29155000D03*
X42800000Y29155000D03*
X42000000Y29155000D03*
X41200000Y29155000D03*
D13*
X39825000Y27780000D03*
X39825000Y26980000D03*
X39825000Y26180000D03*
X39825000Y25380000D03*
X39825000Y24580000D03*
X39825000Y23780000D03*
X39825000Y22980000D03*
X39825000Y22180000D03*
D14*
X45000000Y41555000D03*
X45000000Y43205000D03*
D15*
X69000000Y50355000D03*
X75000000Y50355000D03*
X69000000Y46605000D03*
X75000000Y46605000D03*
X16500000Y31355000D03*
X22500000Y31355000D03*
X16500000Y27605000D03*
X22500000Y27605000D03*
D16*
X82400000Y27480000D03*
D17*
X82400000Y24940000D03*
X82400000Y22400000D03*
D18*
X63825000Y26780000D03*
X65375000Y26780000D03*
D10*
X42600000Y16805000D03*
X42600000Y18355000D03*
D11*
X31575000Y18180000D03*
X33225000Y18180000D03*
X59375000Y18780000D03*
X61025000Y18780000D03*
D18*
X43025000Y11780000D03*
X44575000Y11780000D03*
D10*
X58000000Y7605000D03*
X58000000Y9155000D03*
D19*
X16600000Y3992500D03*
X16600000Y5567500D03*
D20*
X2650000Y35442500D03*
X4550000Y35442500D03*
X3600000Y37317500D03*
D21*
X66000000Y2780000D03*
D14*
X48200000Y41555000D03*
X48200000Y43205000D03*
D16*
X51400000Y50780000D03*
D17*
X53940000Y50780000D03*
X56480000Y50780000D03*
X59020000Y50780000D03*
X61560000Y50780000D03*
D14*
X58400000Y28355000D03*
X58400000Y30005000D03*
D22*
X9000000Y4880000D03*
X9000000Y16080000D03*
D14*
X56400000Y7555000D03*
X56400000Y9205000D03*
D23*
X39000000Y3180000D03*
D24*
X43500000Y3180000D03*
D15*
X27500000Y31355000D03*
X33500000Y31355000D03*
X27500000Y27605000D03*
X33500000Y27605000D03*
D14*
X52000000Y14355000D03*
X52000000Y16005000D03*
D16*
X7000000Y49980000D03*
D17*
X7000000Y47440000D03*
X7000000Y44900000D03*
X7000000Y42360000D03*
D20*
X7650000Y35442500D03*
X9550000Y35442500D03*
X8600000Y37317500D03*
D10*
X56800000Y28405000D03*
X56800000Y29955000D03*
D11*
X32175000Y13380000D03*
X33825000Y13380000D03*
D25*
X27662500Y23930000D03*
X27662500Y22030000D03*
X29537500Y22980000D03*
D21*
X40400000Y33580000D03*
D10*
X22000000Y10405000D03*
X22000000Y11955000D03*
X44600000Y16805000D03*
X44600000Y18355000D03*
D21*
X37600000Y33580000D03*
D11*
X31575000Y16580000D03*
X33225000Y16580000D03*
D26*
X48137500Y8230000D03*
X48137500Y10130000D03*
X45862500Y9180000D03*
D18*
X5425000Y38780000D03*
X6975000Y38780000D03*
D14*
X12000000Y35555000D03*
X12000000Y37205000D03*
D10*
X50600000Y8005000D03*
X50600000Y9555000D03*
D21*
X69400000Y2780000D03*
D27*
X67537500Y32980000D03*
X70462500Y32980000D03*
D25*
X64262500Y8330000D03*
X64262500Y6430000D03*
X66137500Y7380000D03*
D21*
X72800000Y2780000D03*
D14*
X18200000Y3955000D03*
X18200000Y5605000D03*
D28*
X23750000Y8025000D03*
X24550000Y8025000D03*
D29*
X25750000Y8025000D03*
X26750000Y8025000D03*
X27250000Y8025000D03*
X28250000Y8025000D03*
D28*
X29450000Y8025000D03*
X30250000Y8025000D03*
X30250000Y8025000D03*
X29450000Y8025000D03*
D29*
X28750000Y8025000D03*
X27750000Y8025000D03*
X26250000Y8025000D03*
X25250000Y8025000D03*
D28*
X24550000Y8025000D03*
X23750000Y8025000D03*
D30*
X22680000Y7110000D03*
D31*
X22680000Y2930000D03*
D30*
X31320000Y7110000D03*
D31*
X31320000Y2930000D03*
D11*
X18175000Y19380000D03*
X19825000Y19380000D03*
D14*
X30600000Y10355000D03*
X30600000Y12005000D03*
X50400000Y14355000D03*
X50400000Y16005000D03*
D10*
X46200000Y16805000D03*
X46200000Y18355000D03*
D18*
X47225000Y32180000D03*
X48775000Y32180000D03*
D11*
X69375000Y24380000D03*
X71025000Y24380000D03*
X34575000Y22980000D03*
X36225000Y22980000D03*
D32*
X34450000Y8242500D03*
X35400000Y8242500D03*
X36350000Y8242500D03*
X36350000Y10517500D03*
X34450000Y10517500D03*
D14*
X22400000Y22155000D03*
X22400000Y23805000D03*
D27*
X68737500Y20780001D03*
X71662500Y20780001D03*
D14*
X24200000Y22155000D03*
X24200000Y23805000D03*
X23600000Y10355000D03*
X23600000Y12005000D03*
X54800000Y7555000D03*
X54800000Y9205000D03*
D25*
X64262500Y17330000D03*
X64262500Y15430000D03*
X66137500Y16380000D03*
D11*
X18175000Y17780000D03*
X19825000Y17780000D03*
D33*
X48675000Y49330000D03*
X48675000Y48230000D03*
X46925000Y48230000D03*
X46925000Y49330000D03*
D14*
X53600000Y14355000D03*
X53600000Y16005000D03*
D27*
X74337500Y32980000D03*
X77262500Y32980000D03*
D15*
X5500000Y31355000D03*
X11500000Y31355000D03*
X5500000Y27605000D03*
X11500000Y27605000D03*
D11*
X69375000Y11380000D03*
X71025000Y11380000D03*
X59375000Y23580000D03*
X61025000Y23580000D03*
D14*
X46600000Y41555000D03*
X46600000Y43205000D03*
D34*
X54750000Y3930000D03*
X57750000Y3930000D03*
X59250000Y3930000D03*
D35*
X53325000Y3080000D03*
X53325000Y880000D03*
X60675000Y3080000D03*
X60675000Y880000D03*
D10*
X55200000Y14405000D03*
X55200000Y15955000D03*
D11*
X2375000Y32780000D03*
X4025000Y32780000D03*
D36*
X41898000Y12305500D03*
X45090300Y19518200D03*
X47557200Y29337500D03*
X27945400Y22859601D03*
X61000000Y32980000D03*
X68500000Y37980000D03*
X23500000Y27980000D03*
X58500000Y37980000D03*
X66000000Y32980000D03*
X1000000Y42980000D03*
X73500000Y7980000D03*
X46000000Y52980000D03*
X81000000Y42980000D03*
X61000000Y52980000D03*
X71000000Y42980000D03*
X35400000Y6380000D03*
X76000000Y42980000D03*
X58500000Y47980000D03*
X18500000Y27980000D03*
X60553400Y9155000D03*
X53500000Y27980000D03*
X68500000Y47980000D03*
X21000000Y22980000D03*
X73500000Y37980000D03*
X1000000Y22980000D03*
X3500000Y7980000D03*
X21000000Y52980000D03*
X36000000Y2980000D03*
X72800000Y4032300D03*
X6000000Y2980000D03*
X11000000Y12980000D03*
X81000000Y32980000D03*
X81000000Y2980000D03*
X43500000Y7980000D03*
X66000000Y42980000D03*
X7438100Y27605000D03*
X73500000Y27980000D03*
X8500000Y17980000D03*
X78500000Y17980000D03*
X47651600Y17088650D03*
X8500000Y7980000D03*
X36000000Y12980000D03*
X18500000Y7980000D03*
X51000000Y2980000D03*
X3500000Y47980000D03*
X63500000Y37980000D03*
X11000000Y22980000D03*
X31000000Y52980000D03*
X61000000Y42980000D03*
X66402100Y27118000D03*
X66000000Y52980000D03*
X28007700Y12005000D03*
X16000000Y12980000D03*
X28500000Y27980000D03*
X68500000Y17980000D03*
X49462400Y10393200D03*
X3500000Y17980000D03*
X53500000Y37980000D03*
X78500000Y47980000D03*
X8500000Y27980000D03*
X83500000Y17980000D03*
X63003500Y17606900D03*
X73500000Y47980000D03*
X46000000Y12980000D03*
X68500000Y27980000D03*
X63500000Y47980000D03*
X3500000Y27980000D03*
X41000000Y52980000D03*
X1000000Y2980000D03*
X83500000Y7980000D03*
X81000000Y52980000D03*
X6000000Y22980000D03*
X56000000Y32980000D03*
X81000000Y12980000D03*
X83500000Y37980000D03*
X53500000Y47980000D03*
X1000000Y12980000D03*
X11000000Y2980000D03*
X51000000Y42980000D03*
X36000000Y52980000D03*
X11000000Y52980000D03*
X26000000Y52980000D03*
X26000000Y2980000D03*
X13500000Y7980000D03*
X13500000Y47980000D03*
X56000000Y2980000D03*
X16000000Y22980000D03*
X46000000Y2980000D03*
X72388200Y46605000D03*
X23500000Y47980000D03*
X56000000Y42980000D03*
X8701600Y38780000D03*
X78500000Y37980000D03*
X71000000Y52980000D03*
X13500000Y17980000D03*
X13500000Y27980000D03*
X28500000Y17980000D03*
X6000000Y52980000D03*
X83500000Y47980000D03*
X76000000Y52980000D03*
X48775000Y30555000D03*
X76000000Y2980000D03*
X18500000Y47980000D03*
X76000000Y12980000D03*
X78500000Y7980000D03*
X16000000Y52980000D03*
X44052800Y19337500D03*
X54999800Y17894800D03*
X59186400Y13264600D03*
X55968600Y4177800D03*
X33789800Y30240100D03*
X37234800Y21014601D03*
X35511200Y20817100D03*
X13676100Y35278200D03*
X43600000Y18237200D03*
X45949900Y23933900D03*
X52020000Y18963800D03*
X51695200Y12932400D03*
X51052900Y17795200D03*
X55015400Y23033900D03*
X56829300Y26694600D03*
X50065800Y23241401D03*
X46909400Y24742900D03*
X41533300Y23148901D03*
X32871199Y19312000D03*
X52775700Y25183100D03*
X53690400Y9323600D03*
X46789000Y27625200D03*
X42067600Y30521400D03*
X36883800Y35545000D03*
X39304800Y28898200D03*
X41085800Y27269300D03*
X45759900Y38396600D03*
X22650300Y18718000D03*
X31988200Y25714500D03*
X31130599Y25464600D03*
X19131600Y24138600D03*
X38024800Y24787601D03*
X35329400Y24264501D03*
X69196200Y12845400D03*
X5392200Y39985900D03*
X60552300Y29947700D03*
X55909200Y16803500D03*
X20765700Y19472100D03*
X10255500Y7029000D03*
X46954000Y46765300D03*
X45520800Y45332100D03*
D37*
X50789100Y12215900D02*
X46200000Y16805000D01*
X69826400Y13967000D02*
X58238500Y13967000D01*
X27662500Y23142500D02*
X27662500Y23930000D01*
X44400000Y20073900D02*
X44955700Y19518200D01*
X25975000Y23930000D02*
X24200000Y22155001D01*
X44400000Y20805000D02*
X44400000Y20073900D01*
X56487400Y12215900D02*
X50789100Y12215900D01*
X27662500Y23930000D02*
X25975000Y23930000D01*
X43934200Y21990000D02*
X41595400Y21990000D01*
X58238500Y13967000D02*
X56487400Y12215900D01*
X70757300Y13036100D02*
X69826400Y13967000D01*
X41898000Y12305500D02*
X42499500Y12305500D01*
X41595400Y21990000D02*
X41200000Y21594600D01*
X44675000Y10130000D02*
X48137500Y10130000D01*
X47225000Y29337500D02*
X47225000Y32180000D01*
X72338500Y11867500D02*
X71169900Y13036100D01*
X47225000Y29337500D02*
X46982500Y29337500D01*
X69400000Y6677600D02*
X72338500Y9616100D01*
X44600000Y16805000D02*
X46200000Y16805000D01*
X41475200Y15929800D02*
X41898000Y15929800D01*
X71169900Y13036100D02*
X70757300Y13036100D01*
X41898000Y15929800D02*
X43724800Y15929800D01*
X27945400Y22859601D02*
X27662500Y23142500D01*
X69400000Y2780000D02*
X69400000Y6677600D01*
X41898000Y15929800D02*
X41898000Y12305500D01*
X43025000Y11780000D02*
X44675000Y10130000D01*
X46982500Y29337500D02*
X46800000Y29155000D01*
X42499500Y12305500D02*
X43025000Y11780000D01*
X41200000Y21594600D02*
X41200000Y20805000D01*
X44955700Y19518200D02*
X45090300Y19518200D01*
X43724800Y15929800D02*
X44600000Y16805000D01*
X44400000Y20805000D02*
X44400000Y21524200D01*
X44400000Y21524200D02*
X43934200Y21990000D01*
X40600000Y16805000D02*
X41475200Y15929800D01*
X47557200Y29337500D02*
X47225000Y29337500D01*
X72338500Y9616100D02*
X72338500Y11867500D01*
X30250000Y8025000D02*
X30730799Y8505800D01*
X37025000Y22180000D02*
X39825000Y22180000D01*
D38*
X35945800Y9305800D02*
X35987100Y9305800D01*
D37*
X63985600Y17606900D02*
X64262500Y17330000D01*
X58000000Y9155000D02*
X56450000Y9155000D01*
X31320000Y7110000D02*
X31320000Y8561700D01*
X23213300Y8561700D02*
X23750000Y8025000D01*
X30926500Y8505800D02*
X30980899Y8560200D01*
X27500000Y27605000D02*
X29537500Y27605000D01*
X35318000Y22073000D02*
X36225000Y22980000D01*
X35400000Y8242000D02*
X35400000Y8242500D01*
X22680000Y8561700D02*
X23213300Y8561700D01*
X16500000Y27605000D02*
X22400000Y27605000D01*
X43500000Y3180000D02*
X48137500Y7817500D01*
X32682700Y22980000D02*
X33589700Y22073000D01*
X48775000Y29955000D02*
X56800000Y29955000D01*
X11500000Y27605000D02*
X16500000Y27605000D01*
X39600400Y17355400D02*
X40600000Y18355000D01*
X29537500Y27605000D02*
X33500000Y27605000D01*
X10276600Y37205000D02*
X8701600Y38780000D01*
X48775000Y30555000D02*
X48775000Y29955000D01*
X33225000Y18180000D02*
X33589700Y18544700D01*
X65713000Y27118000D02*
X65375000Y26780000D01*
X33589700Y22073000D02*
X35318000Y22073000D01*
X29537500Y22980000D02*
X32682700Y22980000D01*
X31318400Y8560200D02*
X31319899Y8561700D01*
X49761800Y10393200D02*
X50600000Y9555000D01*
X56450000Y9155000D02*
X56400000Y9205000D01*
X46200000Y18355000D02*
X44600000Y18355000D01*
X61351600Y15955000D02*
X55200000Y15955000D01*
X28007700Y12005000D02*
X23600000Y12005000D01*
X63003500Y17606900D02*
X63985600Y17606900D01*
X22000000Y11955000D02*
X23550000Y11955000D01*
X48775000Y32180000D02*
X48775000Y30555000D01*
X22680000Y7110000D02*
X22680000Y8561700D01*
D38*
X35679300Y9013200D02*
X35679300Y9039300D01*
D37*
X31319899Y8561700D02*
X31320000Y8561700D01*
X75000000Y46605000D02*
X72388200Y46605000D01*
X48775000Y29955000D02*
X48775000Y28380000D01*
X11500000Y27605000D02*
X7438100Y27605000D01*
X72388200Y46605000D02*
X69000000Y46605000D01*
X34049600Y13604600D02*
X33824999Y13380000D01*
X7438100Y27605000D02*
X5500000Y27605000D01*
X48075600Y11780000D02*
X49462400Y10393200D01*
X10276600Y36169100D02*
X9550000Y35442500D01*
X44575000Y11780000D02*
X48075600Y11780000D01*
X34049600Y17355400D02*
X34049600Y13604600D01*
X29537500Y27605000D02*
X29537500Y22980000D01*
X60553400Y9155000D02*
X63437500Y9155000D01*
X44052800Y19337500D02*
X44600000Y18790300D01*
X33589700Y18544700D02*
X33589700Y22073000D01*
D38*
X35154300Y8488200D02*
X35679300Y9013200D01*
D37*
X30730799Y8505800D02*
X30926500Y8505800D01*
X40600000Y18355000D02*
X42600000Y18355000D01*
X63437500Y9155000D02*
X64262500Y8330000D01*
X22400000Y27605000D02*
X22400000Y23805000D01*
X22500000Y27605000D02*
X27500000Y27605000D01*
X22400000Y27605000D02*
X22500000Y27605000D01*
X35400000Y8242500D02*
X35154300Y8488200D01*
X30600000Y12005000D02*
X28007700Y12005000D01*
X30980899Y8560200D02*
X31318400Y8560200D01*
X36225000Y22980000D02*
X37025000Y22180000D01*
X33225000Y18180000D02*
X34049600Y17355400D01*
X12000000Y37205000D02*
X10276600Y37205000D01*
X63003500Y17606900D02*
X61351600Y15955000D01*
X53650000Y15955000D02*
X53600000Y16005000D01*
X44600000Y18790300D02*
X44600000Y18355000D01*
X8701600Y38780000D02*
X6975000Y38780000D01*
X49462400Y10393200D02*
X49761800Y10393200D01*
D38*
X35400000Y8242500D02*
X35400000Y6380000D01*
D37*
X10276600Y37205000D02*
X10276600Y36169100D01*
X36061300Y9380000D02*
X38175000Y9380000D01*
X58000000Y9155000D02*
X60553400Y9155000D01*
X66402100Y27118000D02*
X65713000Y27118000D01*
X38175000Y9380000D02*
X38600000Y8955000D01*
X23550000Y11955000D02*
X23600000Y12005000D01*
X48137500Y7817500D02*
X48137500Y8230000D01*
X34049600Y17355400D02*
X39600400Y17355400D01*
X55200000Y15955000D02*
X53650000Y15955000D01*
X72800000Y4032300D02*
X72800000Y2780000D01*
X48775000Y28380000D02*
X48175000Y27780000D01*
X35679300Y9039300D02*
X35945800Y9305800D01*
D38*
X35987100Y9305800D02*
X36061300Y9380000D01*
D39*
X48175000Y21922300D02*
X48175000Y22180000D01*
X54999800Y17894800D02*
X52202500Y17894800D01*
X52202500Y17894800D02*
X48175000Y21922300D01*
X59375000Y13076000D02*
X59186400Y13264600D01*
X59375000Y11380000D02*
X59375000Y13076000D01*
X62697800Y11380000D02*
X66036400Y8041400D01*
X66036400Y8041400D02*
X66137500Y7940300D01*
X66137500Y7940300D02*
X66137500Y7380000D01*
X69375000Y11380000D02*
X66036400Y8041400D01*
X61025000Y11380000D02*
X62697800Y11380000D01*
D37*
X70551700Y6753200D02*
X72940200Y9141700D01*
X57750000Y3930000D02*
X60250000Y6430000D01*
X39000000Y7005000D02*
X39000000Y3180000D01*
X67152100Y1627900D02*
X69884900Y1627900D01*
X72940200Y12116600D02*
X69626800Y15430000D01*
X70551700Y2294700D02*
X70551700Y6753200D01*
X37187500Y7405000D02*
X36350000Y8242500D01*
X69626800Y15430000D02*
X64262500Y15430000D01*
X60250000Y6430000D02*
X64262500Y6430000D01*
X57502200Y4177800D02*
X57750000Y3930000D01*
X66000000Y2780000D02*
X67152100Y1627900D01*
X64262500Y6430000D02*
X66000000Y4692500D01*
X69884900Y1627900D02*
X70551700Y2294700D01*
X38600000Y7405000D02*
X37187500Y7405000D01*
X66000000Y4692500D02*
X66000000Y2780000D01*
X38600000Y7405000D02*
X39000000Y7005000D01*
X55968600Y4177800D02*
X57502200Y4177800D01*
X72940200Y9141700D02*
X72940200Y12116600D01*
D39*
X27500000Y31355000D02*
X33500000Y31355000D01*
X37234800Y21014601D02*
X38562800Y19686600D01*
X33500000Y31355000D02*
X33500000Y30653300D01*
X33500000Y30653300D02*
X33789800Y30363500D01*
X33789800Y30363500D02*
X33789800Y30240100D01*
X41472300Y19686600D02*
X42000000Y20214300D01*
X42000000Y20214300D02*
X42000000Y20805000D01*
X38562800Y19686600D02*
X41472300Y19686600D01*
X42800000Y20194600D02*
X42800000Y20805000D01*
X13399300Y35555000D02*
X13676100Y35278200D01*
X12000000Y35555000D02*
X13399300Y35555000D01*
X8983500Y33839700D02*
X10284700Y33839700D01*
X37134600Y19193700D02*
X41799100Y19193700D01*
X41799100Y19193700D02*
X42800000Y20194600D01*
X35511200Y20817100D02*
X37134600Y19193700D01*
X10284700Y33839700D02*
X12000000Y35555000D01*
X7650000Y35442500D02*
X7650000Y35173200D01*
X7650000Y35173200D02*
X8983500Y33839700D01*
X43426100Y18411100D02*
X43600000Y18237200D01*
X43600000Y18237200D02*
X43600000Y17805000D01*
X68082800Y51973900D02*
X69000000Y51056700D01*
X60213900Y51973900D02*
X68082800Y51973900D01*
X59020000Y50780000D02*
X60213900Y51973900D01*
X43600000Y17805000D02*
X42600000Y16805000D01*
X43600000Y20805000D02*
X43426100Y20631101D01*
X69000000Y50355000D02*
X75000000Y50355000D01*
X43426100Y20631101D02*
X43426100Y18411100D01*
X69000000Y50355000D02*
X69000000Y51056700D01*
X45949900Y23933900D02*
X45200000Y23184001D01*
X45200000Y23184001D02*
X45200000Y20805000D01*
X52203800Y18780000D02*
X52020000Y18963800D01*
X59375000Y18780000D02*
X52203800Y18780000D01*
X46000000Y20142500D02*
X46000000Y20805000D01*
X50137500Y16005000D02*
X46000000Y20142500D01*
X50400000Y16005000D02*
X50137500Y16005000D01*
X52000000Y14355000D02*
X51695200Y14050200D01*
X51695200Y14050200D02*
X51695200Y12932400D01*
X49809800Y17795200D02*
X46800000Y20805000D01*
X51052900Y17795200D02*
X49809800Y17795200D01*
X54576100Y22594600D02*
X49601700Y22594600D01*
X49601700Y22594600D02*
X49216300Y22980000D01*
X56829300Y28355000D02*
X58400000Y28355000D01*
X55015400Y23033900D02*
X54576100Y22594600D01*
X49216300Y22980000D02*
X48175000Y22980000D01*
X58400000Y28355000D02*
X65837500Y28355000D01*
X56829300Y28355000D02*
X56829300Y26694600D01*
X56800000Y28405000D02*
X56800000Y28384300D01*
X65837500Y28355000D02*
X70462500Y32980000D01*
X56800000Y28384300D02*
X56829300Y28355000D01*
X63825000Y26780000D02*
X63825000Y25972100D01*
X49945800Y24509501D02*
X62362400Y24509501D01*
X48175000Y23780001D02*
X49216300Y23780001D01*
X69432900Y25972100D02*
X71025000Y24380000D01*
X62362400Y24509501D02*
X63825000Y25972100D01*
X63825000Y25972100D02*
X69432900Y25972100D01*
X49216300Y23780001D02*
X49945800Y24509501D01*
X46909400Y24742900D02*
X48012100Y24742900D01*
X59294400Y23660600D02*
X50485000Y23660600D01*
X48012100Y24742900D02*
X48175000Y24580000D01*
X59375000Y23580000D02*
X59294400Y23660600D01*
X50485000Y23660600D02*
X50065800Y23241401D01*
X31912900Y18180000D02*
X31574999Y18180000D01*
X31912900Y18353700D02*
X32871199Y19312000D01*
X31912900Y18180000D02*
X31912900Y18353700D01*
X33225000Y16580000D02*
X31912900Y17892100D01*
X31912900Y17892100D02*
X31912900Y18180000D01*
X41533300Y23148901D02*
X43764400Y25380000D01*
X43764400Y25380000D02*
X48175000Y25380000D01*
X56450000Y7605000D02*
X56425000Y7580000D01*
X50978800Y26980000D02*
X48175000Y26980000D01*
X54800000Y9205000D02*
X53809000Y9205000D01*
X53809000Y9205000D02*
X53690400Y9323600D01*
X56425000Y7580000D02*
X56400000Y7555000D01*
X54800000Y9205000D02*
X56425000Y7580000D01*
X58000000Y7605000D02*
X56450000Y7605000D01*
X52775700Y25183100D02*
X50978800Y26980000D01*
X46000000Y37547100D02*
X46000000Y29155000D01*
X48200000Y41555000D02*
X48200000Y39747100D01*
X48200000Y39747100D02*
X46000000Y37547100D01*
X45200000Y30350900D02*
X45200000Y29155000D01*
X40400000Y33580000D02*
X41970900Y33580000D01*
X41970900Y33580000D02*
X45200000Y30350900D01*
X42379700Y32503300D02*
X44400000Y30483000D01*
X44400000Y30483000D02*
X44400000Y29155000D01*
X38676700Y32503300D02*
X42379700Y32503300D01*
X37600000Y33580000D02*
X38676700Y32503300D01*
X36282100Y32056700D02*
X36363500Y31975300D01*
X11500000Y31355000D02*
X5500000Y31355000D01*
X36363500Y31975300D02*
X42255900Y31975300D01*
X11500000Y31355000D02*
X11500000Y32056700D01*
X42255900Y31975300D02*
X43600000Y30631200D01*
X11500000Y32056700D02*
X36282100Y32056700D01*
X43600000Y30631200D02*
X43600000Y29155000D01*
X42800000Y30726300D02*
X42800000Y29155000D01*
X23548000Y29605300D02*
X40156200Y29605300D01*
X42353900Y31172400D02*
X42800000Y30726300D01*
X41723300Y31172400D02*
X42353900Y31172400D01*
X22500000Y31355000D02*
X16500000Y31355000D01*
X22500000Y31355000D02*
X22500000Y30653300D01*
X40156200Y29605300D02*
X41723300Y31172400D01*
X22500000Y30653300D02*
X23548000Y29605300D01*
X42000000Y29155000D02*
X42000000Y28524700D01*
X42899500Y27625200D02*
X46789000Y27625200D01*
X42000000Y28524700D02*
X42899500Y27625200D01*
X41200000Y29155000D02*
X41200000Y29764100D01*
X41200000Y29764100D02*
X41957300Y30521400D01*
X41957300Y30521400D02*
X42067600Y30521400D01*
X39825000Y28378000D02*
X39825000Y27780000D01*
X42893800Y41555000D02*
X36883800Y35545000D01*
X45000000Y41555000D02*
X42893800Y41555000D01*
X39304800Y28898200D02*
X39825000Y28378000D01*
X46600000Y41555000D02*
X46600000Y39236700D01*
X40796500Y26980000D02*
X39825000Y26980000D01*
X41085800Y27269300D02*
X40796500Y26980000D01*
X46600000Y39236700D02*
X45759900Y38396600D01*
X18175000Y19380000D02*
X18982100Y20187100D01*
X32453700Y26180000D02*
X39825000Y26180000D01*
X31988200Y25714500D02*
X32453700Y26180000D01*
X18982100Y20187100D02*
X21181200Y20187100D01*
X21181200Y20187100D02*
X22650300Y18718000D01*
X17433600Y22440600D02*
X19131600Y24138600D01*
X17433600Y18521400D02*
X17433600Y22440600D01*
X31560300Y25034900D02*
X31130599Y25464600D01*
X39825000Y25380000D02*
X39790700Y25414301D01*
X18175000Y17780000D02*
X17433600Y18521400D01*
X37765300Y25414301D02*
X37385900Y25034900D01*
X39790700Y25414301D02*
X37765300Y25414301D01*
X37385900Y25034900D02*
X31560300Y25034900D01*
X38024800Y24787601D02*
X39617400Y24787601D01*
X39617400Y24787601D02*
X39825000Y24580000D01*
X37502400Y24248600D02*
X35345200Y24248600D01*
X37971000Y23780001D02*
X37502400Y24248600D01*
X35345200Y24248700D02*
X35329400Y24264501D01*
X39825000Y23780001D02*
X37971000Y23780001D01*
X35345200Y24248600D02*
X35345200Y24248700D01*
X37789100Y22980000D02*
X39825000Y22980000D01*
X35803600Y23794501D02*
X36974600Y23794501D01*
X34989100Y22980000D02*
X35803600Y23794501D01*
X36974600Y23794501D02*
X37789100Y22980000D01*
X34575000Y22980000D02*
X34989100Y22980000D01*
X49426700Y48230000D02*
X49426700Y43204600D01*
X49426700Y43204600D02*
X48682600Y42460500D01*
X48682600Y42460500D02*
X45744500Y42460500D01*
X48675000Y48230000D02*
X49426700Y48230000D01*
X45744500Y42460500D02*
X45000000Y43205000D01*
D38*
X82287500Y24940001D02*
X74337500Y32890000D01*
X74337500Y32890000D02*
X74337500Y32980000D01*
X82400000Y24940001D02*
X82287500Y24940001D01*
X69196200Y12845300D02*
X69196200Y12845400D01*
X82400000Y22400000D02*
X73282500Y22400000D01*
X69375000Y24283100D02*
X69375000Y24380000D01*
X72270300Y21387801D02*
X69375000Y24283100D01*
X71025000Y11380000D02*
X71025000Y11487300D01*
X73282500Y22400000D02*
X72270300Y21387801D01*
X72270300Y21387801D02*
X71662500Y20780001D01*
X71025000Y11487300D02*
X69667000Y12845300D01*
X69667000Y12845300D02*
X69196200Y12845300D01*
D39*
X61025000Y23580000D02*
X61025000Y18780000D01*
X68737500Y20780001D02*
X66137500Y18180000D01*
X65937500Y23580000D02*
X68737500Y20780001D01*
X61025000Y23580000D02*
X65937500Y23580000D01*
X66137500Y18180000D02*
X66137500Y16380000D01*
X20508900Y3221900D02*
X22182000Y4895000D01*
X31102499Y4895000D02*
X34450000Y8242500D01*
X22182000Y4895000D02*
X31102499Y4895000D01*
X16600000Y3992500D02*
X17370600Y3221900D01*
X17370600Y3221900D02*
X20508900Y3221900D01*
X18162500Y5567500D02*
X18200000Y5605000D01*
X16600000Y5567500D02*
X18162500Y5567500D01*
X12448800Y36380000D02*
X11523200Y36380000D01*
X5142700Y40647900D02*
X9896300Y40647900D01*
X12813900Y36745100D02*
X12448800Y36380000D01*
X9176200Y34373200D02*
X8600000Y34949400D01*
X11523200Y36380000D02*
X11195600Y36052400D01*
X2650000Y34155000D02*
X2650000Y35442500D01*
X9965300Y34373200D02*
X9176200Y34373200D01*
X2650000Y35442500D02*
X2650000Y38155200D01*
X4025000Y32780000D02*
X2650000Y34155000D01*
X12813900Y37730300D02*
X12813900Y36745100D01*
X9896300Y40647900D02*
X12813900Y37730300D01*
X11195600Y35603500D02*
X9965300Y34373200D01*
X8600000Y34949400D02*
X8600000Y37317500D01*
X11195600Y36052400D02*
X11195600Y35603500D01*
X2650000Y38155200D02*
X5142700Y40647900D01*
D37*
X48675000Y49330000D02*
X47848300Y49330000D01*
X4565600Y14623100D02*
X4565600Y31869800D01*
X6011700Y33980800D02*
X4550000Y35442500D01*
X13171900Y33276100D02*
X6051500Y33276100D01*
X3285200Y31869800D02*
X2375000Y32780000D01*
X4565600Y31869800D02*
X3285200Y31869800D01*
X17468800Y1719900D02*
X4565600Y14623100D01*
X54800000Y7555000D02*
X54750000Y7505000D01*
X49425000Y9180000D02*
X45862500Y9180000D01*
X45862500Y9180000D02*
X45862500Y7555400D01*
X50600000Y8005000D02*
X54350000Y8005000D01*
X40027000Y1719900D02*
X17468800Y1719900D01*
X54350000Y8005000D02*
X54800000Y7555000D01*
X47848300Y49655900D02*
X47522500Y49981700D01*
X6051500Y33276100D02*
X6011700Y33315900D01*
X54750000Y7505000D02*
X54750000Y3930000D01*
X45862500Y7555400D02*
X40027000Y1719900D01*
X29877500Y49981700D02*
X13171900Y33276100D01*
X6011700Y33315900D02*
X4565600Y31869800D01*
X50600000Y8005000D02*
X49425000Y9180000D01*
X47848300Y49330000D02*
X47848300Y49655900D01*
X6011700Y33315900D02*
X6011700Y33980800D01*
X47522500Y49981700D02*
X29877500Y49981700D01*
X5392200Y38780000D02*
X5392200Y39985900D01*
X5425000Y38780000D02*
X5392200Y38780000D01*
X3929700Y37317500D02*
X5392200Y38780000D01*
X3600000Y37317500D02*
X3929700Y37317500D01*
D39*
X46925000Y49330000D02*
X46173300Y49330000D01*
X46173300Y45231700D02*
X48200000Y43205000D01*
X46173300Y49330000D02*
X46173300Y45231700D01*
X58457300Y29947700D02*
X60552300Y29947700D01*
X55150000Y14355000D02*
X53600000Y14355000D01*
X52000000Y15955000D02*
X50400000Y14355000D01*
X52000000Y15955000D02*
X53600000Y14355000D01*
X58400000Y30005000D02*
X58457300Y29947700D01*
X52798500Y16803500D02*
X55909200Y16803500D01*
X55200000Y14405000D02*
X55150000Y14355000D01*
X52000000Y16005000D02*
X52000000Y15955000D01*
X52000000Y16005000D02*
X52798500Y16803500D01*
X11326700Y4880000D02*
X11326700Y5957800D01*
X11326700Y5957800D02*
X10255500Y7029000D01*
X20765700Y19472100D02*
X19917100Y19472100D01*
X9000000Y4880000D02*
X11326700Y4880000D01*
X19917100Y19472100D02*
X19825000Y19380000D01*
X9000000Y16080000D02*
X18125000Y16080000D01*
X18125000Y16080000D02*
X19825000Y17780000D01*
X34450000Y11105000D02*
X34450000Y10517500D01*
X32175000Y13380000D02*
X34450000Y11105000D01*
X22400000Y22155001D02*
X23156200Y21398800D01*
X23156200Y21398800D02*
X27031300Y21398800D01*
X24200000Y23805000D02*
X24050000Y23805000D01*
X27031300Y21398800D02*
X27662500Y22030001D01*
X24050000Y23805000D02*
X22400000Y22155001D01*
D37*
X29449999Y8762000D02*
X29449999Y8025000D01*
X22803800Y9601300D02*
X23153400Y9251700D01*
X22000100Y10405000D02*
X22000000Y10405000D01*
X20299900Y7097400D02*
X22803800Y9601300D01*
X31500800Y9891100D02*
X31144800Y9535100D01*
X21114400Y11290600D02*
X22000000Y10405000D01*
X30766200Y13313800D02*
X31500800Y12579200D01*
X34988600Y9452700D02*
X31939200Y9452700D01*
X21928500Y13313800D02*
X21114400Y12499700D01*
X36053400Y10517500D02*
X34988600Y9452700D01*
X36350000Y10517500D02*
X36053400Y10517500D01*
X23153400Y9251700D02*
X24035600Y9251700D01*
X31574999Y16580000D02*
X30766200Y15771200D01*
X30766200Y13313800D02*
X21928500Y13313800D01*
X18200000Y3955000D02*
X20299900Y6054900D01*
X21114400Y12499700D02*
X21114400Y11290600D01*
X24550000Y8737300D02*
X24550000Y8025000D01*
X31144800Y9535100D02*
X30223099Y9535100D01*
X30766200Y15771200D02*
X30766200Y13313800D01*
X31500800Y12579200D02*
X31500800Y9891100D01*
X24035600Y9251700D02*
X24550000Y8737300D01*
X30223099Y9535100D02*
X29449999Y8762000D01*
X22803800Y9601300D02*
X22000100Y10405000D01*
X20299900Y6054900D02*
X20299900Y7097400D01*
X31939200Y9452700D02*
X31500800Y9891100D01*
D38*
X77262500Y32980000D02*
X75717900Y34524600D01*
X75717900Y34524600D02*
X69082100Y34524600D01*
X69082100Y34524600D02*
X67537500Y32980000D01*
D39*
X25750000Y8025000D02*
X25750000Y8893400D01*
X25750000Y8893400D02*
X24288400Y10355000D01*
X24288400Y10355000D02*
X23600000Y10355000D01*
X28750000Y8839900D02*
X28750000Y8025000D01*
X30265099Y10355000D02*
X28750000Y8839900D01*
X30600000Y10355000D02*
X30265099Y10355000D01*
X47676700Y47488000D02*
X46954000Y46765300D01*
X45520800Y44284200D02*
X46600000Y43205000D01*
X45520800Y45332100D02*
X45520800Y44284200D01*
X47676700Y48230000D02*
X47676700Y47488000D01*
X46925000Y48230000D02*
X47676700Y48230000D01*
G04 #@! TA.AperFunction,Conductor*
G36*
X35511791Y8877527D02*
G01*
X35545783Y8826653D01*
X35549500Y8799781D01*
X35549500Y7664312D01*
X35552401Y7627435D01*
X35552401Y7627432D01*
X35552402Y7627431D01*
X35598256Y7469602D01*
X35681919Y7328135D01*
X35798135Y7211919D01*
X35939602Y7128256D01*
X36097431Y7082402D01*
X36134306Y7079500D01*
X36481335Y7079500D01*
X36539526Y7060593D01*
X36551338Y7050504D01*
X36651685Y6950158D01*
X36740957Y6860886D01*
X36855689Y6784225D01*
X36855690Y6784225D01*
X36855691Y6784224D01*
X36874875Y6776278D01*
X36983172Y6731420D01*
X37118506Y6704500D01*
X37118507Y6704500D01*
X37758480Y6704500D01*
X37816671Y6685593D01*
X37828483Y6675504D01*
X37875731Y6628257D01*
X37896956Y6607032D01*
X38001646Y6542458D01*
X38041299Y6517999D01*
X38041300Y6517999D01*
X38041303Y6517997D01*
X38202292Y6464651D01*
X38210556Y6463807D01*
X38266524Y6439089D01*
X38297275Y6386193D01*
X38299500Y6365320D01*
X38299500Y4779500D01*
X38280593Y4721309D01*
X38231093Y4685345D01*
X38202493Y4680811D01*
X38202499Y4680756D01*
X38202493Y4680756D01*
X38202500Y4680627D01*
X38200783Y4680540D01*
X38200533Y4680500D01*
X38199999Y4680500D01*
X38199983Y4680499D01*
X38097211Y4670001D01*
X38097199Y4669998D01*
X37930663Y4614813D01*
X37781347Y4522715D01*
X37657285Y4398653D01*
X37565187Y4249337D01*
X37510000Y4082795D01*
X37499500Y3980017D01*
X37499500Y3980010D01*
X37499500Y3980009D01*
X37499500Y3227594D01*
X37499501Y2519400D01*
X37480594Y2461209D01*
X37431094Y2425245D01*
X37400501Y2420400D01*
X20690860Y2420400D01*
X20632669Y2439307D01*
X20596705Y2488807D01*
X20596705Y2549993D01*
X20632669Y2599493D01*
X20671546Y2616498D01*
X20691352Y2620437D01*
X20728649Y2635886D01*
X20805186Y2667588D01*
X20870164Y2711006D01*
X20907633Y2736042D01*
X20994758Y2823167D01*
X21002908Y2831317D01*
X21002910Y2831321D01*
X22412096Y4240504D01*
X22466612Y4268281D01*
X22482099Y4269500D01*
X31164105Y4269500D01*
X31164106Y4269500D01*
X31261065Y4288786D01*
X31284951Y4293537D01*
X31332102Y4313068D01*
X31398784Y4340688D01*
X31452444Y4376543D01*
X31501232Y4409142D01*
X31588357Y4496267D01*
X31588358Y4496270D01*
X34143895Y7051807D01*
X34198410Y7079582D01*
X34221656Y7080496D01*
X34234306Y7079500D01*
X34234318Y7079500D01*
X34665689Y7079500D01*
X34665694Y7079500D01*
X34702569Y7082402D01*
X34860398Y7128256D01*
X35001865Y7211919D01*
X35118081Y7328135D01*
X35201744Y7469602D01*
X35247598Y7627431D01*
X35250500Y7664306D01*
X35250500Y8736818D01*
X35269407Y8795009D01*
X35311615Y8828283D01*
X35320411Y8831925D01*
X35395499Y8882098D01*
X35454387Y8898705D01*
X35511791Y8877527D01*
G37*
G04 #@! TD.AperFunction*
G04 #@! TA.AperFunction,Conductor*
G36*
X15458691Y31412293D02*
G01*
X15494655Y31362793D01*
X15499500Y31332200D01*
X15499500Y30932134D01*
X15499501Y30932130D01*
X15505908Y30872520D01*
X15505909Y30872515D01*
X15556202Y30737671D01*
X15629181Y30640184D01*
X15642454Y30622454D01*
X15642457Y30622452D01*
X15642458Y30622451D01*
X15757670Y30536203D01*
X15892511Y30485911D01*
X15892512Y30485911D01*
X15892517Y30485909D01*
X15952127Y30479500D01*
X17047872Y30479501D01*
X17107483Y30485909D01*
X17174907Y30511057D01*
X17242329Y30536203D01*
X17242329Y30536204D01*
X17242331Y30536204D01*
X17357546Y30622454D01*
X17407983Y30689830D01*
X17457991Y30725082D01*
X17487236Y30729500D01*
X21512764Y30729500D01*
X21570955Y30710593D01*
X21592017Y30689829D01*
X21629180Y30640185D01*
X21642454Y30622454D01*
X21642457Y30622452D01*
X21642458Y30622451D01*
X21757670Y30536203D01*
X21851882Y30501065D01*
X21899797Y30463015D01*
X21908750Y30446192D01*
X21945686Y30357017D01*
X21979915Y30305791D01*
X22014143Y30254565D01*
X22101269Y30167440D01*
X22101270Y30167440D01*
X23062139Y29206571D01*
X23062142Y29206567D01*
X23149267Y29119442D01*
X23207322Y29080651D01*
X23251715Y29050988D01*
X23301178Y29030500D01*
X23301179Y29030499D01*
X23332205Y29017648D01*
X23365548Y29003837D01*
X23425971Y28991819D01*
X23486393Y28979800D01*
X23486394Y28979800D01*
X38405300Y28979800D01*
X38463491Y28960893D01*
X38499455Y28911393D01*
X38504300Y28880800D01*
X38504300Y28819356D01*
X38524808Y28716255D01*
X38532349Y28678345D01*
X38535063Y28664704D01*
X38535063Y28664702D01*
X38595403Y28519026D01*
X38595409Y28519015D01*
X38683014Y28387907D01*
X38683165Y28387723D01*
X38683204Y28387623D01*
X38685713Y28383868D01*
X38684888Y28383318D01*
X38705458Y28330744D01*
X38691843Y28274533D01*
X38621382Y28155390D01*
X38577290Y28003626D01*
X38574500Y27968158D01*
X38574500Y27591843D01*
X38577291Y27556374D01*
X38577292Y27556366D01*
X38620507Y27407620D01*
X38620507Y27352381D01*
X38577291Y27203628D01*
X38577291Y27203627D01*
X38574500Y27168163D01*
X38574500Y26999700D01*
X38574501Y26904500D01*
X38555594Y26846310D01*
X38506094Y26810346D01*
X38475501Y26805500D01*
X32392090Y26805500D01*
X32352120Y26797549D01*
X32271249Y26781464D01*
X32157413Y26734311D01*
X32157410Y26734310D01*
X32081691Y26683715D01*
X32081691Y26683714D01*
X32054966Y26665858D01*
X31924040Y26534933D01*
X31873352Y26507840D01*
X31754711Y26484240D01*
X31754701Y26484237D01*
X31609025Y26423897D01*
X31609014Y26423891D01*
X31477912Y26336290D01*
X31411407Y26269786D01*
X31356890Y26242010D01*
X31322090Y26242693D01*
X31209443Y26265100D01*
X31209441Y26265100D01*
X31051757Y26265100D01*
X31051754Y26265100D01*
X30897102Y26234337D01*
X30897100Y26234337D01*
X30751424Y26173997D01*
X30751413Y26173991D01*
X30620310Y26086389D01*
X30620306Y26086386D01*
X30508813Y25974893D01*
X30508810Y25974889D01*
X30421208Y25843786D01*
X30421202Y25843775D01*
X30360862Y25698099D01*
X30360862Y25698097D01*
X30330099Y25543445D01*
X30330099Y25385756D01*
X30360862Y25231104D01*
X30360862Y25231102D01*
X30421202Y25085426D01*
X30421208Y25085415D01*
X30472306Y25008943D01*
X30508810Y24954311D01*
X30620310Y24842811D01*
X30678941Y24803635D01*
X30751413Y24755210D01*
X30751424Y24755204D01*
X30805237Y24732915D01*
X30897102Y24694863D01*
X31015750Y24671263D01*
X31066440Y24644169D01*
X31161567Y24549042D01*
X31264015Y24480588D01*
X31327613Y24454245D01*
X31327614Y24454244D01*
X31351881Y24444193D01*
X31377848Y24433437D01*
X31498694Y24409400D01*
X34429900Y24409400D01*
X34488091Y24390493D01*
X34524055Y24340993D01*
X34528900Y24310400D01*
X34528900Y24185659D01*
X34551147Y24073813D01*
X34543956Y24013053D01*
X34502424Y23968123D01*
X34454050Y23955500D01*
X34318379Y23955500D01*
X34247805Y23949087D01*
X34085394Y23898479D01*
X34085392Y23898478D01*
X33939816Y23810473D01*
X33819527Y23690184D01*
X33731522Y23544608D01*
X33731521Y23544606D01*
X33680913Y23382195D01*
X33674500Y23311621D01*
X33674500Y22648380D01*
X33680913Y22577806D01*
X33731521Y22415395D01*
X33731522Y22415393D01*
X33786466Y22324506D01*
X33819528Y22269815D01*
X33939815Y22149528D01*
X34085394Y22061522D01*
X34247804Y22010914D01*
X34318384Y22004500D01*
X34318389Y22004500D01*
X34831611Y22004500D01*
X34831616Y22004500D01*
X34902196Y22010914D01*
X35064606Y22061522D01*
X35210185Y22149528D01*
X35330472Y22269815D01*
X35418478Y22415394D01*
X35460735Y22551008D01*
X35485258Y22591566D01*
X35488874Y22595182D01*
X35488878Y22595188D01*
X36033695Y23140005D01*
X36088212Y23167782D01*
X36103699Y23169001D01*
X36674501Y23169001D01*
X36732692Y23150094D01*
X36744505Y23140005D01*
X37303239Y22581271D01*
X37303239Y22581270D01*
X37390358Y22494150D01*
X37390362Y22494147D01*
X37390367Y22494142D01*
X37435375Y22464069D01*
X37435376Y22464067D01*
X37492811Y22425690D01*
X37492814Y22425688D01*
X37546074Y22403628D01*
X37573275Y22392361D01*
X37573282Y22392359D01*
X37573307Y22392348D01*
X37606648Y22378537D01*
X37623840Y22375118D01*
X37623842Y22375117D01*
X37623843Y22375117D01*
X37636755Y22372549D01*
X37727493Y22354499D01*
X37727499Y22354499D01*
X37855587Y22354499D01*
X37855607Y22354500D01*
X38790437Y22354500D01*
X38840832Y22340713D01*
X38949610Y22276382D01*
X39101373Y22232291D01*
X39136837Y22229500D01*
X40513162Y22229501D01*
X40548627Y22232291D01*
X40598959Y22246914D01*
X40660114Y22244992D01*
X40708460Y22207492D01*
X40725531Y22148736D01*
X40704806Y22091168D01*
X40696584Y22081842D01*
X40655885Y22041143D01*
X40610054Y21972550D01*
X40579223Y21926409D01*
X40526419Y21798928D01*
X40526417Y21798922D01*
X40509404Y21713396D01*
X40497528Y21682330D01*
X40496382Y21680393D01*
X40496382Y21680392D01*
X40452290Y21528626D01*
X40451597Y21519815D01*
X40449500Y21493163D01*
X40449500Y20910095D01*
X40449501Y20411100D01*
X40430594Y20352909D01*
X40381094Y20316945D01*
X40350501Y20312100D01*
X38862898Y20312100D01*
X38804707Y20331007D01*
X38792894Y20341096D01*
X38055230Y21078760D01*
X38028137Y21129449D01*
X38004537Y21248098D01*
X37944194Y21393780D01*
X37944193Y21393782D01*
X37944190Y21393787D01*
X37903276Y21455018D01*
X37856589Y21524890D01*
X37745089Y21636390D01*
X37682350Y21678311D01*
X37613985Y21723992D01*
X37613974Y21723998D01*
X37468297Y21784338D01*
X37313644Y21815101D01*
X37313642Y21815101D01*
X37155958Y21815101D01*
X37155955Y21815101D01*
X37001303Y21784338D01*
X37001301Y21784338D01*
X36855625Y21723998D01*
X36855614Y21723992D01*
X36724511Y21636390D01*
X36724507Y21636387D01*
X36613014Y21524894D01*
X36613011Y21524890D01*
X36525409Y21393787D01*
X36525403Y21393776D01*
X36465063Y21248100D01*
X36442457Y21134453D01*
X36412560Y21081070D01*
X36356994Y21055454D01*
X36296985Y21067391D01*
X36255452Y21112321D01*
X36253895Y21115883D01*
X36220596Y21196275D01*
X36220590Y21196286D01*
X36177406Y21260914D01*
X36132989Y21327389D01*
X36021489Y21438889D01*
X35940270Y21493158D01*
X35890385Y21526491D01*
X35890374Y21526497D01*
X35744697Y21586837D01*
X35590044Y21617600D01*
X35590042Y21617600D01*
X35432358Y21617600D01*
X35432355Y21617600D01*
X35277703Y21586837D01*
X35277701Y21586837D01*
X35132025Y21526497D01*
X35132014Y21526491D01*
X35000911Y21438889D01*
X35000907Y21438886D01*
X34889414Y21327393D01*
X34889411Y21327389D01*
X34801809Y21196286D01*
X34801803Y21196275D01*
X34741463Y21050599D01*
X34741463Y21050597D01*
X34710700Y20895945D01*
X34710700Y20738256D01*
X34715141Y20715932D01*
X34741019Y20585833D01*
X34741463Y20583604D01*
X34741463Y20583602D01*
X34801803Y20437926D01*
X34801809Y20437915D01*
X34844245Y20374407D01*
X34889411Y20306811D01*
X35000911Y20195311D01*
X35079076Y20143083D01*
X35132014Y20107710D01*
X35132025Y20107704D01*
X35185838Y20085415D01*
X35277703Y20047363D01*
X35396351Y20023763D01*
X35447041Y19996669D01*
X36648739Y18794971D01*
X36648739Y18794970D01*
X36735858Y18707850D01*
X36735862Y18707847D01*
X36735867Y18707842D01*
X36838314Y18639389D01*
X36952148Y18592237D01*
X36998552Y18583007D01*
X37072993Y18568200D01*
X37072994Y18568200D01*
X41860706Y18568200D01*
X41860707Y18568200D01*
X41935148Y18583007D01*
X41981552Y18592237D01*
X42025575Y18610472D01*
X42095386Y18639388D01*
X42146609Y18673616D01*
X42197833Y18707842D01*
X42284958Y18794967D01*
X42284958Y18794969D01*
X42293108Y18803118D01*
X42293110Y18803121D01*
X42631597Y19141607D01*
X42686113Y19169384D01*
X42746545Y19159813D01*
X42789810Y19116548D01*
X42800600Y19071603D01*
X42800600Y18349495D01*
X42801000Y18345431D01*
X42799796Y18320898D01*
X42799976Y18320880D01*
X42799617Y18317235D01*
X42799578Y18316439D01*
X42799500Y18316047D01*
X42799500Y18158356D01*
X42830263Y18003702D01*
X42831676Y17999044D01*
X42830059Y17998554D01*
X42834303Y17944514D01*
X42808046Y17897639D01*
X42694905Y17784497D01*
X42640388Y17756719D01*
X42624901Y17755500D01*
X42301647Y17755500D01*
X42202300Y17745351D01*
X42202288Y17745348D01*
X42041299Y17692002D01*
X41896958Y17602969D01*
X41896957Y17602969D01*
X41777031Y17483043D01*
X41777031Y17483042D01*
X41684969Y17333789D01*
X41682891Y17335071D01*
X41647986Y17297649D01*
X41587924Y17285981D01*
X41532474Y17311846D01*
X41516066Y17334428D01*
X41515031Y17333789D01*
X41467731Y17410472D01*
X41422968Y17483044D01*
X41303044Y17602968D01*
X41270718Y17622907D01*
X41158700Y17692002D01*
X40997705Y17745350D01*
X40898352Y17755500D01*
X40301647Y17755500D01*
X40202300Y17745351D01*
X40202288Y17745348D01*
X40041299Y17692002D01*
X39896958Y17602969D01*
X39896957Y17602969D01*
X39777031Y17483043D01*
X39777031Y17483042D01*
X39687998Y17338701D01*
X39634650Y17177706D01*
X39624500Y17078353D01*
X39624500Y16531648D01*
X39634649Y16432301D01*
X39634652Y16432289D01*
X39687998Y16271300D01*
X39714955Y16227597D01*
X39777032Y16126956D01*
X39896956Y16007032D01*
X39948032Y15975528D01*
X40041299Y15917999D01*
X40041300Y15917999D01*
X40041303Y15917997D01*
X40202292Y15864651D01*
X40301655Y15854500D01*
X40518834Y15854501D01*
X40577024Y15835594D01*
X40588837Y15825505D01*
X41028657Y15385686D01*
X41143384Y15309028D01*
X41143386Y15309027D01*
X41143389Y15309025D01*
X41143391Y15309024D01*
X41145164Y15308077D01*
X41145803Y15307412D01*
X41147433Y15306323D01*
X41147194Y15305966D01*
X41187573Y15263973D01*
X41197500Y15220764D01*
X41197500Y12725844D01*
X41189964Y12687959D01*
X41128263Y12538999D01*
X41128263Y12538997D01*
X41097500Y12384345D01*
X41097500Y12226656D01*
X41128263Y12072004D01*
X41128263Y12072002D01*
X41188603Y11926326D01*
X41188609Y11926315D01*
X41229006Y11865858D01*
X41276211Y11795211D01*
X41387711Y11683711D01*
X41433277Y11653265D01*
X41518814Y11596110D01*
X41518825Y11596104D01*
X41555877Y11580757D01*
X41664503Y11535763D01*
X41819158Y11505000D01*
X41819159Y11505000D01*
X41981706Y11505000D01*
X41981706Y11502695D01*
X42032695Y11491550D01*
X42073374Y11445846D01*
X42081190Y11416162D01*
X42084650Y11382300D01*
X42084652Y11382289D01*
X42137998Y11221300D01*
X42182514Y11149130D01*
X42227032Y11076956D01*
X42346956Y10957032D01*
X42424322Y10909312D01*
X42491299Y10867999D01*
X42491300Y10867999D01*
X42491303Y10867997D01*
X42652292Y10814651D01*
X42751655Y10804500D01*
X42968834Y10804501D01*
X43027024Y10785594D01*
X43038838Y10775505D01*
X44130886Y9683458D01*
X44228458Y9585886D01*
X44343182Y9509229D01*
X44343186Y9509227D01*
X44343189Y9509225D01*
X44397041Y9486919D01*
X44470671Y9456420D01*
X44480317Y9454502D01*
X44480318Y9454501D01*
X44480319Y9454501D01*
X44606007Y9429500D01*
X44606008Y9429500D01*
X44610192Y9429088D01*
X44666252Y9404575D01*
X44697197Y9351792D01*
X44699500Y9330564D01*
X44699500Y8964312D01*
X44702401Y8927435D01*
X44702401Y8927432D01*
X44702402Y8927431D01*
X44748256Y8769602D01*
X44831919Y8628135D01*
X44948135Y8511919D01*
X45089602Y8428256D01*
X45090615Y8427962D01*
X45091202Y8427563D01*
X45095322Y8425780D01*
X45094982Y8424995D01*
X45141222Y8393573D01*
X45161951Y8336006D01*
X45162000Y8332891D01*
X45162000Y7886566D01*
X45143093Y7828375D01*
X45133004Y7816562D01*
X40669503Y3353061D01*
X40614986Y3325284D01*
X40554554Y3334855D01*
X40511289Y3378120D01*
X40500499Y3423065D01*
X40500499Y3980017D01*
X40490000Y4082789D01*
X40489999Y4082791D01*
X40489999Y4082797D01*
X40434814Y4249334D01*
X40342712Y4398656D01*
X40218656Y4522712D01*
X40218653Y4522714D01*
X40218652Y4522715D01*
X40069336Y4614813D01*
X40069335Y4614814D01*
X40069334Y4614814D01*
X39902797Y4669999D01*
X39902794Y4670000D01*
X39800017Y4680500D01*
X39800009Y4680500D01*
X39799500Y4680500D01*
X39799403Y4680532D01*
X39797501Y4680628D01*
X39797507Y4680757D01*
X39797501Y4680757D01*
X39797514Y4680885D01*
X39797527Y4681142D01*
X39741309Y4699407D01*
X39705345Y4748907D01*
X39700500Y4779500D01*
X39700500Y7073992D01*
X39700499Y7073996D01*
X39699404Y7079500D01*
X39673580Y7209328D01*
X39667186Y7224764D01*
X39637135Y7297314D01*
X39620775Y7336811D01*
X39620773Y7336814D01*
X39620771Y7336818D01*
X39592184Y7379601D01*
X39575499Y7434603D01*
X39575499Y7678353D01*
X39565350Y7777700D01*
X39565349Y7777702D01*
X39565349Y7777708D01*
X39512003Y7938697D01*
X39422968Y8083044D01*
X39303044Y8202968D01*
X39271935Y8222157D01*
X39158700Y8292002D01*
X38997705Y8345350D01*
X38898352Y8355500D01*
X38301647Y8355500D01*
X38202300Y8345351D01*
X38202288Y8345348D01*
X38041299Y8292002D01*
X37896958Y8202969D01*
X37896952Y8202965D01*
X37828483Y8134496D01*
X37773966Y8106719D01*
X37758480Y8105500D01*
X37518665Y8105500D01*
X37460474Y8124407D01*
X37448661Y8134496D01*
X37179496Y8403661D01*
X37151719Y8458178D01*
X37150500Y8473665D01*
X37150500Y8820689D01*
X37149902Y8828283D01*
X37147598Y8857569D01*
X37101744Y9015398D01*
X37018081Y9156865D01*
X36901865Y9273081D01*
X36865162Y9294787D01*
X36824700Y9340681D01*
X36818941Y9401595D01*
X36850086Y9454260D01*
X36865159Y9465212D01*
X36901865Y9486919D01*
X37018081Y9603135D01*
X37101744Y9744602D01*
X37147598Y9902431D01*
X37150500Y9939306D01*
X37150500Y11095694D01*
X37147598Y11132569D01*
X37101744Y11290398D01*
X37018081Y11431865D01*
X36901865Y11548081D01*
X36760398Y11631744D01*
X36602569Y11677598D01*
X36602568Y11677599D01*
X36602565Y11677599D01*
X36579140Y11679442D01*
X36565694Y11680500D01*
X36134306Y11680500D01*
X36121773Y11679514D01*
X36097434Y11677599D01*
X36097427Y11677597D01*
X35939602Y11631744D01*
X35798136Y11548082D01*
X35681918Y11431864D01*
X35598256Y11290398D01*
X35552403Y11132573D01*
X35552401Y11132566D01*
X35549500Y11095689D01*
X35549500Y11045265D01*
X35530593Y10987074D01*
X35520504Y10975261D01*
X35419504Y10874261D01*
X35364987Y10846484D01*
X35304555Y10856055D01*
X35261290Y10899320D01*
X35250500Y10944265D01*
X35250500Y11095689D01*
X35248200Y11124911D01*
X35247598Y11132569D01*
X35201744Y11290398D01*
X35118081Y11431865D01*
X35001865Y11548081D01*
X34860398Y11631744D01*
X34810733Y11646174D01*
X34768352Y11671238D01*
X33104496Y13335094D01*
X33076719Y13389611D01*
X33075500Y13405098D01*
X33075500Y13711612D01*
X33075500Y13711616D01*
X33069086Y13782196D01*
X33018478Y13944606D01*
X32930472Y14090185D01*
X32810185Y14210472D01*
X32716819Y14266914D01*
X32664607Y14298478D01*
X32664605Y14298479D01*
X32502194Y14349087D01*
X32431620Y14355500D01*
X32431616Y14355500D01*
X31918384Y14355500D01*
X31918379Y14355500D01*
X31847805Y14349087D01*
X31685394Y14298479D01*
X31685388Y14298476D01*
X31616916Y14257082D01*
X31557336Y14243158D01*
X31500951Y14266914D01*
X31469298Y14319275D01*
X31466700Y14341804D01*
X31466700Y15440036D01*
X31485607Y15498227D01*
X31495696Y15510040D01*
X31561160Y15575504D01*
X31615677Y15603281D01*
X31631164Y15604500D01*
X31831611Y15604500D01*
X31831616Y15604500D01*
X31902196Y15610914D01*
X32064606Y15661522D01*
X32210185Y15749528D01*
X32329998Y15869342D01*
X32384513Y15897117D01*
X32444945Y15887546D01*
X32470000Y15869343D01*
X32589815Y15749528D01*
X32735394Y15661522D01*
X32897804Y15610914D01*
X32968384Y15604500D01*
X32968389Y15604500D01*
X33481611Y15604500D01*
X33481616Y15604500D01*
X33552196Y15610914D01*
X33714606Y15661522D01*
X33860185Y15749528D01*
X33980472Y15869815D01*
X34068478Y16015394D01*
X34119086Y16177804D01*
X34125500Y16248384D01*
X34125500Y16911616D01*
X34119086Y16982196D01*
X34068478Y17144606D01*
X33980472Y17290185D01*
X33860185Y17410472D01*
X33794795Y17450002D01*
X33714607Y17498478D01*
X33714605Y17498479D01*
X33552194Y17549087D01*
X33481620Y17555500D01*
X33481616Y17555500D01*
X33175099Y17555500D01*
X33116908Y17574407D01*
X33105096Y17584496D01*
X32636694Y18052897D01*
X32608916Y18107414D01*
X32618487Y18167846D01*
X32636690Y18192901D01*
X32935358Y18491570D01*
X32986045Y18518663D01*
X33104696Y18542263D01*
X33250378Y18602606D01*
X33381488Y18690211D01*
X33492988Y18801711D01*
X33580593Y18932821D01*
X33640936Y19078503D01*
X33671699Y19233158D01*
X33671699Y19390842D01*
X33640936Y19545497D01*
X33614022Y19610473D01*
X33580595Y19691175D01*
X33580589Y19691186D01*
X33531735Y19764300D01*
X33492988Y19822289D01*
X33381488Y19933789D01*
X33287382Y19996669D01*
X33250384Y20021391D01*
X33250373Y20021397D01*
X33104696Y20081737D01*
X32950043Y20112500D01*
X32950041Y20112500D01*
X32792357Y20112500D01*
X32792354Y20112500D01*
X32637702Y20081737D01*
X32637700Y20081737D01*
X32492024Y20021397D01*
X32492013Y20021391D01*
X32360910Y19933789D01*
X32360906Y19933786D01*
X32249413Y19822293D01*
X32249410Y19822289D01*
X32161808Y19691186D01*
X32161802Y19691175D01*
X32101462Y19545499D01*
X32077860Y19426847D01*
X32050766Y19376159D01*
X31859106Y19184497D01*
X31804590Y19156719D01*
X31789102Y19155500D01*
X31318379Y19155500D01*
X31247805Y19149087D01*
X31085394Y19098479D01*
X31085392Y19098478D01*
X30939816Y19010473D01*
X30819527Y18890184D01*
X30731522Y18744608D01*
X30731521Y18744606D01*
X30680913Y18582195D01*
X30674500Y18511621D01*
X30674500Y17848380D01*
X30680913Y17777806D01*
X30731521Y17615395D01*
X30731522Y17615393D01*
X30757007Y17573237D01*
X30819528Y17469815D01*
X30819530Y17469813D01*
X30839340Y17450002D01*
X30867116Y17395485D01*
X30857544Y17335053D01*
X30839340Y17309998D01*
X30819530Y17290188D01*
X30819528Y17290185D01*
X30731522Y17144608D01*
X30731521Y17144606D01*
X30680913Y16982195D01*
X30674500Y16911621D01*
X30674500Y16711165D01*
X30655593Y16652974D01*
X30645504Y16641162D01*
X30222085Y16217743D01*
X30176157Y16149005D01*
X30152163Y16113094D01*
X30146423Y16104504D01*
X30146420Y16104500D01*
X30145422Y16103008D01*
X30092620Y15975530D01*
X30092620Y15975528D01*
X30065700Y15840196D01*
X30065700Y14113300D01*
X30046793Y14055109D01*
X29997293Y14019145D01*
X29966700Y14014300D01*
X21859504Y14014300D01*
X21751091Y13992736D01*
X21751091Y13992735D01*
X21737631Y13990058D01*
X21724170Y13987380D01*
X21596689Y13934576D01*
X21481960Y13857917D01*
X20570283Y12946240D01*
X20493623Y12831509D01*
X20440820Y12704030D01*
X20440820Y12704028D01*
X20418167Y12590142D01*
X20413900Y12568692D01*
X20413900Y11221604D01*
X20440820Y11086273D01*
X20440820Y11086271D01*
X20493623Y10958792D01*
X20570285Y10844058D01*
X20995504Y10418838D01*
X21023281Y10364322D01*
X21024500Y10348835D01*
X21024500Y10131648D01*
X21034649Y10032301D01*
X21034652Y10032289D01*
X21087998Y9871300D01*
X21111072Y9833893D01*
X21177032Y9726956D01*
X21296956Y9607032D01*
X21441303Y9517997D01*
X21505669Y9496669D01*
X21554957Y9460420D01*
X21573526Y9402120D01*
X21554281Y9344040D01*
X21544532Y9332691D01*
X19755783Y7543940D01*
X19679123Y7429209D01*
X19626320Y7301730D01*
X19626320Y7301728D01*
X19602359Y7181267D01*
X19599400Y7166392D01*
X19599400Y6386065D01*
X19580493Y6327874D01*
X19570403Y6316061D01*
X19289032Y6034691D01*
X19234516Y6006914D01*
X19174084Y6016485D01*
X19130819Y6059750D01*
X19124511Y6075244D01*
X19124014Y6076839D01*
X19118478Y6094606D01*
X19030472Y6240185D01*
X18910185Y6360472D01*
X18867849Y6386065D01*
X18764607Y6448478D01*
X18764605Y6448479D01*
X18602194Y6499087D01*
X18531620Y6505500D01*
X18531616Y6505500D01*
X17868384Y6505500D01*
X17868379Y6505500D01*
X17797805Y6499087D01*
X17635394Y6448479D01*
X17635392Y6448478D01*
X17489815Y6360472D01*
X17489812Y6360470D01*
X17464509Y6335167D01*
X17409992Y6307391D01*
X17349560Y6316963D01*
X17324506Y6335166D01*
X17305391Y6354281D01*
X17269615Y6376348D01*
X17162293Y6442546D01*
X17162285Y6442550D01*
X17002682Y6495437D01*
X16904182Y6505500D01*
X16904174Y6505500D01*
X16295826Y6505500D01*
X16295818Y6505500D01*
X16197317Y6495437D01*
X16037714Y6442550D01*
X16037706Y6442546D01*
X15894611Y6354282D01*
X15894610Y6354282D01*
X15775718Y6235390D01*
X15775718Y6235389D01*
X15687454Y6092294D01*
X15687450Y6092286D01*
X15634563Y5932683D01*
X15624500Y5834182D01*
X15624500Y5300819D01*
X15634563Y5202318D01*
X15687450Y5042715D01*
X15687454Y5042707D01*
X15727182Y4978300D01*
X15775719Y4899609D01*
X15825326Y4850002D01*
X15853102Y4795487D01*
X15843531Y4735055D01*
X15825327Y4710000D01*
X15796470Y4681142D01*
X15775718Y4660390D01*
X15775718Y4660389D01*
X15743498Y4608153D01*
X15696857Y4568552D01*
X15635846Y4563929D01*
X15589234Y4590122D01*
X10455242Y9724114D01*
X5295096Y14884261D01*
X5267319Y14938778D01*
X5266100Y14954265D01*
X5266100Y16727871D01*
X6499500Y16727871D01*
X6499500Y15432134D01*
X6499501Y15432130D01*
X6505908Y15372520D01*
X6505909Y15372515D01*
X6556202Y15237671D01*
X6599375Y15180000D01*
X6642454Y15122454D01*
X6642457Y15122452D01*
X6642458Y15122451D01*
X6757670Y15036203D01*
X6892511Y14985911D01*
X6892512Y14985911D01*
X6892517Y14985909D01*
X6952127Y14979500D01*
X11047872Y14979501D01*
X11107483Y14985909D01*
X11197819Y15019602D01*
X11242329Y15036203D01*
X11242329Y15036204D01*
X11242331Y15036204D01*
X11357546Y15122454D01*
X11443796Y15237669D01*
X11450716Y15256221D01*
X11461261Y15284496D01*
X11494091Y15372517D01*
X11494091Y15372523D01*
X11495452Y15378275D01*
X11527239Y15430555D01*
X11583685Y15454167D01*
X11591797Y15454500D01*
X18186606Y15454500D01*
X18186607Y15454500D01*
X18247029Y15466519D01*
X18307452Y15478537D01*
X18356837Y15498993D01*
X18421286Y15525688D01*
X18482919Y15566871D01*
X18523733Y15594142D01*
X18610858Y15681267D01*
X18610858Y15681269D01*
X18616495Y15686905D01*
X18616498Y15686910D01*
X19705094Y16775504D01*
X19759611Y16803281D01*
X19775098Y16804500D01*
X20081611Y16804500D01*
X20081616Y16804500D01*
X20152196Y16810914D01*
X20314606Y16861522D01*
X20460185Y16949528D01*
X20580472Y17069815D01*
X20668478Y17215394D01*
X20719086Y17377804D01*
X20725500Y17448384D01*
X20725500Y18111616D01*
X20719086Y18182196D01*
X20668478Y18344606D01*
X20665522Y18349495D01*
X20629023Y18409872D01*
X20580472Y18490185D01*
X20560658Y18509999D01*
X20532883Y18564513D01*
X20542454Y18624945D01*
X20560657Y18650001D01*
X20562195Y18651539D01*
X20616710Y18679314D01*
X20651511Y18678631D01*
X20659698Y18677003D01*
X20686858Y18671600D01*
X20686859Y18671600D01*
X20844541Y18671600D01*
X20844542Y18671600D01*
X20999197Y18702363D01*
X21144879Y18762706D01*
X21275989Y18850311D01*
X21384691Y18959014D01*
X21439205Y18986790D01*
X21499637Y18977219D01*
X21524697Y18959013D01*
X21829868Y18653842D01*
X21856962Y18603152D01*
X21863914Y18568200D01*
X21880563Y18484504D01*
X21880563Y18484502D01*
X21940903Y18338826D01*
X21940909Y18338815D01*
X21993612Y18259941D01*
X22028511Y18207711D01*
X22140011Y18096211D01*
X22204835Y18052897D01*
X22271114Y18008610D01*
X22271125Y18008604D01*
X22324938Y17986315D01*
X22416803Y17948263D01*
X22571458Y17917500D01*
X22571459Y17917500D01*
X22729141Y17917500D01*
X22729142Y17917500D01*
X22883797Y17948263D01*
X23029479Y18008606D01*
X23160589Y18096211D01*
X23272089Y18207711D01*
X23359694Y18338821D01*
X23420037Y18484503D01*
X23450800Y18639158D01*
X23450800Y18796842D01*
X23420037Y18951497D01*
X23388154Y19028471D01*
X23359696Y19097175D01*
X23359690Y19097186D01*
X23302887Y19182196D01*
X23272089Y19228289D01*
X23160589Y19339789D01*
X23106158Y19376159D01*
X23029485Y19427391D01*
X23029474Y19427397D01*
X22883797Y19487737D01*
X22765148Y19511338D01*
X22714458Y19538432D01*
X21667060Y20585830D01*
X21667060Y20585831D01*
X21579941Y20672951D01*
X21579936Y20672955D01*
X21579933Y20672958D01*
X21515618Y20715932D01*
X21485593Y20735995D01*
X21477485Y20741413D01*
X21477482Y20741414D01*
X21381660Y20781104D01*
X21381659Y20781105D01*
X21363659Y20788561D01*
X21363649Y20788564D01*
X21303229Y20800582D01*
X21303229Y20800583D01*
X21242811Y20812600D01*
X21242807Y20812600D01*
X21242806Y20812600D01*
X19043707Y20812600D01*
X18920493Y20812600D01*
X18920488Y20812600D01*
X18860070Y20800583D01*
X18860071Y20800582D01*
X18799650Y20788564D01*
X18799640Y20788561D01*
X18781639Y20781104D01*
X18685815Y20741413D01*
X18677709Y20735996D01*
X18677708Y20735995D01*
X18583367Y20672958D01*
X18583363Y20672955D01*
X18496242Y20585833D01*
X18496239Y20585830D01*
X18294907Y20384497D01*
X18240390Y20356719D01*
X18224903Y20355500D01*
X18158100Y20355500D01*
X18099909Y20374407D01*
X18063945Y20423907D01*
X18059100Y20454500D01*
X18059100Y22140502D01*
X18078007Y22198693D01*
X18088096Y22210506D01*
X18289211Y22411621D01*
X21424500Y22411621D01*
X21424500Y21898380D01*
X21430913Y21827806D01*
X21481521Y21665395D01*
X21481522Y21665393D01*
X21546564Y21557802D01*
X21569528Y21519815D01*
X21689815Y21399528D01*
X21835394Y21311522D01*
X21997804Y21260914D01*
X22068384Y21254500D01*
X22374901Y21254500D01*
X22433092Y21235593D01*
X22444905Y21225504D01*
X22670341Y21000068D01*
X22670342Y21000067D01*
X22757467Y20912942D01*
X22785666Y20894100D01*
X22859914Y20844489D01*
X22973748Y20797337D01*
X23094593Y20773300D01*
X23094594Y20773300D01*
X27092906Y20773300D01*
X27092907Y20773300D01*
X27213752Y20797337D01*
X27327586Y20844489D01*
X27401834Y20894100D01*
X27430033Y20912942D01*
X27517158Y21000067D01*
X27517158Y21000068D01*
X27717594Y21200504D01*
X27772111Y21228281D01*
X27787598Y21229500D01*
X28315689Y21229500D01*
X28315694Y21229500D01*
X28352569Y21232402D01*
X28510398Y21278256D01*
X28651865Y21361919D01*
X28768081Y21478135D01*
X28851744Y21619602D01*
X28897598Y21777431D01*
X28900500Y21814306D01*
X28900500Y22245694D01*
X28897598Y22282569D01*
X28851744Y22440398D01*
X28768081Y22581865D01*
X28753996Y22595950D01*
X28726221Y22650464D01*
X28726903Y22685261D01*
X28745900Y22780759D01*
X28745900Y22938443D01*
X28715137Y23093098D01*
X28672473Y23196099D01*
X28667672Y23257095D01*
X28693931Y23303986D01*
X28768081Y23378135D01*
X28851744Y23519602D01*
X28897598Y23677431D01*
X28900500Y23714306D01*
X28900500Y24145694D01*
X28897598Y24182569D01*
X28851744Y24340398D01*
X28768081Y24481865D01*
X28651865Y24598081D01*
X28510398Y24681744D01*
X28352569Y24727598D01*
X28352568Y24727599D01*
X28352565Y24727599D01*
X28329140Y24729442D01*
X28315694Y24730500D01*
X27009306Y24730500D01*
X26996773Y24729514D01*
X26972434Y24727599D01*
X26972427Y24727597D01*
X26814602Y24681744D01*
X26814598Y24681743D01*
X26751265Y24644287D01*
X26700870Y24630500D01*
X25906004Y24630500D01*
X25778570Y24605151D01*
X25778569Y24605152D01*
X25770680Y24603583D01*
X25770670Y24603580D01*
X25643191Y24550777D01*
X25528457Y24474115D01*
X25289032Y24234691D01*
X25234516Y24206914D01*
X25174084Y24216486D01*
X25130819Y24259750D01*
X25124511Y24275244D01*
X25118478Y24294606D01*
X25107306Y24313086D01*
X25071633Y24372097D01*
X25030472Y24440185D01*
X24910185Y24560472D01*
X24872777Y24583086D01*
X24764607Y24648478D01*
X24764605Y24648479D01*
X24602194Y24699087D01*
X24531620Y24705500D01*
X24531616Y24705500D01*
X23868384Y24705500D01*
X23868379Y24705500D01*
X23797805Y24699087D01*
X23635394Y24648479D01*
X23635392Y24648478D01*
X23489816Y24560473D01*
X23369527Y24440184D01*
X23281522Y24294608D01*
X23281521Y24294606D01*
X23230913Y24132195D01*
X23224500Y24061621D01*
X23224500Y23905099D01*
X23205593Y23846908D01*
X23195504Y23835095D01*
X22444905Y23084496D01*
X22390388Y23056719D01*
X22374901Y23055500D01*
X22068379Y23055500D01*
X21997805Y23049087D01*
X21835394Y22998479D01*
X21835392Y22998478D01*
X21689816Y22910473D01*
X21569527Y22790184D01*
X21481522Y22644608D01*
X21481521Y22644606D01*
X21430913Y22482195D01*
X21424500Y22411621D01*
X18289211Y22411621D01*
X18361453Y22483863D01*
X18774707Y22897117D01*
X19195760Y23318171D01*
X19246446Y23345263D01*
X19365097Y23368863D01*
X19510779Y23429206D01*
X19641889Y23516811D01*
X19753389Y23628311D01*
X19840994Y23759421D01*
X19901337Y23905103D01*
X19932100Y24059758D01*
X19932100Y24217442D01*
X19901337Y24372097D01*
X19867311Y24454244D01*
X19840996Y24517775D01*
X19840990Y24517786D01*
X19787337Y24598082D01*
X19753389Y24648889D01*
X19641889Y24760389D01*
X19577167Y24803635D01*
X19510785Y24847991D01*
X19510774Y24847997D01*
X19365097Y24908337D01*
X19210444Y24939100D01*
X19210442Y24939100D01*
X19052758Y24939100D01*
X19052755Y24939100D01*
X18898103Y24908337D01*
X18898101Y24908337D01*
X18752425Y24847997D01*
X18752414Y24847991D01*
X18621311Y24760389D01*
X18621307Y24760386D01*
X18509814Y24648893D01*
X18509811Y24648889D01*
X18422209Y24517786D01*
X18422203Y24517775D01*
X18361863Y24372099D01*
X18338262Y24253450D01*
X18311168Y24202761D01*
X17034869Y22926460D01*
X17034867Y22926458D01*
X17034866Y22926459D01*
X16947741Y22839333D01*
X16923580Y22803172D01*
X16923579Y22803171D01*
X16879286Y22736884D01*
X16858662Y22687090D01*
X16858662Y22687089D01*
X16832138Y22623057D01*
X16832137Y22623052D01*
X16829723Y22610914D01*
X16828447Y22604500D01*
X16812316Y22523401D01*
X16808100Y22502210D01*
X16808100Y22502206D01*
X16808100Y18583007D01*
X16808100Y18459793D01*
X16818030Y18409873D01*
X16831011Y18344607D01*
X16832137Y18338949D01*
X16832139Y18338942D01*
X16837571Y18325828D01*
X16839613Y18320898D01*
X16840288Y18319270D01*
X16840289Y18319267D01*
X16879286Y18225118D01*
X16879287Y18225115D01*
X16879288Y18225114D01*
X16903828Y18188388D01*
X16903829Y18188387D01*
X16917554Y18167846D01*
X16947742Y18122667D01*
X16947745Y18122664D01*
X16947749Y18122659D01*
X17034869Y18035540D01*
X17034870Y18035540D01*
X17245504Y17824906D01*
X17273281Y17770389D01*
X17274500Y17754902D01*
X17274500Y17448380D01*
X17280913Y17377806D01*
X17331521Y17215395D01*
X17331522Y17215393D01*
X17382090Y17131744D01*
X17419528Y17069815D01*
X17539815Y16949528D01*
X17623256Y16899086D01*
X17639573Y16889222D01*
X17679590Y16842937D01*
X17684758Y16781970D01*
X17653105Y16729609D01*
X17596719Y16705854D01*
X17588356Y16705500D01*
X11591796Y16705500D01*
X11533605Y16724407D01*
X11497641Y16773907D01*
X11495450Y16781733D01*
X11494091Y16787482D01*
X11494088Y16787489D01*
X11466476Y16861523D01*
X11443797Y16922330D01*
X11357549Y17037542D01*
X11357548Y17037543D01*
X11357546Y17037546D01*
X11333946Y17055213D01*
X11242329Y17123798D01*
X11107488Y17174090D01*
X11107483Y17174091D01*
X11107481Y17174092D01*
X11107477Y17174092D01*
X11073804Y17177712D01*
X11047873Y17180500D01*
X11047870Y17180500D01*
X6952133Y17180500D01*
X6952129Y17180500D01*
X6952128Y17180499D01*
X6944949Y17179728D01*
X6892519Y17174092D01*
X6892514Y17174091D01*
X6757670Y17123798D01*
X6642458Y17037550D01*
X6642450Y17037542D01*
X6556202Y16922330D01*
X6505910Y16787489D01*
X6505908Y16787478D01*
X6499500Y16727871D01*
X5266100Y16727871D01*
X5266100Y30380501D01*
X5285007Y30438692D01*
X5334507Y30474656D01*
X5365100Y30479501D01*
X6047867Y30479501D01*
X6047872Y30479501D01*
X6107483Y30485909D01*
X6174907Y30511057D01*
X6242329Y30536203D01*
X6242329Y30536204D01*
X6242331Y30536204D01*
X6357546Y30622454D01*
X6407983Y30689830D01*
X6457991Y30725082D01*
X6487236Y30729500D01*
X10512764Y30729500D01*
X10570955Y30710593D01*
X10592017Y30689829D01*
X10629180Y30640185D01*
X10642454Y30622454D01*
X10642457Y30622452D01*
X10642458Y30622451D01*
X10757670Y30536203D01*
X10892511Y30485911D01*
X10892512Y30485911D01*
X10892517Y30485909D01*
X10952127Y30479500D01*
X12047872Y30479501D01*
X12107483Y30485909D01*
X12174907Y30511057D01*
X12242329Y30536203D01*
X12242329Y30536204D01*
X12242331Y30536204D01*
X12357546Y30622454D01*
X12443796Y30737669D01*
X12452302Y30760473D01*
X12494089Y30872512D01*
X12494090Y30872515D01*
X12494091Y30872517D01*
X12500500Y30932127D01*
X12500499Y31332201D01*
X12519406Y31390391D01*
X12568906Y31426355D01*
X12599499Y31431200D01*
X15400500Y31431200D01*
X15458691Y31412293D01*
G37*
G04 #@! TD.AperFunction*
G04 #@! TA.AperFunction,Conductor*
G36*
X31525210Y8886835D02*
G01*
X31607389Y8831925D01*
X31607390Y8831925D01*
X31607391Y8831924D01*
X31634503Y8820694D01*
X31734871Y8779120D01*
X31761787Y8773767D01*
X31761790Y8773765D01*
X31761791Y8773766D01*
X31870207Y8752200D01*
X33550500Y8752200D01*
X33608691Y8733293D01*
X33644655Y8683793D01*
X33649500Y8653200D01*
X33649500Y8367599D01*
X33630593Y8309408D01*
X33620504Y8297595D01*
X30872405Y5549496D01*
X30817888Y5521719D01*
X30802401Y5520500D01*
X22120391Y5520500D01*
X21999548Y5496463D01*
X21999546Y5496463D01*
X21963334Y5481463D01*
X21885717Y5449314D01*
X21885716Y5449314D01*
X21783267Y5380859D01*
X20278806Y3876396D01*
X20224289Y3848619D01*
X20208802Y3847400D01*
X19322065Y3847400D01*
X19263874Y3866307D01*
X19227910Y3915807D01*
X19227910Y3976993D01*
X19252061Y4016404D01*
X19648114Y4412457D01*
X20844014Y5608357D01*
X20920675Y5723089D01*
X20973480Y5850572D01*
X21000400Y5985906D01*
X21000400Y6123894D01*
X21000400Y6766237D01*
X21019307Y6824428D01*
X21029390Y6836235D01*
X22776578Y8583424D01*
X22831093Y8611199D01*
X22884465Y8604882D01*
X22894222Y8600840D01*
X22949063Y8578123D01*
X22949068Y8578122D01*
X22949072Y8578120D01*
X23084406Y8551200D01*
X23084407Y8551200D01*
X23650500Y8551200D01*
X23708691Y8532293D01*
X23744655Y8482793D01*
X23749500Y8452200D01*
X23749500Y7384306D01*
X23750683Y7369268D01*
X23752401Y7347435D01*
X23752401Y7347432D01*
X23752402Y7347431D01*
X23792525Y7209327D01*
X23798256Y7189603D01*
X23798256Y7189601D01*
X23802464Y7182486D01*
X23815810Y7122774D01*
X23791510Y7066621D01*
X23766752Y7046356D01*
X23756636Y7040516D01*
X23649481Y6933361D01*
X23573720Y6802140D01*
X23551793Y6720307D01*
X23534500Y6655766D01*
X23534500Y6504234D01*
X23556525Y6422036D01*
X23573720Y6357861D01*
X23649481Y6226640D01*
X23649483Y6226638D01*
X23649485Y6226635D01*
X23756635Y6119485D01*
X23756637Y6119484D01*
X23756639Y6119482D01*
X23887861Y6043721D01*
X23887859Y6043721D01*
X23887863Y6043720D01*
X23887865Y6043719D01*
X24034234Y6004500D01*
X24034236Y6004500D01*
X24185764Y6004500D01*
X24185766Y6004500D01*
X24332135Y6043719D01*
X24332137Y6043721D01*
X24332139Y6043721D01*
X24463360Y6119482D01*
X24463360Y6119483D01*
X24463365Y6119485D01*
X24570515Y6226635D01*
X24589353Y6259263D01*
X24646279Y6357861D01*
X24646279Y6357863D01*
X24646281Y6357865D01*
X24685500Y6504234D01*
X24685500Y6655766D01*
X24680246Y6675375D01*
X24683449Y6736475D01*
X24721954Y6784025D01*
X24768105Y6799690D01*
X24802569Y6802402D01*
X24916681Y6835556D01*
X24977833Y6833635D01*
X24982177Y6831954D01*
X25024740Y6814323D01*
X25024762Y6814314D01*
X25024763Y6814313D01*
X25041821Y6812068D01*
X25137280Y6799500D01*
X25137281Y6799500D01*
X25362719Y6799500D01*
X25362720Y6799500D01*
X25475236Y6814313D01*
X25475235Y6814313D01*
X25481670Y6815160D01*
X25481812Y6814080D01*
X25518188Y6814080D01*
X25518330Y6815160D01*
X25524764Y6814313D01*
X25637280Y6799500D01*
X25637281Y6799500D01*
X25862719Y6799500D01*
X25862720Y6799500D01*
X25975236Y6814313D01*
X25975235Y6814313D01*
X25981670Y6815160D01*
X25981812Y6814080D01*
X26018188Y6814080D01*
X26018330Y6815160D01*
X26024764Y6814313D01*
X26137280Y6799500D01*
X26137281Y6799500D01*
X26362719Y6799500D01*
X26362720Y6799500D01*
X26475236Y6814313D01*
X26475235Y6814313D01*
X26481670Y6815160D01*
X26481812Y6814080D01*
X26518188Y6814080D01*
X26518330Y6815160D01*
X26524764Y6814313D01*
X26637280Y6799500D01*
X26637281Y6799500D01*
X26862719Y6799500D01*
X26862720Y6799500D01*
X26975236Y6814313D01*
X26975235Y6814313D01*
X26981670Y6815160D01*
X26981812Y6814080D01*
X27018188Y6814080D01*
X27018330Y6815160D01*
X27024764Y6814313D01*
X27137280Y6799500D01*
X27137281Y6799500D01*
X27362719Y6799500D01*
X27362720Y6799500D01*
X27475236Y6814313D01*
X27475235Y6814313D01*
X27481670Y6815160D01*
X27481812Y6814080D01*
X27518188Y6814080D01*
X27518330Y6815160D01*
X27524764Y6814313D01*
X27637280Y6799500D01*
X27637281Y6799500D01*
X27862719Y6799500D01*
X27862720Y6799500D01*
X27975236Y6814313D01*
X27975235Y6814313D01*
X27981670Y6815160D01*
X27981812Y6814080D01*
X28018188Y6814080D01*
X28018330Y6815160D01*
X28024764Y6814313D01*
X28137280Y6799500D01*
X28137281Y6799500D01*
X28362719Y6799500D01*
X28362720Y6799500D01*
X28475236Y6814313D01*
X28475235Y6814313D01*
X28481670Y6815160D01*
X28481812Y6814080D01*
X28518188Y6814080D01*
X28518330Y6815160D01*
X28524764Y6814313D01*
X28637280Y6799500D01*
X28637281Y6799500D01*
X28862719Y6799500D01*
X28862720Y6799500D01*
X28975236Y6814313D01*
X29017814Y6831951D01*
X29078810Y6836751D01*
X29083317Y6835556D01*
X29197431Y6802402D01*
X29231893Y6799690D01*
X29288419Y6776278D01*
X29320390Y6724110D01*
X29319754Y6675377D01*
X29316880Y6664650D01*
X29314500Y6655766D01*
X29314500Y6504234D01*
X29336525Y6422036D01*
X29353720Y6357861D01*
X29429481Y6226640D01*
X29429483Y6226638D01*
X29429485Y6226635D01*
X29536635Y6119485D01*
X29536637Y6119484D01*
X29536639Y6119482D01*
X29667861Y6043721D01*
X29667859Y6043721D01*
X29667863Y6043720D01*
X29667865Y6043719D01*
X29814234Y6004500D01*
X29814236Y6004500D01*
X29965764Y6004500D01*
X29965766Y6004500D01*
X30112135Y6043719D01*
X30112137Y6043721D01*
X30112139Y6043721D01*
X30243360Y6119482D01*
X30243360Y6119483D01*
X30243365Y6119485D01*
X30350515Y6226635D01*
X30369353Y6259263D01*
X30426279Y6357861D01*
X30426279Y6357863D01*
X30426281Y6357865D01*
X30465500Y6504234D01*
X30465500Y6655766D01*
X30426281Y6802135D01*
X30426279Y6802138D01*
X30426279Y6802140D01*
X30350518Y6933361D01*
X30350516Y6933363D01*
X30350515Y6933365D01*
X30243365Y7040515D01*
X30233250Y7046355D01*
X30192308Y7091824D01*
X30185912Y7152674D01*
X30197538Y7182491D01*
X30201743Y7189601D01*
X30201744Y7189602D01*
X30247598Y7347431D01*
X30250500Y7384306D01*
X30250500Y8530836D01*
X30269407Y8589027D01*
X30279496Y8600840D01*
X30484260Y8805604D01*
X30538777Y8833381D01*
X30554264Y8834600D01*
X31213793Y8834600D01*
X31213794Y8834600D01*
X31349128Y8861520D01*
X31432327Y8895983D01*
X31493322Y8900783D01*
X31525210Y8886835D01*
G37*
G04 #@! TD.AperFunction*
G04 #@! TA.AperFunction,Conductor*
G36*
X45444945Y16052191D02*
G01*
X45470000Y16033988D01*
X45496956Y16007032D01*
X45548032Y15975528D01*
X45641299Y15917999D01*
X45641300Y15917999D01*
X45641303Y15917997D01*
X45802292Y15864651D01*
X45901655Y15854500D01*
X46118834Y15854501D01*
X46177024Y15835594D01*
X46188838Y15825505D01*
X50244986Y11769358D01*
X50342558Y11671786D01*
X50457282Y11595129D01*
X50457286Y11595127D01*
X50457289Y11595125D01*
X50504253Y11575672D01*
X50584771Y11542320D01*
X50611687Y11536967D01*
X50611690Y11536965D01*
X50611691Y11536966D01*
X50720107Y11515400D01*
X50720108Y11515400D01*
X56556393Y11515400D01*
X56556394Y11515400D01*
X56691728Y11542320D01*
X56819211Y11595125D01*
X56933943Y11671786D01*
X58275750Y13013596D01*
X58330267Y13041373D01*
X58390699Y13031802D01*
X58433964Y12988537D01*
X58437218Y12981478D01*
X58477005Y12885423D01*
X58477009Y12885415D01*
X58513029Y12831509D01*
X58564611Y12754311D01*
X58676111Y12642811D01*
X58705501Y12623173D01*
X58743380Y12575126D01*
X58749500Y12540859D01*
X58749500Y12261164D01*
X58730593Y12202973D01*
X58720509Y12191167D01*
X58649430Y12120087D01*
X58619527Y12090184D01*
X58531522Y11944608D01*
X58531521Y11944606D01*
X58480913Y11782195D01*
X58474500Y11711621D01*
X58474500Y11048380D01*
X58480913Y10977806D01*
X58531521Y10815395D01*
X58531522Y10815393D01*
X58585863Y10725504D01*
X58619528Y10669815D01*
X58739815Y10549528D01*
X58885394Y10461522D01*
X59047804Y10410914D01*
X59118384Y10404500D01*
X59118389Y10404500D01*
X59631611Y10404500D01*
X59631616Y10404500D01*
X59702196Y10410914D01*
X59864606Y10461522D01*
X60010185Y10549528D01*
X60129998Y10669342D01*
X60184513Y10697117D01*
X60244945Y10687546D01*
X60270000Y10669343D01*
X60389815Y10549528D01*
X60535394Y10461522D01*
X60697804Y10410914D01*
X60768384Y10404500D01*
X60768389Y10404500D01*
X61281611Y10404500D01*
X61281616Y10404500D01*
X61352196Y10410914D01*
X61514606Y10461522D01*
X61660185Y10549528D01*
X61780472Y10669815D01*
X61802780Y10706718D01*
X61849065Y10746734D01*
X61887502Y10754500D01*
X62397702Y10754500D01*
X62455893Y10735593D01*
X62467706Y10725504D01*
X65076627Y8116582D01*
X65104404Y8062065D01*
X65094833Y8001633D01*
X65076628Y7976576D01*
X65031920Y7931867D01*
X64948256Y7790398D01*
X64902403Y7632573D01*
X64902401Y7632566D01*
X64899500Y7595689D01*
X64899500Y7329500D01*
X64880593Y7271309D01*
X64831093Y7235345D01*
X64800500Y7230500D01*
X63609306Y7230500D01*
X63596773Y7229514D01*
X63572434Y7227599D01*
X63572427Y7227597D01*
X63414602Y7181744D01*
X63414598Y7181743D01*
X63351265Y7144287D01*
X63300870Y7130500D01*
X60181003Y7130500D01*
X60045672Y7103580D01*
X60045670Y7103580D01*
X59918191Y7050777D01*
X59803460Y6974117D01*
X57938839Y5109496D01*
X57884322Y5081719D01*
X57868835Y5080500D01*
X57534306Y5080500D01*
X57521773Y5079514D01*
X57497434Y5077599D01*
X57497427Y5077597D01*
X57339602Y5031744D01*
X57198133Y4948080D01*
X57157349Y4907296D01*
X57102832Y4879519D01*
X57087346Y4878300D01*
X56388944Y4878300D01*
X56351059Y4885836D01*
X56202097Y4947537D01*
X56047444Y4978300D01*
X56047442Y4978300D01*
X55889758Y4978300D01*
X55889755Y4978300D01*
X55735103Y4947537D01*
X55735101Y4947537D01*
X55587385Y4886352D01*
X55526388Y4881552D01*
X55474219Y4913521D01*
X55450805Y4970050D01*
X55450500Y4977816D01*
X55450500Y6707612D01*
X55469407Y6765803D01*
X55498282Y6792333D01*
X55510185Y6799528D01*
X55529998Y6819342D01*
X55584513Y6847117D01*
X55644945Y6837546D01*
X55670000Y6819343D01*
X55689815Y6799528D01*
X55835394Y6711522D01*
X55997804Y6660914D01*
X56068384Y6654500D01*
X56068389Y6654500D01*
X56731611Y6654500D01*
X56731616Y6654500D01*
X56802196Y6660914D01*
X56964606Y6711522D01*
X57110185Y6799528D01*
X57137318Y6826662D01*
X57191833Y6854440D01*
X57252266Y6844869D01*
X57277322Y6826666D01*
X57296956Y6807032D01*
X57363798Y6765803D01*
X57441299Y6717999D01*
X57441300Y6717999D01*
X57441303Y6717997D01*
X57602292Y6664651D01*
X57701655Y6654500D01*
X58298344Y6654501D01*
X58298352Y6654501D01*
X58397699Y6664650D01*
X58397699Y6664651D01*
X58397708Y6664651D01*
X58558697Y6717997D01*
X58703044Y6807032D01*
X58822968Y6926956D01*
X58912003Y7071303D01*
X58965349Y7232292D01*
X58975500Y7331655D01*
X58975499Y7878344D01*
X58975499Y7878353D01*
X58965350Y7977700D01*
X58965349Y7977702D01*
X58965349Y7977708D01*
X58912003Y8138697D01*
X58822968Y8283044D01*
X58703044Y8402968D01*
X58662046Y8428256D01*
X58558700Y8492002D01*
X58397705Y8545350D01*
X58298352Y8555500D01*
X57701647Y8555500D01*
X57602300Y8545351D01*
X57602288Y8545348D01*
X57441299Y8492002D01*
X57332667Y8424995D01*
X57303855Y8407223D01*
X57296958Y8402969D01*
X57296952Y8402965D01*
X57223784Y8329797D01*
X57169267Y8302020D01*
X57108835Y8311592D01*
X57102564Y8315079D01*
X56964607Y8398478D01*
X56964605Y8398479D01*
X56802194Y8449087D01*
X56731620Y8455500D01*
X56731616Y8455500D01*
X56475098Y8455500D01*
X56416907Y8474407D01*
X56405094Y8484496D01*
X55804496Y9085094D01*
X55776719Y9139611D01*
X55775500Y9155098D01*
X55775500Y9461612D01*
X55775500Y9461616D01*
X55769086Y9532196D01*
X55718478Y9694606D01*
X55630472Y9840185D01*
X55510185Y9960472D01*
X55432984Y10007142D01*
X55364607Y10048478D01*
X55364605Y10048479D01*
X55202194Y10099087D01*
X55131620Y10105500D01*
X55131616Y10105500D01*
X54468384Y10105500D01*
X54468379Y10105500D01*
X54397805Y10099087D01*
X54235394Y10048478D01*
X54190046Y10021065D01*
X54130465Y10007142D01*
X54083832Y10023471D01*
X54069578Y10032995D01*
X54069576Y10032996D01*
X53923897Y10093337D01*
X53769244Y10124100D01*
X53769242Y10124100D01*
X53611558Y10124100D01*
X53611555Y10124100D01*
X53456903Y10093337D01*
X53456901Y10093337D01*
X53311225Y10032997D01*
X53311214Y10032991D01*
X53180111Y9945389D01*
X53180107Y9945386D01*
X53068614Y9833893D01*
X53068611Y9833889D01*
X52981009Y9702786D01*
X52981003Y9702775D01*
X52920663Y9557099D01*
X52920663Y9557097D01*
X52889900Y9402445D01*
X52889900Y9244756D01*
X52920663Y9090104D01*
X52920663Y9090102D01*
X52981003Y8944426D01*
X52981009Y8944414D01*
X53037747Y8859502D01*
X53054356Y8800614D01*
X53033179Y8743210D01*
X52982305Y8709217D01*
X52955432Y8705500D01*
X51441520Y8705500D01*
X51383329Y8724407D01*
X51371517Y8734496D01*
X51303047Y8802965D01*
X51303044Y8802968D01*
X51214523Y8857569D01*
X51158700Y8892002D01*
X50997705Y8945350D01*
X50898353Y8955500D01*
X50898345Y8955500D01*
X50681165Y8955500D01*
X50622974Y8974407D01*
X50611161Y8984496D01*
X50243865Y9351792D01*
X49871543Y9724114D01*
X49867285Y9726959D01*
X49756808Y9800777D01*
X49629328Y9853580D01*
X49493996Y9880500D01*
X49493994Y9880500D01*
X49493993Y9880500D01*
X49399500Y9880500D01*
X49341309Y9899407D01*
X49305345Y9948907D01*
X49300500Y9979500D01*
X49300500Y10345689D01*
X49300252Y10348835D01*
X49297598Y10382569D01*
X49251744Y10540398D01*
X49168081Y10681865D01*
X49051865Y10798081D01*
X48910398Y10881744D01*
X48752569Y10927598D01*
X48752568Y10927599D01*
X48752565Y10927599D01*
X48729140Y10929442D01*
X48715694Y10930500D01*
X47559306Y10930500D01*
X47546773Y10929514D01*
X47522434Y10927599D01*
X47522427Y10927597D01*
X47364602Y10881744D01*
X47364598Y10881743D01*
X47301265Y10844287D01*
X47250870Y10830500D01*
X45006164Y10830500D01*
X44947973Y10849407D01*
X44936160Y10859496D01*
X44004495Y11791162D01*
X43976718Y11845679D01*
X43975499Y11861166D01*
X43975499Y12078353D01*
X43965350Y12177700D01*
X43965349Y12177702D01*
X43965349Y12177708D01*
X43912003Y12338697D01*
X43905594Y12349087D01*
X43871415Y12404500D01*
X43822968Y12483044D01*
X43703044Y12602968D01*
X43638449Y12642811D01*
X43558700Y12692002D01*
X43397705Y12745350D01*
X43298353Y12755500D01*
X43298345Y12755500D01*
X43081165Y12755500D01*
X43022974Y12774407D01*
X43011162Y12784496D01*
X42946042Y12849615D01*
X42831308Y12926277D01*
X42703827Y12979081D01*
X42703819Y12979083D01*
X42678185Y12984182D01*
X42624801Y13014079D01*
X42599186Y13069644D01*
X42598500Y13081279D01*
X42598500Y15130300D01*
X42617407Y15188491D01*
X42666907Y15224455D01*
X42697500Y15229300D01*
X43793793Y15229300D01*
X43793794Y15229300D01*
X43929128Y15256220D01*
X44056611Y15309025D01*
X44171343Y15385686D01*
X44611160Y15825505D01*
X44665677Y15853282D01*
X44681164Y15854501D01*
X44898352Y15854501D01*
X44997699Y15864650D01*
X44997699Y15864651D01*
X44997708Y15864651D01*
X45158697Y15917997D01*
X45303044Y16007032D01*
X45329998Y16033987D01*
X45384513Y16061762D01*
X45444945Y16052191D01*
G37*
G04 #@! TD.AperFunction*
G04 #@! TA.AperFunction,Conductor*
G36*
X30493226Y12594393D02*
G01*
X30505039Y12584304D01*
X30771304Y12318039D01*
X30799081Y12263522D01*
X30800300Y12248035D01*
X30800300Y11354500D01*
X30781393Y11296309D01*
X30731893Y11260345D01*
X30701300Y11255500D01*
X30268379Y11255500D01*
X30197805Y11249087D01*
X30035394Y11198479D01*
X30035392Y11198478D01*
X29889816Y11110473D01*
X29769527Y10990184D01*
X29681522Y10844608D01*
X29681521Y10844606D01*
X29630913Y10682195D01*
X29626482Y10633429D01*
X29602385Y10577188D01*
X29597892Y10572385D01*
X28351269Y9325760D01*
X28305005Y9279496D01*
X28250488Y9251719D01*
X28235001Y9250500D01*
X28137279Y9250500D01*
X28093665Y9244758D01*
X28024764Y9235687D01*
X28024763Y9235687D01*
X28018331Y9234840D01*
X28018189Y9235916D01*
X27981811Y9235916D01*
X27981669Y9234840D01*
X27975236Y9235687D01*
X27862720Y9250500D01*
X27637280Y9250500D01*
X27637279Y9250500D01*
X27593665Y9244758D01*
X27524764Y9235687D01*
X27524763Y9235687D01*
X27518331Y9234840D01*
X27518189Y9235916D01*
X27481811Y9235916D01*
X27481669Y9234840D01*
X27475236Y9235687D01*
X27362720Y9250500D01*
X27137280Y9250500D01*
X27137279Y9250500D01*
X27093665Y9244758D01*
X27024764Y9235687D01*
X27024763Y9235687D01*
X27018331Y9234840D01*
X27018189Y9235916D01*
X26981811Y9235916D01*
X26981669Y9234840D01*
X26975236Y9235687D01*
X26862720Y9250500D01*
X26637280Y9250500D01*
X26637279Y9250500D01*
X26593665Y9244758D01*
X26524764Y9235687D01*
X26524763Y9235687D01*
X26518331Y9234840D01*
X26518189Y9235916D01*
X26481811Y9235916D01*
X26481669Y9234840D01*
X26475236Y9235687D01*
X26362720Y9250500D01*
X26316593Y9250500D01*
X26258402Y9269407D01*
X26239630Y9288933D01*
X26238946Y9288371D01*
X26235865Y9292125D01*
X26235860Y9292130D01*
X26235858Y9292133D01*
X24774259Y10753731D01*
X24774258Y10753733D01*
X24742397Y10785594D01*
X24687141Y10840851D01*
X24687136Y10840855D01*
X24687133Y10840858D01*
X24625943Y10881744D01*
X24625941Y10881746D01*
X24584687Y10909311D01*
X24584688Y10909311D01*
X24584686Y10909312D01*
X24504192Y10942653D01*
X24474197Y10955078D01*
X24434150Y10985489D01*
X24430474Y10990181D01*
X24430472Y10990185D01*
X24310185Y11110472D01*
X24272777Y11133086D01*
X24164607Y11198478D01*
X24164605Y11198479D01*
X24002194Y11249087D01*
X23931620Y11255500D01*
X23931616Y11255500D01*
X23268384Y11255500D01*
X23268379Y11255500D01*
X23197805Y11249087D01*
X23035394Y11198479D01*
X23035388Y11198476D01*
X22897434Y11115079D01*
X22837854Y11101155D01*
X22781469Y11124911D01*
X22776228Y11129784D01*
X22703044Y11202968D01*
X22628276Y11249086D01*
X22558700Y11292002D01*
X22397705Y11345350D01*
X22298353Y11355500D01*
X22298345Y11355500D01*
X22081165Y11355500D01*
X22022974Y11374407D01*
X22011161Y11384496D01*
X21843896Y11551761D01*
X21816119Y11606278D01*
X21814900Y11621765D01*
X21814900Y12168535D01*
X21833807Y12226726D01*
X21843896Y12238539D01*
X22189661Y12584304D01*
X22244178Y12612081D01*
X22259665Y12613300D01*
X30435035Y12613300D01*
X30493226Y12594393D01*
G37*
G04 #@! TD.AperFunction*
G04 #@! TA.AperFunction,Conductor*
G36*
X65695593Y22935593D02*
G01*
X65707406Y22925504D01*
X67645504Y20987407D01*
X67673281Y20932890D01*
X67674500Y20917403D01*
X67674500Y20642600D01*
X67655593Y20584409D01*
X67645504Y20572596D01*
X65738769Y18665860D01*
X65651645Y18578737D01*
X65651642Y18578733D01*
X65612599Y18520301D01*
X65583186Y18476283D01*
X65564224Y18430502D01*
X65564224Y18430501D01*
X65536036Y18362452D01*
X65533459Y18349493D01*
X65532487Y18344606D01*
X65528923Y18326690D01*
X65521797Y18290860D01*
X65521797Y18290857D01*
X65512000Y18241607D01*
X65512000Y17270689D01*
X65493093Y17212498D01*
X65443593Y17176534D01*
X65440621Y17175620D01*
X65289601Y17131744D01*
X65148136Y17048082D01*
X65031918Y16931864D01*
X64948256Y16790398D01*
X64902403Y16632573D01*
X64902401Y16632566D01*
X64899500Y16595689D01*
X64899500Y16329500D01*
X64880593Y16271309D01*
X64831093Y16235345D01*
X64800500Y16230500D01*
X63609306Y16230500D01*
X63596773Y16229514D01*
X63572434Y16227599D01*
X63572427Y16227597D01*
X63414602Y16181744D01*
X63273136Y16098082D01*
X63156918Y15981864D01*
X63073256Y15840398D01*
X63027403Y15682573D01*
X63027401Y15682566D01*
X63024500Y15645689D01*
X63024500Y15214312D01*
X63027401Y15177435D01*
X63027401Y15177432D01*
X63027402Y15177431D01*
X63073256Y15019602D01*
X63156919Y14878135D01*
X63198552Y14836502D01*
X63226328Y14781987D01*
X63216757Y14721555D01*
X63173492Y14678290D01*
X63128547Y14667500D01*
X58169504Y14667500D01*
X58061091Y14645936D01*
X58061091Y14645935D01*
X58047631Y14643258D01*
X58034170Y14640580D01*
X58014428Y14632402D01*
X57906689Y14587776D01*
X57829291Y14536059D01*
X57829290Y14536058D01*
X57791960Y14511116D01*
X56226239Y12945396D01*
X56171722Y12917619D01*
X56156235Y12916400D01*
X52594700Y12916400D01*
X52536509Y12935307D01*
X52500545Y12984807D01*
X52497109Y13006498D01*
X52496176Y13006406D01*
X52495700Y13011235D01*
X52495700Y13011242D01*
X52464937Y13165897D01*
X52404594Y13311579D01*
X52395171Y13325681D01*
X52378564Y13384568D01*
X52399742Y13441972D01*
X52448033Y13475198D01*
X52564606Y13511522D01*
X52710185Y13599528D01*
X52729998Y13619342D01*
X52784513Y13647117D01*
X52844945Y13637546D01*
X52870000Y13619343D01*
X52889815Y13599528D01*
X53035394Y13511522D01*
X53197804Y13460914D01*
X53268384Y13454500D01*
X53268389Y13454500D01*
X53931611Y13454500D01*
X53931616Y13454500D01*
X54002196Y13460914D01*
X54164606Y13511522D01*
X54310185Y13599528D01*
X54337318Y13626662D01*
X54391833Y13654440D01*
X54452266Y13644869D01*
X54477322Y13626666D01*
X54496956Y13607032D01*
X54548800Y13575054D01*
X54641299Y13517999D01*
X54641300Y13517999D01*
X54641303Y13517997D01*
X54802292Y13464651D01*
X54901655Y13454500D01*
X55498344Y13454501D01*
X55498352Y13454501D01*
X55597699Y13464650D01*
X55597699Y13464651D01*
X55597708Y13464651D01*
X55758697Y13517997D01*
X55903044Y13607032D01*
X56022968Y13726956D01*
X56112003Y13871303D01*
X56165349Y14032292D01*
X56175500Y14131655D01*
X56175499Y14678344D01*
X56175499Y14678353D01*
X56165350Y14777700D01*
X56165349Y14777702D01*
X56165349Y14777708D01*
X56112003Y14938697D01*
X56111953Y14938778D01*
X56080245Y14990184D01*
X56022968Y15083044D01*
X55903044Y15202968D01*
X55860352Y15229301D01*
X55758700Y15292002D01*
X55597705Y15345350D01*
X55498352Y15355500D01*
X54901647Y15355500D01*
X54802300Y15345351D01*
X54802288Y15345348D01*
X54641299Y15292002D01*
X54496958Y15202969D01*
X54496952Y15202965D01*
X54423784Y15129797D01*
X54369267Y15102020D01*
X54308835Y15111592D01*
X54302564Y15115079D01*
X54164607Y15198478D01*
X54164605Y15198479D01*
X54002194Y15249087D01*
X53931620Y15255500D01*
X53931616Y15255500D01*
X53625099Y15255500D01*
X53566908Y15274407D01*
X53555095Y15284496D01*
X53004496Y15835095D01*
X52976719Y15889612D01*
X52975500Y15905099D01*
X52975500Y16054903D01*
X52994407Y16113094D01*
X53004498Y16124908D01*
X53028596Y16149005D01*
X53083113Y16176781D01*
X53098598Y16178000D01*
X55374434Y16178000D01*
X55429436Y16161315D01*
X55530013Y16094110D01*
X55530025Y16094104D01*
X55583838Y16071815D01*
X55675703Y16033763D01*
X55830358Y16003000D01*
X55830359Y16003000D01*
X55988041Y16003000D01*
X55988042Y16003000D01*
X56142697Y16033763D01*
X56288379Y16094106D01*
X56419489Y16181711D01*
X56530989Y16293211D01*
X56618594Y16424321D01*
X56678937Y16570003D01*
X56709700Y16724658D01*
X56709700Y16882342D01*
X56678937Y17036997D01*
X56639692Y17131744D01*
X56618596Y17182675D01*
X56618590Y17182686D01*
X56573349Y17250393D01*
X56530989Y17313789D01*
X56419489Y17425289D01*
X56333056Y17483042D01*
X56288385Y17512891D01*
X56288374Y17512897D01*
X56142697Y17573237D01*
X55988044Y17604000D01*
X55988042Y17604000D01*
X55878771Y17604000D01*
X55820580Y17622907D01*
X55784616Y17672407D01*
X55781673Y17722314D01*
X55788274Y17755500D01*
X55800300Y17815958D01*
X55800300Y17973642D01*
X55787859Y18036187D01*
X55795051Y18096947D01*
X55836583Y18141877D01*
X55884957Y18154500D01*
X58512498Y18154500D01*
X58570689Y18135593D01*
X58597219Y18106718D01*
X58619528Y18069815D01*
X58739815Y17949528D01*
X58885394Y17861522D01*
X59047804Y17810914D01*
X59118384Y17804500D01*
X59118389Y17804500D01*
X59631611Y17804500D01*
X59631616Y17804500D01*
X59702196Y17810914D01*
X59864606Y17861522D01*
X60010185Y17949528D01*
X60129998Y18069342D01*
X60184513Y18097117D01*
X60244945Y18087546D01*
X60270000Y18069343D01*
X60389815Y17949528D01*
X60535394Y17861522D01*
X60697804Y17810914D01*
X60768384Y17804500D01*
X60768389Y17804500D01*
X61281611Y17804500D01*
X61281616Y17804500D01*
X61352196Y17810914D01*
X61514606Y17861522D01*
X61660185Y17949528D01*
X61780472Y18069815D01*
X61868478Y18215394D01*
X61919086Y18377804D01*
X61925500Y18448384D01*
X61925500Y19111616D01*
X61919086Y19182196D01*
X61868478Y19344606D01*
X61780472Y19490185D01*
X61679494Y19591163D01*
X61651719Y19645677D01*
X61650500Y19661164D01*
X61650500Y22698836D01*
X61669407Y22757027D01*
X61679490Y22768834D01*
X61780472Y22869815D01*
X61802780Y22906718D01*
X61849065Y22946734D01*
X61887502Y22954500D01*
X65637402Y22954500D01*
X65695593Y22935593D01*
G37*
G04 #@! TD.AperFunction*
G04 #@! TA.AperFunction,Conductor*
G36*
X45992241Y19265236D02*
G01*
X45997951Y19259959D01*
X49395504Y15862406D01*
X49423281Y15807889D01*
X49424500Y15792402D01*
X49424500Y15748380D01*
X49430913Y15677806D01*
X49481521Y15515395D01*
X49481522Y15515393D01*
X49511068Y15466519D01*
X49569528Y15369815D01*
X49689341Y15250002D01*
X49717117Y15195487D01*
X49707546Y15135055D01*
X49689342Y15110000D01*
X49615547Y15036204D01*
X49569527Y14990184D01*
X49481522Y14844608D01*
X49481519Y14844600D01*
X49451729Y14749000D01*
X49416366Y14699069D01*
X49358408Y14679460D01*
X49299993Y14697663D01*
X49287208Y14708449D01*
X47204495Y16791162D01*
X47176718Y16845679D01*
X47175499Y16861166D01*
X47175499Y17078353D01*
X47165350Y17177700D01*
X47165349Y17177702D01*
X47165349Y17177708D01*
X47112003Y17338697D01*
X47110898Y17340488D01*
X47067731Y17410472D01*
X47022968Y17483044D01*
X46903044Y17602968D01*
X46870718Y17622907D01*
X46758700Y17692002D01*
X46597705Y17745350D01*
X46498352Y17755500D01*
X45901647Y17755500D01*
X45802300Y17745351D01*
X45802288Y17745348D01*
X45641299Y17692002D01*
X45496958Y17602969D01*
X45496952Y17602965D01*
X45470002Y17576015D01*
X45415485Y17548239D01*
X45355054Y17557811D01*
X45329998Y17576015D01*
X45303047Y17602965D01*
X45303044Y17602968D01*
X45208469Y17661303D01*
X45158700Y17692002D01*
X44997705Y17745350D01*
X44898353Y17755500D01*
X44415091Y17755500D01*
X44356900Y17774407D01*
X44320936Y17823907D01*
X44320936Y17885093D01*
X44323616Y17892357D01*
X44369737Y18003703D01*
X44400500Y18158358D01*
X44400500Y18316042D01*
X44369737Y18470697D01*
X44337239Y18549154D01*
X44309396Y18616375D01*
X44309390Y18616386D01*
X44251941Y18702363D01*
X44221789Y18747489D01*
X44110289Y18858989D01*
X44110287Y18858991D01*
X44095597Y18868807D01*
X44057718Y18916858D01*
X44051600Y18951121D01*
X44051600Y19192636D01*
X44070507Y19250827D01*
X44120007Y19286791D01*
X44181193Y19286791D01*
X44220604Y19262640D01*
X44447880Y19035364D01*
X44460189Y19020366D01*
X44468510Y19007912D01*
X44468512Y19007910D01*
X44580002Y18896419D01*
X44580006Y18896416D01*
X44580011Y18896411D01*
X44658176Y18844183D01*
X44711114Y18808810D01*
X44711125Y18808804D01*
X44764938Y18786515D01*
X44856803Y18748463D01*
X45011458Y18717700D01*
X45011459Y18717700D01*
X45169141Y18717700D01*
X45169142Y18717700D01*
X45323797Y18748463D01*
X45469479Y18808806D01*
X45600589Y18896411D01*
X45712089Y19007911D01*
X45799694Y19139021D01*
X45836484Y19227843D01*
X45876218Y19274366D01*
X45935713Y19288650D01*
X45992241Y19265236D01*
G37*
G04 #@! TD.AperFunction*
G04 #@! TA.AperFunction,Conductor*
G36*
X73245653Y33855193D02*
G01*
X73281617Y33805693D01*
X73283805Y33763353D01*
X73285550Y33763174D01*
X73274500Y33655017D01*
X73274500Y32304984D01*
X73284999Y32202212D01*
X73285000Y32202205D01*
X73285001Y32202203D01*
X73328869Y32069817D01*
X73340187Y32035664D01*
X73432285Y31886348D01*
X73432286Y31886347D01*
X73432288Y31886344D01*
X73556344Y31762288D01*
X73705666Y31670186D01*
X73872203Y31615001D01*
X73974991Y31604500D01*
X74662045Y31604501D01*
X74720236Y31585594D01*
X74732049Y31575505D01*
X81042785Y25264769D01*
X81070562Y25210252D01*
X81070562Y25179279D01*
X81049500Y25046292D01*
X81049500Y24833710D01*
X81082752Y24623762D01*
X81148443Y24421588D01*
X81244948Y24232185D01*
X81244950Y24232181D01*
X81369891Y24060214D01*
X81369893Y24060212D01*
X81369896Y24060208D01*
X81520208Y23909896D01*
X81520211Y23909894D01*
X81520213Y23909892D01*
X81692180Y23784951D01*
X81692184Y23784949D01*
X81744662Y23758210D01*
X81787927Y23714945D01*
X81797498Y23654513D01*
X81769720Y23599996D01*
X81744662Y23581790D01*
X81692184Y23555052D01*
X81692180Y23555050D01*
X81520213Y23430109D01*
X81369891Y23279787D01*
X81244950Y23107820D01*
X81244941Y23107805D01*
X81243284Y23104551D01*
X81200018Y23061288D01*
X81155077Y23050500D01*
X73218430Y23050500D01*
X73155593Y23038001D01*
X73092756Y23025501D01*
X73092755Y23025501D01*
X73092752Y23025500D01*
X73015096Y22993333D01*
X72974373Y22976466D01*
X72867831Y22905278D01*
X72340303Y22377751D01*
X72285787Y22349974D01*
X72225355Y22359545D01*
X72200296Y22377751D01*
X71765038Y22813009D01*
X71326898Y23251148D01*
X71299122Y23305664D01*
X71308693Y23366096D01*
X71351958Y23409361D01*
X71367435Y23415663D01*
X71514606Y23461522D01*
X71660185Y23549528D01*
X71780472Y23669815D01*
X71868478Y23815394D01*
X71919086Y23977804D01*
X71925500Y24048384D01*
X71925500Y24711616D01*
X71919086Y24782196D01*
X71868478Y24944606D01*
X71862610Y24954312D01*
X71807006Y25046292D01*
X71780472Y25090185D01*
X71660185Y25210472D01*
X71584471Y25256243D01*
X71514607Y25298478D01*
X71514605Y25298479D01*
X71352194Y25349087D01*
X71281620Y25355500D01*
X71281616Y25355500D01*
X70975099Y25355500D01*
X70916908Y25374407D01*
X70905095Y25384496D01*
X69918759Y26370831D01*
X69918759Y26370832D01*
X69831641Y26457951D01*
X69831636Y26457955D01*
X69831633Y26457958D01*
X69769367Y26499563D01*
X69769366Y26499564D01*
X69769365Y26499565D01*
X69729183Y26526414D01*
X69648324Y26559906D01*
X69648323Y26559906D01*
X69615352Y26573563D01*
X69615348Y26573564D01*
X69554929Y26585582D01*
X69554929Y26585583D01*
X69494511Y26597600D01*
X69494507Y26597600D01*
X69494506Y26597600D01*
X64874500Y26597600D01*
X64816309Y26616507D01*
X64780345Y26666007D01*
X64775500Y26696600D01*
X64775499Y27078353D01*
X64765350Y27177700D01*
X64765349Y27177702D01*
X64765349Y27177708D01*
X64712003Y27338697D01*
X64706177Y27348142D01*
X64669490Y27407620D01*
X64622968Y27483044D01*
X64545513Y27560499D01*
X64517738Y27615013D01*
X64527309Y27675445D01*
X64570574Y27718710D01*
X64615519Y27729500D01*
X65899106Y27729500D01*
X65899107Y27729500D01*
X66014738Y27752500D01*
X66019952Y27753537D01*
X66053288Y27767347D01*
X66053291Y27767347D01*
X66053291Y27767348D01*
X66053292Y27767348D01*
X66133786Y27800688D01*
X66185009Y27834916D01*
X66236233Y27869142D01*
X66323358Y27956267D01*
X66323359Y27956270D01*
X69950228Y31583140D01*
X70004743Y31610915D01*
X70030288Y31611621D01*
X70099991Y31604500D01*
X70825008Y31604501D01*
X70825016Y31604501D01*
X70927788Y31615000D01*
X70927788Y31615001D01*
X70927797Y31615001D01*
X71094334Y31670186D01*
X71243656Y31762288D01*
X71367712Y31886344D01*
X71459814Y32035666D01*
X71514999Y32202203D01*
X71525500Y32304991D01*
X71525499Y33655008D01*
X71525499Y33655012D01*
X71525499Y33655017D01*
X71514450Y33763174D01*
X71516664Y33763401D01*
X71522044Y33815247D01*
X71562925Y33860771D01*
X71612538Y33874100D01*
X73187462Y33874100D01*
X73245653Y33855193D01*
G37*
G04 #@! TD.AperFunction*
G04 #@! TA.AperFunction,Conductor*
G36*
X9654393Y40003493D02*
G01*
X9666206Y39993404D01*
X12159404Y37500206D01*
X12187181Y37445689D01*
X12188400Y37430202D01*
X12188400Y37104500D01*
X12169493Y37046309D01*
X12119993Y37010345D01*
X12089400Y37005500D01*
X11461588Y37005500D01*
X11401170Y36993483D01*
X11401171Y36993482D01*
X11340750Y36981464D01*
X11340744Y36981462D01*
X11226916Y36934312D01*
X11226914Y36934311D01*
X11179184Y36902419D01*
X11132100Y36870958D01*
X11124471Y36865861D01*
X11124461Y36865853D01*
X10796868Y36538261D01*
X10796869Y36538260D01*
X10796867Y36538258D01*
X10796866Y36538259D01*
X10709746Y36451138D01*
X10709739Y36451129D01*
X10696868Y36431866D01*
X10641289Y36348689D01*
X10641286Y36348682D01*
X10625460Y36310473D01*
X10594137Y36234854D01*
X10594137Y36234852D01*
X10583326Y36180500D01*
X10570517Y36116101D01*
X10570512Y36116078D01*
X10570100Y36114014D01*
X10570100Y35903598D01*
X10551193Y35845407D01*
X10541104Y35833594D01*
X9735206Y35027696D01*
X9680689Y34999919D01*
X9665202Y34998700D01*
X9476298Y34998700D01*
X9418107Y35017607D01*
X9406294Y35027696D01*
X9254496Y35179494D01*
X9226719Y35234011D01*
X9225500Y35249498D01*
X9225500Y36244547D01*
X9244407Y36302738D01*
X9254490Y36314545D01*
X9268081Y36328135D01*
X9351744Y36469602D01*
X9397598Y36627431D01*
X9400500Y36664306D01*
X9400500Y37970694D01*
X9397598Y38007569D01*
X9351744Y38165398D01*
X9268081Y38306865D01*
X9151865Y38423081D01*
X9010398Y38506744D01*
X8852569Y38552598D01*
X8852568Y38552599D01*
X8852565Y38552599D01*
X8829140Y38554442D01*
X8815694Y38555500D01*
X8384306Y38555500D01*
X8371773Y38554514D01*
X8347434Y38552599D01*
X8347427Y38552597D01*
X8189602Y38506744D01*
X8048136Y38423082D01*
X7931918Y38306864D01*
X7848256Y38165398D01*
X7802403Y38007573D01*
X7802401Y38007566D01*
X7799500Y37970689D01*
X7799500Y36779500D01*
X7780593Y36721309D01*
X7731093Y36685345D01*
X7700500Y36680500D01*
X7434306Y36680500D01*
X7421773Y36679514D01*
X7397434Y36677599D01*
X7397427Y36677597D01*
X7239602Y36631744D01*
X7098136Y36548082D01*
X6981918Y36431864D01*
X6898256Y36290398D01*
X6852403Y36132573D01*
X6852401Y36132566D01*
X6849500Y36095689D01*
X6849500Y34789312D01*
X6852401Y34752435D01*
X6852401Y34752432D01*
X6852402Y34752431D01*
X6898256Y34594602D01*
X6981919Y34453135D01*
X7098135Y34336919D01*
X7239602Y34253256D01*
X7397431Y34207402D01*
X7434306Y34204500D01*
X7693102Y34204500D01*
X7751293Y34185593D01*
X7763106Y34175504D01*
X7793006Y34145604D01*
X7820783Y34091087D01*
X7811212Y34030655D01*
X7767947Y33987390D01*
X7723002Y33976600D01*
X6808006Y33976600D01*
X6749815Y33995507D01*
X6713851Y34045007D01*
X6710909Y34056282D01*
X6709004Y34065857D01*
X6709003Y34065861D01*
X6707453Y34073653D01*
X6685280Y34185128D01*
X6632475Y34312611D01*
X6555814Y34427343D01*
X5379496Y35603661D01*
X5351719Y35658178D01*
X5350500Y35673665D01*
X5350500Y36095689D01*
X5348895Y36116080D01*
X5347598Y36132569D01*
X5301744Y36290398D01*
X5218081Y36431865D01*
X5101865Y36548081D01*
X4960398Y36631744D01*
X4802569Y36677598D01*
X4802568Y36677599D01*
X4802565Y36677599D01*
X4779140Y36679442D01*
X4765694Y36680500D01*
X4765689Y36680500D01*
X4522364Y36680500D01*
X4464173Y36699407D01*
X4428209Y36748907D01*
X4428209Y36810093D01*
X4452360Y36849504D01*
X5378360Y37775505D01*
X5432877Y37803282D01*
X5448364Y37804501D01*
X5698352Y37804501D01*
X5797699Y37814650D01*
X5797699Y37814651D01*
X5797708Y37814651D01*
X5958697Y37867997D01*
X6103044Y37957032D01*
X6222968Y38076956D01*
X6312003Y38221303D01*
X6365349Y38382292D01*
X6375500Y38481655D01*
X6375499Y39078344D01*
X6375499Y39078345D01*
X6375499Y39078353D01*
X6365350Y39177700D01*
X6365349Y39177702D01*
X6365349Y39177708D01*
X6312003Y39338697D01*
X6306043Y39348359D01*
X6287542Y39378354D01*
X6222968Y39483044D01*
X6147691Y39558321D01*
X6119916Y39612835D01*
X6126232Y39666205D01*
X6161937Y39752403D01*
X6192700Y39907058D01*
X6192700Y39923400D01*
X6211607Y39981591D01*
X6261107Y40017555D01*
X6291700Y40022400D01*
X9596202Y40022400D01*
X9654393Y40003493D01*
G37*
G04 #@! TD.AperFunction*
G04 #@! TA.AperFunction,Conductor*
G36*
X82422777Y53679345D02*
G01*
X82736855Y53661706D01*
X82747878Y53660464D01*
X83055278Y53608235D01*
X83066072Y53605772D01*
X83365702Y53519450D01*
X83376173Y53515786D01*
X83664233Y53396467D01*
X83674235Y53391650D01*
X83947117Y53240833D01*
X83956517Y53234927D01*
X84026742Y53185100D01*
X84210802Y53054503D01*
X84210804Y53054502D01*
X84219481Y53047582D01*
X84451976Y52839812D01*
X84459811Y52831977D01*
X84667579Y52599485D01*
X84674501Y52590805D01*
X84854926Y52336518D01*
X84860832Y52327118D01*
X85011649Y52054236D01*
X85016466Y52044234D01*
X85135783Y51756178D01*
X85139450Y51745699D01*
X85225767Y51446088D01*
X85228237Y51435264D01*
X85280462Y51127884D01*
X85281705Y51116852D01*
X85299344Y50802778D01*
X85299500Y50797227D01*
X85299500Y3182774D01*
X85299344Y3177223D01*
X85281705Y2863150D01*
X85280462Y2852118D01*
X85228237Y2544737D01*
X85225767Y2533913D01*
X85139450Y2234303D01*
X85135783Y2223824D01*
X85016465Y1935767D01*
X85011648Y1925765D01*
X84860831Y1652881D01*
X84854924Y1643480D01*
X84674501Y1389198D01*
X84667580Y1380519D01*
X84459818Y1148033D01*
X84451967Y1140182D01*
X84219481Y932420D01*
X84210802Y925499D01*
X83956520Y745076D01*
X83947119Y739169D01*
X83674235Y588352D01*
X83664233Y583535D01*
X83376176Y464217D01*
X83365697Y460550D01*
X83066087Y374233D01*
X83055263Y371763D01*
X82747882Y319538D01*
X82736850Y318295D01*
X82422778Y300656D01*
X82417227Y300500D01*
X61741034Y300500D01*
X61682843Y319407D01*
X61646879Y368907D01*
X61646517Y428953D01*
X61694313Y582338D01*
X61694315Y582344D01*
X61694616Y585660D01*
X61700500Y650406D01*
X61700500Y1109594D01*
X61694315Y1177657D01*
X61654789Y1304500D01*
X61645514Y1334264D01*
X61645509Y1334276D01*
X61560650Y1474650D01*
X61560649Y1474651D01*
X61560648Y1474653D01*
X61444653Y1590648D01*
X61444650Y1590650D01*
X61444649Y1590651D01*
X61304275Y1675510D01*
X61304263Y1675515D01*
X61147662Y1724314D01*
X61147656Y1724316D01*
X61079599Y1730500D01*
X61079594Y1730500D01*
X60270406Y1730500D01*
X60270400Y1730500D01*
X60202343Y1724316D01*
X60202337Y1724314D01*
X60045736Y1675515D01*
X60045724Y1675510D01*
X59905350Y1590651D01*
X59789349Y1474650D01*
X59704490Y1334276D01*
X59704485Y1334264D01*
X59655686Y1177663D01*
X59655684Y1177657D01*
X59649500Y1109600D01*
X59649500Y650401D01*
X59655684Y582344D01*
X59655686Y582338D01*
X59703483Y428953D01*
X59702744Y367772D01*
X59666185Y318710D01*
X59608966Y300500D01*
X54391034Y300500D01*
X54332843Y319407D01*
X54296879Y368907D01*
X54296517Y428953D01*
X54344313Y582338D01*
X54344315Y582344D01*
X54344616Y585660D01*
X54350500Y650406D01*
X54350500Y1109594D01*
X54344315Y1177657D01*
X54304789Y1304500D01*
X54295514Y1334264D01*
X54295509Y1334276D01*
X54210650Y1474650D01*
X54210649Y1474651D01*
X54210648Y1474653D01*
X54094653Y1590648D01*
X54094650Y1590650D01*
X54094649Y1590651D01*
X53954275Y1675510D01*
X53954263Y1675515D01*
X53797662Y1724314D01*
X53797656Y1724316D01*
X53729599Y1730500D01*
X53729594Y1730500D01*
X52920406Y1730500D01*
X52920400Y1730500D01*
X52852343Y1724316D01*
X52852337Y1724314D01*
X52695736Y1675515D01*
X52695724Y1675510D01*
X52555350Y1590651D01*
X52439349Y1474650D01*
X52354490Y1334276D01*
X52354485Y1334264D01*
X52305686Y1177663D01*
X52305684Y1177657D01*
X52299500Y1109600D01*
X52299500Y650401D01*
X52305684Y582344D01*
X52305686Y582338D01*
X52353483Y428953D01*
X52352744Y367772D01*
X52316185Y318710D01*
X52258966Y300500D01*
X3182773Y300500D01*
X3177222Y300656D01*
X2863148Y318295D01*
X2852116Y319538D01*
X2544736Y371763D01*
X2533912Y374233D01*
X2510194Y381066D01*
X2460278Y395447D01*
X2234301Y460550D01*
X2223822Y464217D01*
X1935766Y583534D01*
X1925764Y588351D01*
X1652882Y739168D01*
X1643482Y745074D01*
X1389195Y925499D01*
X1380515Y932421D01*
X1331532Y976195D01*
X1148023Y1140189D01*
X1140188Y1148024D01*
X932418Y1380519D01*
X925498Y1389196D01*
X878591Y1455305D01*
X745073Y1643483D01*
X739167Y1652883D01*
X588350Y1925765D01*
X583533Y1935767D01*
X567181Y1975244D01*
X464214Y2223827D01*
X460549Y2234302D01*
X460150Y2235687D01*
X374228Y2533928D01*
X371765Y2544722D01*
X319536Y2852122D01*
X318294Y2863149D01*
X317595Y2875588D01*
X300656Y3177223D01*
X300500Y3182774D01*
X300500Y33111621D01*
X1474500Y33111621D01*
X1474500Y32448380D01*
X1480913Y32377806D01*
X1531521Y32215395D01*
X1531522Y32215393D01*
X1556668Y32173797D01*
X1619528Y32069815D01*
X1739815Y31949528D01*
X1885394Y31861522D01*
X2047804Y31810914D01*
X2118384Y31804500D01*
X2318835Y31804500D01*
X2377026Y31785593D01*
X2388838Y31775504D01*
X2658984Y31505359D01*
X2838657Y31325686D01*
X2953389Y31249025D01*
X2953390Y31249025D01*
X2953391Y31249024D01*
X2999334Y31229994D01*
X3080871Y31196220D01*
X3107787Y31190867D01*
X3107790Y31190865D01*
X3107791Y31190866D01*
X3216207Y31169300D01*
X3766100Y31169300D01*
X3824291Y31150393D01*
X3860255Y31100893D01*
X3865100Y31070300D01*
X3865100Y14554104D01*
X3892020Y14418773D01*
X3892020Y14418771D01*
X3944823Y14291292D01*
X3944824Y14291290D01*
X3944825Y14291289D01*
X4021486Y14176557D01*
X7114999Y11083044D01*
X10205739Y7992304D01*
X10233516Y7937787D01*
X10223945Y7877355D01*
X10180680Y7834090D01*
X10155049Y7825202D01*
X10022003Y7798737D01*
X10022001Y7798737D01*
X9876325Y7738397D01*
X9876314Y7738391D01*
X9745211Y7650789D01*
X9745207Y7650786D01*
X9633714Y7539293D01*
X9633711Y7539289D01*
X9546109Y7408186D01*
X9546103Y7408175D01*
X9485763Y7262499D01*
X9485763Y7262497D01*
X9455000Y7107845D01*
X9455000Y6950156D01*
X9465640Y6896666D01*
X9484962Y6799528D01*
X9485763Y6795504D01*
X9485763Y6795502D01*
X9546103Y6649826D01*
X9546109Y6649815D01*
X9591153Y6582404D01*
X9633711Y6518711D01*
X9745211Y6407211D01*
X9819068Y6357861D01*
X9876314Y6319610D01*
X9876325Y6319604D01*
X9930138Y6297315D01*
X10022003Y6259263D01*
X10140653Y6235663D01*
X10191342Y6208568D01*
X10250406Y6149503D01*
X10278183Y6094986D01*
X10268611Y6034554D01*
X10225346Y5991290D01*
X10180402Y5980500D01*
X6952133Y5980500D01*
X6952129Y5980500D01*
X6952128Y5980499D01*
X6944949Y5979728D01*
X6892519Y5974092D01*
X6892514Y5974091D01*
X6757670Y5923798D01*
X6642458Y5837550D01*
X6642450Y5837542D01*
X6556202Y5722330D01*
X6505910Y5587489D01*
X6505908Y5587478D01*
X6499500Y5527871D01*
X6499500Y4232134D01*
X6499501Y4232130D01*
X6505908Y4172520D01*
X6505909Y4172515D01*
X6556202Y4037671D01*
X6642450Y3922459D01*
X6642454Y3922454D01*
X6642457Y3922452D01*
X6642458Y3922451D01*
X6757670Y3836203D01*
X6892511Y3785911D01*
X6892512Y3785911D01*
X6892517Y3785909D01*
X6952127Y3779500D01*
X11047872Y3779501D01*
X11107483Y3785909D01*
X11190202Y3816761D01*
X11242329Y3836203D01*
X11242329Y3836204D01*
X11242331Y3836204D01*
X11357546Y3922454D01*
X11443796Y4037669D01*
X11494091Y4172517D01*
X11499039Y4218548D01*
X11524058Y4274382D01*
X11559587Y4299428D01*
X11569346Y4303471D01*
X11622986Y4325689D01*
X11725433Y4394142D01*
X11812558Y4481267D01*
X11881011Y4583714D01*
X11928163Y4697548D01*
X11952200Y4818394D01*
X11952200Y5891293D01*
X11952201Y5891314D01*
X11952201Y6006835D01*
X11971108Y6065026D01*
X12020608Y6100990D01*
X12081794Y6100990D01*
X12121202Y6076841D01*
X14025521Y4172523D01*
X17022258Y1175786D01*
X17136982Y1099129D01*
X17136988Y1099126D01*
X17136989Y1099125D01*
X17174019Y1083787D01*
X17174020Y1083786D01*
X17174021Y1083786D01*
X17264471Y1046320D01*
X17291387Y1040967D01*
X17291390Y1040965D01*
X17291391Y1040966D01*
X17399807Y1019400D01*
X17399808Y1019400D01*
X40095993Y1019400D01*
X40095994Y1019400D01*
X40231328Y1046320D01*
X40358811Y1099125D01*
X40473543Y1175786D01*
X42103389Y2805633D01*
X42157902Y2833407D01*
X42218334Y2823836D01*
X42261599Y2780571D01*
X42267543Y2766220D01*
X42295241Y2680977D01*
X42388139Y2498652D01*
X42388143Y2498646D01*
X42450279Y2413124D01*
X42450280Y2413124D01*
X43093217Y3056060D01*
X43103963Y3015956D01*
X43159916Y2919044D01*
X43239044Y2839916D01*
X43335956Y2783963D01*
X43376058Y2773218D01*
X42733122Y2130282D01*
X42733122Y2130281D01*
X42818645Y2068144D01*
X42818651Y2068140D01*
X43000972Y1975244D01*
X43195587Y1912009D01*
X43397685Y1880000D01*
X43602315Y1880000D01*
X43804412Y1912009D01*
X43999027Y1975244D01*
X44138939Y2046532D01*
X54824500Y2046532D01*
X54824500Y1913469D01*
X54850460Y1782963D01*
X54901378Y1660034D01*
X54973849Y1551572D01*
X54975305Y1549394D01*
X55069394Y1455305D01*
X55180031Y1381380D01*
X55180032Y1381380D01*
X55180033Y1381379D01*
X55182117Y1380516D01*
X55302964Y1330460D01*
X55433469Y1304500D01*
X55433470Y1304500D01*
X55566530Y1304500D01*
X55566531Y1304500D01*
X55697036Y1330460D01*
X55819969Y1381380D01*
X55930606Y1455305D01*
X56024695Y1549394D01*
X56098620Y1660031D01*
X56149540Y1782964D01*
X56175500Y1913469D01*
X56175500Y2046531D01*
X56175500Y2046532D01*
X57824500Y2046532D01*
X57824500Y1913469D01*
X57850460Y1782963D01*
X57901378Y1660034D01*
X57973849Y1551572D01*
X57975305Y1549394D01*
X58069394Y1455305D01*
X58180031Y1381380D01*
X58180032Y1381380D01*
X58180033Y1381379D01*
X58182117Y1380516D01*
X58302964Y1330460D01*
X58433469Y1304500D01*
X58433470Y1304500D01*
X58566530Y1304500D01*
X58566531Y1304500D01*
X58697036Y1330460D01*
X58819969Y1381380D01*
X58930606Y1455305D01*
X59024695Y1549394D01*
X59098620Y1660031D01*
X59149540Y1782964D01*
X59175500Y1913469D01*
X59175500Y2046531D01*
X59149540Y2177036D01*
X59105033Y2284486D01*
X59098621Y2299967D01*
X59060248Y2357396D01*
X59024695Y2410606D01*
X58930606Y2504695D01*
X58908598Y2519400D01*
X58819966Y2578622D01*
X58697037Y2629540D01*
X58566531Y2655500D01*
X58433469Y2655500D01*
X58433468Y2655500D01*
X58302962Y2629540D01*
X58180033Y2578622D01*
X58069397Y2504698D01*
X57975302Y2410603D01*
X57901378Y2299967D01*
X57850460Y2177038D01*
X57824500Y2046532D01*
X56175500Y2046532D01*
X56149540Y2177036D01*
X56105033Y2284486D01*
X56098621Y2299967D01*
X56060248Y2357396D01*
X56024695Y2410606D01*
X55930606Y2504695D01*
X55908598Y2519400D01*
X55819966Y2578622D01*
X55697037Y2629540D01*
X55566531Y2655500D01*
X55433469Y2655500D01*
X55433468Y2655500D01*
X55302962Y2629540D01*
X55180033Y2578622D01*
X55069397Y2504698D01*
X54975302Y2410603D01*
X54901378Y2299967D01*
X54850460Y2177038D01*
X54824500Y2046532D01*
X44138939Y2046532D01*
X44181348Y2068140D01*
X44181353Y2068144D01*
X44266876Y2130280D01*
X44266876Y2130281D01*
X43623939Y2773218D01*
X43664044Y2783963D01*
X43760956Y2839916D01*
X43840084Y2919044D01*
X43896037Y3015956D01*
X43906782Y3056061D01*
X44549719Y2413124D01*
X44549720Y2413124D01*
X44611856Y2498647D01*
X44611860Y2498652D01*
X44704756Y2680973D01*
X44767991Y2875588D01*
X44800000Y3077685D01*
X44800000Y3282316D01*
X44767991Y3484413D01*
X44704756Y3679028D01*
X44611860Y3861349D01*
X44611856Y3861355D01*
X44549719Y3946878D01*
X44549718Y3946878D01*
X43906782Y3303942D01*
X43896037Y3344044D01*
X43840084Y3440956D01*
X43760956Y3520084D01*
X43664044Y3576037D01*
X43623940Y3586783D01*
X44266876Y4229720D01*
X44266876Y4229721D01*
X44181354Y4291857D01*
X44181348Y4291861D01*
X43999023Y4384759D01*
X43913780Y4412457D01*
X43864281Y4448421D01*
X43845374Y4506612D01*
X43864282Y4564803D01*
X43874358Y4576602D01*
X46406614Y7108857D01*
X46483275Y7223589D01*
X46536080Y7351071D01*
X46548975Y7415900D01*
X46563000Y7486407D01*
X46563000Y8332891D01*
X46581907Y8391082D01*
X46631407Y8427046D01*
X46634367Y8427957D01*
X46635398Y8428256D01*
X46670620Y8449086D01*
X46698735Y8465713D01*
X46749130Y8479500D01*
X49093835Y8479500D01*
X49152026Y8460593D01*
X49163839Y8450504D01*
X49595504Y8018839D01*
X49623281Y7964322D01*
X49624500Y7948835D01*
X49624500Y7731648D01*
X49634649Y7632301D01*
X49634652Y7632289D01*
X49687998Y7471300D01*
X49722170Y7415900D01*
X49777032Y7326956D01*
X49896956Y7207032D01*
X49962842Y7166393D01*
X50041299Y7117999D01*
X50041300Y7117999D01*
X50041303Y7117997D01*
X50202292Y7064651D01*
X50301655Y7054500D01*
X50898344Y7054501D01*
X50898352Y7054501D01*
X50997699Y7064650D01*
X50997699Y7064651D01*
X50997708Y7064651D01*
X51158697Y7117997D01*
X51303044Y7207032D01*
X51337282Y7241270D01*
X51371517Y7275504D01*
X51426034Y7303281D01*
X51441520Y7304500D01*
X53734411Y7304500D01*
X53792602Y7285593D01*
X53828566Y7236093D01*
X53829771Y7231471D01*
X53881521Y7065395D01*
X53881522Y7065393D01*
X53946914Y6957223D01*
X53969528Y6919815D01*
X54020505Y6868838D01*
X54048281Y6814323D01*
X54049500Y6798836D01*
X54049500Y4804132D01*
X54035714Y4753738D01*
X53998256Y4690400D01*
X53952403Y4532573D01*
X53952401Y4532566D01*
X53951626Y4522712D01*
X53949546Y4496270D01*
X53949500Y4495689D01*
X53949500Y4011544D01*
X53930593Y3953353D01*
X53881093Y3917389D01*
X53821047Y3917027D01*
X53797662Y3924314D01*
X53797656Y3924316D01*
X53729599Y3930500D01*
X53729594Y3930500D01*
X52920406Y3930500D01*
X52920400Y3930500D01*
X52852343Y3924316D01*
X52852337Y3924314D01*
X52695736Y3875515D01*
X52695724Y3875510D01*
X52555350Y3790651D01*
X52439349Y3674650D01*
X52354490Y3534276D01*
X52354485Y3534264D01*
X52305686Y3377663D01*
X52305684Y3377657D01*
X52299500Y3309600D01*
X52299500Y2850401D01*
X52305684Y2782344D01*
X52305686Y2782338D01*
X52354485Y2625737D01*
X52354490Y2625725D01*
X52439349Y2485351D01*
X52439350Y2485350D01*
X52439352Y2485347D01*
X52555347Y2369352D01*
X52555349Y2369351D01*
X52555350Y2369350D01*
X52695724Y2284491D01*
X52695727Y2284490D01*
X52695730Y2284488D01*
X52852343Y2235685D01*
X52920406Y2229500D01*
X52920412Y2229500D01*
X53729588Y2229500D01*
X53729594Y2229500D01*
X53797657Y2235685D01*
X53954270Y2284488D01*
X54094653Y2369352D01*
X54210648Y2485347D01*
X54295512Y2625730D01*
X54298672Y2635869D01*
X54328154Y2730481D01*
X54363516Y2780412D01*
X54421474Y2800022D01*
X54450286Y2796099D01*
X54497431Y2782402D01*
X54534306Y2779500D01*
X54534311Y2779500D01*
X54965689Y2779500D01*
X54965694Y2779500D01*
X55002569Y2782402D01*
X55160398Y2828256D01*
X55301865Y2911919D01*
X55418081Y3028135D01*
X55501744Y3169602D01*
X55547598Y3327431D01*
X55548971Y3344890D01*
X55572383Y3401416D01*
X55624551Y3433388D01*
X55685545Y3428591D01*
X55735103Y3408063D01*
X55889758Y3377300D01*
X55889759Y3377300D01*
X56047441Y3377300D01*
X56047442Y3377300D01*
X56202097Y3408063D01*
X56281508Y3440956D01*
X56351059Y3469764D01*
X56388944Y3477300D01*
X56850500Y3477300D01*
X56908691Y3458393D01*
X56944655Y3408893D01*
X56949500Y3378300D01*
X56949500Y3364312D01*
X56952401Y3327435D01*
X56952401Y3327432D01*
X56952402Y3327431D01*
X56998256Y3169602D01*
X57081919Y3028135D01*
X57198135Y2911919D01*
X57339602Y2828256D01*
X57497431Y2782402D01*
X57534306Y2779500D01*
X57534311Y2779500D01*
X57965689Y2779500D01*
X57965694Y2779500D01*
X58002569Y2782402D01*
X58160398Y2828256D01*
X58301865Y2911919D01*
X58418081Y3028135D01*
X58418084Y3028141D01*
X58421772Y3032894D01*
X58472376Y3067288D01*
X58533531Y3065369D01*
X58578228Y3032894D01*
X58581916Y3028139D01*
X58581917Y3028138D01*
X58581919Y3028135D01*
X58698135Y2911919D01*
X58839602Y2828256D01*
X58997431Y2782402D01*
X59034306Y2779500D01*
X59034311Y2779500D01*
X59465689Y2779500D01*
X59465694Y2779500D01*
X59502569Y2782402D01*
X59549710Y2796098D01*
X59610862Y2794177D01*
X59659208Y2756676D01*
X59671845Y2730482D01*
X59704485Y2625737D01*
X59704490Y2625725D01*
X59789349Y2485351D01*
X59789350Y2485350D01*
X59789352Y2485347D01*
X59905347Y2369352D01*
X59905349Y2369351D01*
X59905350Y2369350D01*
X60045724Y2284491D01*
X60045727Y2284490D01*
X60045730Y2284488D01*
X60202343Y2235685D01*
X60270406Y2229500D01*
X60270412Y2229500D01*
X61079588Y2229500D01*
X61079594Y2229500D01*
X61147657Y2235685D01*
X61304270Y2284488D01*
X61444653Y2369352D01*
X61560648Y2485347D01*
X61645512Y2625730D01*
X61694315Y2782343D01*
X61700500Y2850406D01*
X61700500Y3309594D01*
X61694315Y3377657D01*
X61645512Y3534270D01*
X61645510Y3534273D01*
X61645509Y3534276D01*
X61560650Y3674650D01*
X61560649Y3674651D01*
X61560648Y3674653D01*
X61444653Y3790648D01*
X61444650Y3790650D01*
X61444649Y3790651D01*
X61304275Y3875510D01*
X61304263Y3875515D01*
X61147662Y3924314D01*
X61147656Y3924316D01*
X61079599Y3930500D01*
X61079594Y3930500D01*
X60270406Y3930500D01*
X60270400Y3930500D01*
X60202343Y3924316D01*
X60202337Y3924314D01*
X60178953Y3917027D01*
X60117772Y3917766D01*
X60068710Y3954325D01*
X60050500Y4011544D01*
X60050500Y4495689D01*
X60050454Y4496270D01*
X60047598Y4532569D01*
X60001744Y4690398D01*
X59918081Y4831865D01*
X59850302Y4899644D01*
X59822527Y4954158D01*
X59832098Y5014590D01*
X59850305Y5039649D01*
X60511162Y5700504D01*
X60565678Y5728281D01*
X60581165Y5729500D01*
X63300870Y5729500D01*
X63351265Y5715713D01*
X63414598Y5678258D01*
X63414599Y5678258D01*
X63414602Y5678256D01*
X63572431Y5632402D01*
X63609306Y5629500D01*
X64031335Y5629500D01*
X64089526Y5610593D01*
X64101339Y5600504D01*
X65270504Y4431339D01*
X65298281Y4376822D01*
X65299500Y4361335D01*
X65299500Y3867204D01*
X65280593Y3809013D01*
X65258692Y3787112D01*
X65185356Y3733830D01*
X65046171Y3594645D01*
X64930474Y3435403D01*
X64841116Y3260026D01*
X64780289Y3072822D01*
X64749500Y2878421D01*
X64749500Y2681580D01*
X64780289Y2487179D01*
X64841116Y2299975D01*
X64927578Y2130281D01*
X64930476Y2124595D01*
X65046172Y1965354D01*
X65185354Y1826172D01*
X65344595Y1710476D01*
X65519975Y1621116D01*
X65707174Y1560291D01*
X65707175Y1560291D01*
X65707178Y1560290D01*
X65901580Y1529500D01*
X65901583Y1529500D01*
X66098419Y1529500D01*
X66134621Y1535235D01*
X66187949Y1543681D01*
X66248380Y1534110D01*
X66273440Y1515904D01*
X66607986Y1181358D01*
X66705558Y1083786D01*
X66761625Y1046323D01*
X66820282Y1007129D01*
X66820286Y1007127D01*
X66820289Y1007125D01*
X66894966Y976193D01*
X66947771Y954320D01*
X66974687Y948967D01*
X66974690Y948965D01*
X66974691Y948966D01*
X67083107Y927400D01*
X67083108Y927400D01*
X69953893Y927400D01*
X69953894Y927400D01*
X70089228Y954320D01*
X70216711Y1007125D01*
X70331443Y1083786D01*
X71095814Y1848157D01*
X71172475Y1962889D01*
X71225280Y2090372D01*
X71252200Y2225706D01*
X71252200Y2363694D01*
X71252200Y6422036D01*
X71271107Y6480227D01*
X71281190Y6492034D01*
X73484314Y8695157D01*
X73560975Y8809889D01*
X73613780Y8937372D01*
X73640700Y9072706D01*
X73640700Y9210694D01*
X73640700Y12185593D01*
X73613780Y12320928D01*
X73612460Y12324114D01*
X73607908Y12335103D01*
X73560976Y12448409D01*
X73484316Y12563140D01*
X73484314Y12563143D01*
X70073343Y15974114D01*
X70061744Y15981864D01*
X69958608Y16050777D01*
X69831128Y16103580D01*
X69695796Y16130500D01*
X69695794Y16130500D01*
X69695793Y16130500D01*
X67474500Y16130500D01*
X67416309Y16149407D01*
X67380345Y16198907D01*
X67375500Y16229500D01*
X67375500Y16595689D01*
X67372598Y16632566D01*
X67372598Y16632569D01*
X67326744Y16790398D01*
X67243081Y16931865D01*
X67126865Y17048081D01*
X66985398Y17131744D01*
X66834379Y17175620D01*
X66783774Y17210012D01*
X66763049Y17267580D01*
X66763000Y17270689D01*
X66763000Y17879904D01*
X66781907Y17938095D01*
X66791990Y17949902D01*
X68225228Y19383141D01*
X68279743Y19410916D01*
X68305288Y19411622D01*
X68374991Y19404501D01*
X69100008Y19404502D01*
X69100016Y19404502D01*
X69202788Y19415001D01*
X69202788Y19415002D01*
X69202797Y19415002D01*
X69369334Y19470187D01*
X69518656Y19562289D01*
X69642712Y19686345D01*
X69734814Y19835667D01*
X69789999Y20002204D01*
X69800500Y20104992D01*
X69800499Y21455009D01*
X69800499Y21455010D01*
X69800499Y21455018D01*
X69790000Y21557790D01*
X69789999Y21557792D01*
X69789999Y21557798D01*
X69734814Y21724335D01*
X69642712Y21873657D01*
X69518656Y21997713D01*
X69518653Y21997715D01*
X69518652Y21997716D01*
X69369336Y22089814D01*
X69369335Y22089815D01*
X69369334Y22089815D01*
X69202797Y22145000D01*
X69202794Y22145001D01*
X69100016Y22155501D01*
X68374983Y22155501D01*
X68305292Y22148381D01*
X68245481Y22161276D01*
X68225227Y22176864D01*
X66423359Y23978731D01*
X66423359Y23978732D01*
X66336241Y24065851D01*
X66336236Y24065855D01*
X66336233Y24065858D01*
X66249750Y24123644D01*
X66249749Y24123645D01*
X66249749Y24123646D01*
X66249745Y24123647D01*
X66244352Y24127251D01*
X66233786Y24134312D01*
X66233781Y24134314D01*
X66164861Y24162861D01*
X66164860Y24162862D01*
X66119953Y24181463D01*
X66119950Y24181464D01*
X66025717Y24200207D01*
X65999109Y24205500D01*
X65999107Y24205500D01*
X65999106Y24205500D01*
X63181997Y24205500D01*
X63123806Y24224407D01*
X63087842Y24273907D01*
X63087842Y24335093D01*
X63111993Y24374504D01*
X63519685Y24782195D01*
X64055094Y25317604D01*
X64109611Y25345381D01*
X64125098Y25346600D01*
X68636936Y25346600D01*
X68695127Y25327693D01*
X68731091Y25278193D01*
X68731091Y25217007D01*
X68706941Y25177599D01*
X68659088Y25129745D01*
X68619527Y25090184D01*
X68531522Y24944608D01*
X68531521Y24944606D01*
X68480913Y24782195D01*
X68474500Y24711621D01*
X68474500Y24048380D01*
X68480913Y23977806D01*
X68531521Y23815395D01*
X68531522Y23815393D01*
X68586072Y23725158D01*
X68619528Y23669815D01*
X68739815Y23549528D01*
X68885394Y23461522D01*
X69047804Y23410914D01*
X69118384Y23404500D01*
X69292646Y23404500D01*
X69350837Y23385593D01*
X69362650Y23375504D01*
X70742836Y21995318D01*
X70770613Y21940801D01*
X70761042Y21880369D01*
X70757093Y21873342D01*
X70665187Y21724338D01*
X70610000Y21557796D01*
X70599500Y21455018D01*
X70599500Y20104985D01*
X70609999Y20002213D01*
X70610002Y20002201D01*
X70665187Y19835665D01*
X70757285Y19686349D01*
X70757286Y19686348D01*
X70757288Y19686345D01*
X70881344Y19562289D01*
X70881346Y19562288D01*
X70881347Y19562287D01*
X70935502Y19528884D01*
X71030666Y19470187D01*
X71197203Y19415002D01*
X71299991Y19404501D01*
X72025008Y19404502D01*
X72025016Y19404502D01*
X72127788Y19415001D01*
X72127788Y19415002D01*
X72127797Y19415002D01*
X72294334Y19470187D01*
X72443656Y19562289D01*
X72567712Y19686345D01*
X72659814Y19835667D01*
X72714999Y20002204D01*
X72725500Y20104992D01*
X72725499Y20882048D01*
X72744406Y20940238D01*
X72754489Y20952045D01*
X72775577Y20973132D01*
X72775576Y20973132D01*
X73522950Y21720504D01*
X73577466Y21748281D01*
X73592953Y21749500D01*
X81155077Y21749500D01*
X81213268Y21730593D01*
X81243284Y21695449D01*
X81244941Y21692196D01*
X81244950Y21692181D01*
X81369891Y21520214D01*
X81369893Y21520212D01*
X81369896Y21520208D01*
X81520208Y21369896D01*
X81520211Y21369894D01*
X81520213Y21369892D01*
X81692180Y21244951D01*
X81692184Y21244949D01*
X81881588Y21148443D01*
X82083757Y21082754D01*
X82083758Y21082754D01*
X82083761Y21082753D01*
X82293710Y21049500D01*
X82293713Y21049500D01*
X82506290Y21049500D01*
X82716238Y21082753D01*
X82716239Y21082754D01*
X82716243Y21082754D01*
X82918412Y21148443D01*
X83107816Y21244949D01*
X83153660Y21278256D01*
X83165141Y21286598D01*
X83279792Y21369896D01*
X83430104Y21520208D01*
X83546484Y21680392D01*
X83555049Y21692181D01*
X83555051Y21692184D01*
X83651557Y21881588D01*
X83717246Y22083757D01*
X83717247Y22083762D01*
X83750500Y22293710D01*
X83750500Y22506291D01*
X83717247Y22716239D01*
X83710539Y22736884D01*
X83651557Y22918412D01*
X83555051Y23107816D01*
X83555049Y23107820D01*
X83430108Y23279787D01*
X83430106Y23279789D01*
X83430104Y23279792D01*
X83279792Y23430104D01*
X83279788Y23430107D01*
X83279786Y23430109D01*
X83107819Y23555050D01*
X83107815Y23555052D01*
X83076904Y23570802D01*
X83055336Y23581791D01*
X83012073Y23625054D01*
X83002501Y23685486D01*
X83030278Y23740003D01*
X83055335Y23758209D01*
X83107816Y23784949D01*
X83125579Y23797854D01*
X83165141Y23826598D01*
X83279792Y23909896D01*
X83430104Y24060208D01*
X83533674Y24202761D01*
X83555049Y24232181D01*
X83555051Y24232184D01*
X83651557Y24421588D01*
X83717246Y24623757D01*
X83718314Y24630500D01*
X83750500Y24833710D01*
X83750500Y25046291D01*
X83717247Y25256239D01*
X83717246Y25256243D01*
X83651557Y25458412D01*
X83555051Y25647816D01*
X83555049Y25647820D01*
X83430108Y25819787D01*
X83430106Y25819789D01*
X83430104Y25819792D01*
X83279792Y25970104D01*
X83279788Y25970107D01*
X83279786Y25970109D01*
X83107819Y26095050D01*
X83107815Y26095052D01*
X83014121Y26142791D01*
X82970856Y26186056D01*
X82961285Y26246488D01*
X82989062Y26301005D01*
X83043579Y26328782D01*
X83059066Y26330001D01*
X83294790Y26330001D01*
X83294791Y26330002D01*
X83319874Y26332910D01*
X83422477Y26378214D01*
X83501786Y26457523D01*
X83547090Y26560128D01*
X83549999Y26585203D01*
X83550000Y26585205D01*
X83550000Y27279999D01*
X83549999Y27280000D01*
X82861880Y27280000D01*
X82865925Y27287007D01*
X82900000Y27414174D01*
X82900000Y27545826D01*
X82865925Y27672993D01*
X82861880Y27680000D01*
X83549998Y27680000D01*
X83549999Y27680001D01*
X83549999Y28374790D01*
X83549998Y28374792D01*
X83547090Y28399875D01*
X83501786Y28502478D01*
X83422477Y28581787D01*
X83319872Y28627091D01*
X83294797Y28630000D01*
X82600001Y28630000D01*
X82600000Y28629999D01*
X82600000Y27941880D01*
X82592993Y27945925D01*
X82465826Y27980000D01*
X82334174Y27980000D01*
X82207007Y27945925D01*
X82200000Y27941880D01*
X82200000Y28629999D01*
X82199999Y28630000D01*
X81505210Y28630000D01*
X81505207Y28629999D01*
X81480125Y28627091D01*
X81377522Y28581787D01*
X81298213Y28502478D01*
X81252909Y28399873D01*
X81250000Y28374798D01*
X81250000Y27680001D01*
X81250001Y27680000D01*
X81938120Y27680000D01*
X81934075Y27672993D01*
X81900000Y27545826D01*
X81900000Y27414174D01*
X81934075Y27287007D01*
X81938120Y27280000D01*
X81250002Y27280000D01*
X81250000Y27279999D01*
X81250000Y27136453D01*
X81231092Y27078263D01*
X81181592Y27042299D01*
X81120407Y27042300D01*
X81080996Y27066450D01*
X76696604Y31450842D01*
X76668827Y31505359D01*
X76678398Y31565791D01*
X76721663Y31609056D01*
X76782095Y31618627D01*
X76795562Y31615353D01*
X76797199Y31615003D01*
X76797203Y31615001D01*
X76899991Y31604500D01*
X77625008Y31604501D01*
X77625016Y31604501D01*
X77727788Y31615000D01*
X77727788Y31615001D01*
X77727797Y31615001D01*
X77894334Y31670186D01*
X78043656Y31762288D01*
X78167712Y31886344D01*
X78259814Y32035666D01*
X78314999Y32202203D01*
X78325500Y32304991D01*
X78325499Y33655008D01*
X78325499Y33655012D01*
X78325499Y33655017D01*
X78315000Y33757789D01*
X78314999Y33757791D01*
X78314999Y33757797D01*
X78259814Y33924334D01*
X78176119Y34060026D01*
X78167714Y34073653D01*
X78167713Y34073654D01*
X78167712Y34073656D01*
X78043656Y34197712D01*
X78043653Y34197714D01*
X78043652Y34197715D01*
X77894336Y34289813D01*
X77894335Y34289814D01*
X77894334Y34289814D01*
X77727797Y34344999D01*
X77727794Y34345000D01*
X77625016Y34355500D01*
X76899989Y34355500D01*
X76862366Y34351657D01*
X76802556Y34364555D01*
X76782305Y34380141D01*
X76501472Y34660974D01*
X76132569Y35029877D01*
X76125339Y35034708D01*
X76026026Y35101066D01*
X75907647Y35150100D01*
X75907645Y35150101D01*
X75907644Y35150101D01*
X75781969Y35175100D01*
X69018031Y35175100D01*
X69018030Y35175100D01*
X68971353Y35165815D01*
X68892356Y35150101D01*
X68892355Y35150101D01*
X68892352Y35150100D01*
X68773973Y35101066D01*
X68667430Y35029877D01*
X68017692Y34380141D01*
X67963176Y34352364D01*
X67937628Y34351658D01*
X67900017Y34355500D01*
X67174983Y34355500D01*
X67072211Y34345001D01*
X67072199Y34344998D01*
X66905663Y34289813D01*
X66756347Y34197715D01*
X66632285Y34073653D01*
X66540187Y33924337D01*
X66485000Y33757795D01*
X66474500Y33655017D01*
X66474500Y32304984D01*
X66484999Y32202212D01*
X66485000Y32202205D01*
X66485001Y32202203D01*
X66528869Y32069817D01*
X66540187Y32035664D01*
X66632285Y31886348D01*
X66632286Y31886347D01*
X66632288Y31886344D01*
X66756344Y31762288D01*
X66905666Y31670186D01*
X67072203Y31615001D01*
X67174991Y31604500D01*
X67900008Y31604501D01*
X67900015Y31604501D01*
X67959978Y31610627D01*
X68019789Y31597732D01*
X68060598Y31552144D01*
X68066816Y31491275D01*
X68040044Y31442136D01*
X65607406Y29009496D01*
X65552889Y28981719D01*
X65537402Y28980500D01*
X60798248Y28980500D01*
X60740057Y28999407D01*
X60704093Y29048907D01*
X60704093Y29110093D01*
X60740057Y29159593D01*
X60778933Y29176598D01*
X60785797Y29177963D01*
X60931479Y29238306D01*
X61062589Y29325911D01*
X61174089Y29437411D01*
X61261694Y29568521D01*
X61322037Y29714203D01*
X61352800Y29868858D01*
X61352800Y30026542D01*
X61322037Y30181197D01*
X61300986Y30232019D01*
X61261696Y30326875D01*
X61261690Y30326886D01*
X61225865Y30380501D01*
X61174089Y30457989D01*
X61062589Y30569489D01*
X61010359Y30604388D01*
X60931485Y30657091D01*
X60931474Y30657097D01*
X60785797Y30717437D01*
X60631144Y30748200D01*
X60631142Y30748200D01*
X60473458Y30748200D01*
X60473455Y30748200D01*
X60318803Y30717437D01*
X60318801Y30717437D01*
X60173125Y30657097D01*
X60173113Y30657091D01*
X60072536Y30589885D01*
X60017534Y30573200D01*
X59326802Y30573200D01*
X59268611Y30592107D01*
X59242081Y30620980D01*
X59230472Y30640185D01*
X59110185Y30760472D01*
X59072777Y30783086D01*
X58964607Y30848478D01*
X58964605Y30848479D01*
X58802194Y30899087D01*
X58731620Y30905500D01*
X58731616Y30905500D01*
X58068384Y30905500D01*
X58068379Y30905500D01*
X57997805Y30899087D01*
X57835394Y30848479D01*
X57835392Y30848478D01*
X57689816Y30760473D01*
X57569527Y30640184D01*
X57481522Y30494608D01*
X57481521Y30494606D01*
X57430913Y30332195D01*
X57424500Y30261621D01*
X57424500Y29748380D01*
X57430913Y29677806D01*
X57481521Y29515395D01*
X57481522Y29515393D01*
X57558021Y29388850D01*
X57571945Y29329270D01*
X57548189Y29272884D01*
X57495828Y29241231D01*
X57434862Y29246399D01*
X57421326Y29253373D01*
X57358700Y29292002D01*
X57197705Y29345350D01*
X57098352Y29355500D01*
X56501647Y29355500D01*
X56402300Y29345351D01*
X56402288Y29345348D01*
X56241299Y29292002D01*
X56132586Y29224945D01*
X56102798Y29206571D01*
X56096958Y29202969D01*
X56096957Y29202969D01*
X56096956Y29202968D01*
X55977032Y29083044D01*
X55964801Y29063216D01*
X55887998Y28938701D01*
X55834650Y28777706D01*
X55824500Y28678353D01*
X55824500Y28131648D01*
X55834649Y28032301D01*
X55834652Y28032289D01*
X55887998Y27871300D01*
X55910438Y27834920D01*
X55977032Y27726956D01*
X56096956Y27607032D01*
X56096958Y27607031D01*
X56096960Y27607029D01*
X56156771Y27570138D01*
X56196373Y27523498D01*
X56203800Y27485877D01*
X56203800Y27229368D01*
X56187116Y27174367D01*
X56119904Y27073777D01*
X56059563Y26928099D01*
X56059563Y26928097D01*
X56028800Y26773445D01*
X56028800Y26615756D01*
X56059563Y26461104D01*
X56059563Y26461102D01*
X56119903Y26315426D01*
X56119909Y26315415D01*
X56168501Y26242693D01*
X56207511Y26184311D01*
X56319011Y26072811D01*
X56358673Y26046310D01*
X56450114Y25985210D01*
X56450125Y25985204D01*
X56486583Y25970103D01*
X56595803Y25924863D01*
X56750458Y25894100D01*
X56750459Y25894100D01*
X56908141Y25894100D01*
X56908142Y25894100D01*
X57062797Y25924863D01*
X57208479Y25985206D01*
X57339589Y26072811D01*
X57451089Y26184311D01*
X57538694Y26315421D01*
X57599037Y26461103D01*
X57629800Y26615758D01*
X57629800Y26773442D01*
X57599037Y26928097D01*
X57564400Y27011719D01*
X57538695Y27073777D01*
X57535643Y27078344D01*
X57494888Y27139340D01*
X57471484Y27174367D01*
X57454800Y27229368D01*
X57454800Y27522021D01*
X57473707Y27580212D01*
X57498632Y27603319D01*
X57498523Y27603457D01*
X57500280Y27604847D01*
X57501831Y27606284D01*
X57503044Y27607032D01*
X57522673Y27626662D01*
X57577186Y27654439D01*
X57637618Y27644871D01*
X57662677Y27626666D01*
X57689815Y27599528D01*
X57778649Y27545826D01*
X57818026Y27522021D01*
X57835394Y27511522D01*
X57997804Y27460914D01*
X58068384Y27454500D01*
X58068389Y27454500D01*
X58731611Y27454500D01*
X58731616Y27454500D01*
X58802196Y27460914D01*
X58964606Y27511522D01*
X59110185Y27599528D01*
X59211162Y27700506D01*
X59265677Y27728281D01*
X59281164Y27729500D01*
X63034481Y27729500D01*
X63092672Y27710593D01*
X63128636Y27661093D01*
X63128636Y27599907D01*
X63104486Y27560499D01*
X63055511Y27511523D01*
X63027031Y27483043D01*
X63027031Y27483042D01*
X62937998Y27338701D01*
X62884650Y27177706D01*
X62874500Y27078353D01*
X62874500Y26481648D01*
X62884649Y26382301D01*
X62884652Y26382289D01*
X62937998Y26221300D01*
X62992892Y26132305D01*
X63007349Y26072852D01*
X62984099Y26016256D01*
X62978636Y26010328D01*
X62132306Y25163997D01*
X62077789Y25136220D01*
X62062302Y25135001D01*
X53675200Y25135001D01*
X53617009Y25153908D01*
X53581045Y25203408D01*
X53576200Y25234001D01*
X53576200Y25261941D01*
X53576199Y25261945D01*
X53545437Y25416597D01*
X53525322Y25465158D01*
X53485096Y25562275D01*
X53485090Y25562286D01*
X53427937Y25647820D01*
X53397489Y25693389D01*
X53285989Y25804889D01*
X53194743Y25865858D01*
X53154885Y25892491D01*
X53154874Y25892497D01*
X53009197Y25952837D01*
X52890549Y25976438D01*
X52839859Y26003532D01*
X51464659Y27378731D01*
X51464659Y27378732D01*
X51377541Y27465851D01*
X51377536Y27465855D01*
X51377533Y27465858D01*
X51322250Y27502797D01*
X51322248Y27502799D01*
X51275087Y27534311D01*
X51275088Y27534311D01*
X51275086Y27534312D01*
X51194592Y27567653D01*
X51194589Y27567655D01*
X51194588Y27567655D01*
X51161253Y27581463D01*
X51161250Y27581464D01*
X51080385Y27597548D01*
X51040409Y27605500D01*
X51040407Y27605500D01*
X51040406Y27605500D01*
X49209563Y27605500D01*
X49159168Y27619287D01*
X49050392Y27683617D01*
X49050391Y27683618D01*
X49050390Y27683618D01*
X48957541Y27710593D01*
X48898625Y27727710D01*
X48874448Y27729612D01*
X48863163Y27730500D01*
X48863158Y27730500D01*
X47665484Y27730500D01*
X47607293Y27749407D01*
X47571329Y27798907D01*
X47568386Y27810186D01*
X47563467Y27834916D01*
X47558737Y27858697D01*
X47498394Y28004379D01*
X47449420Y28077673D01*
X47432812Y28136560D01*
X47446521Y28183066D01*
X47503618Y28279610D01*
X47547709Y28431373D01*
X47548893Y28446425D01*
X47572306Y28502951D01*
X47624474Y28534922D01*
X47631793Y28536155D01*
X47636041Y28537000D01*
X47636042Y28537000D01*
X47790697Y28567763D01*
X47936379Y28628106D01*
X48067489Y28715711D01*
X48178989Y28827211D01*
X48266594Y28958321D01*
X48326937Y29104003D01*
X48357700Y29258658D01*
X48357700Y29416342D01*
X48326937Y29570997D01*
X48306822Y29619558D01*
X48266596Y29716675D01*
X48266590Y29716686D01*
X48231217Y29769624D01*
X48178989Y29847789D01*
X48067489Y29959289D01*
X48008043Y29999010D01*
X47969498Y30024765D01*
X47931619Y30072815D01*
X47925500Y30107080D01*
X47925500Y31338481D01*
X47944407Y31396672D01*
X47954490Y31408479D01*
X48022968Y31476956D01*
X48112003Y31621303D01*
X48165349Y31782292D01*
X48175500Y31881655D01*
X48175499Y32478344D01*
X48175499Y32478353D01*
X48165350Y32577700D01*
X48165349Y32577702D01*
X48165349Y32577708D01*
X48112003Y32738697D01*
X48106914Y32746947D01*
X48081352Y32788389D01*
X48022968Y32883044D01*
X47903044Y33002968D01*
X47824500Y33051415D01*
X47758700Y33092002D01*
X47597705Y33145350D01*
X47498352Y33155500D01*
X46951647Y33155500D01*
X46852300Y33145351D01*
X46852288Y33145348D01*
X46755640Y33113322D01*
X46694455Y33112966D01*
X46644747Y33148641D01*
X46625502Y33206721D01*
X46625500Y33207297D01*
X46625500Y37247003D01*
X46644407Y37305194D01*
X46654490Y37317001D01*
X48593090Y39255602D01*
X48593095Y39255605D01*
X48598731Y39261242D01*
X48598733Y39261242D01*
X48685858Y39348367D01*
X48754311Y39450814D01*
X48754312Y39450815D01*
X48801463Y39564649D01*
X48825500Y39685493D01*
X48825500Y39808707D01*
X48825500Y40692499D01*
X48844407Y40750690D01*
X48873279Y40777218D01*
X48910185Y40799528D01*
X49030472Y40919815D01*
X49118478Y41065394D01*
X49169086Y41227804D01*
X49175500Y41298384D01*
X49175500Y41811616D01*
X49169086Y41882196D01*
X49144079Y41962449D01*
X49144819Y42023629D01*
X49155919Y42041499D01*
X49155556Y42041680D01*
X49155558Y42041684D01*
X49159014Y42046480D01*
X49168600Y42061910D01*
X49174094Y42067404D01*
X49174098Y42067409D01*
X49819790Y42713101D01*
X49819795Y42713105D01*
X49825431Y42718742D01*
X49825433Y42718742D01*
X49912558Y42805867D01*
X49981011Y42908314D01*
X50028163Y43022148D01*
X50040864Y43086000D01*
X50052200Y43142993D01*
X50052200Y43266206D01*
X50052200Y48291606D01*
X50028163Y48412452D01*
X49981011Y48526286D01*
X49912558Y48628733D01*
X49825433Y48715858D01*
X49722986Y48784311D01*
X49722987Y48784311D01*
X49722985Y48784312D01*
X49638791Y48819186D01*
X49592266Y48858923D01*
X49577982Y48918418D01*
X49583920Y48945249D01*
X49588498Y48957523D01*
X49594091Y48972517D01*
X49600500Y49032127D01*
X49600499Y49627872D01*
X49594091Y49687483D01*
X49584107Y49714251D01*
X49543797Y49822330D01*
X49457549Y49937542D01*
X49457548Y49937543D01*
X49457546Y49937546D01*
X49457541Y49937550D01*
X49342329Y50023798D01*
X49207488Y50074090D01*
X49207483Y50074091D01*
X49207481Y50074092D01*
X49207477Y50074092D01*
X49176249Y50077450D01*
X49147873Y50080500D01*
X49147870Y50080500D01*
X48455365Y50080500D01*
X48397174Y50099407D01*
X48385362Y50109496D01*
X47969042Y50525815D01*
X47854308Y50602477D01*
X47726828Y50655280D01*
X47591496Y50682200D01*
X47591494Y50682200D01*
X47591493Y50682200D01*
X29946494Y50682200D01*
X29808506Y50682200D01*
X29808503Y50682200D01*
X29673172Y50655280D01*
X29673170Y50655280D01*
X29545691Y50602477D01*
X29430960Y50525817D01*
X14541546Y35636405D01*
X14487029Y35608628D01*
X14426597Y35618199D01*
X14389729Y35654359D01*
X14388197Y35653335D01*
X14304565Y35778497D01*
X14297889Y35788489D01*
X14186389Y35899989D01*
X14134159Y35934888D01*
X14055285Y35987591D01*
X14055274Y35987597D01*
X13909598Y36047937D01*
X13754971Y36078695D01*
X13719286Y36093477D01*
X13695587Y36109312D01*
X13639437Y36132569D01*
X13612716Y36143637D01*
X13581755Y36156462D01*
X13581753Y36156463D01*
X13581752Y36156463D01*
X13511176Y36170501D01*
X13460909Y36180500D01*
X13460907Y36180500D01*
X13460906Y36180500D01*
X13372898Y36180500D01*
X13314707Y36199407D01*
X13278743Y36248907D01*
X13278743Y36310093D01*
X13298002Y36341522D01*
X13296675Y36342611D01*
X13299754Y36346363D01*
X13299757Y36346366D01*
X13301308Y36348686D01*
X13368211Y36448814D01*
X13415363Y36562648D01*
X13429107Y36631744D01*
X13439400Y36683493D01*
X13439400Y36806706D01*
X13439400Y37791906D01*
X13438757Y37795137D01*
X13415363Y37912752D01*
X13368211Y38026586D01*
X13318214Y38101411D01*
X13299758Y38129033D01*
X13263393Y38165398D01*
X13212633Y38216159D01*
X13212633Y38216158D01*
X13212632Y38216159D01*
X10382159Y41046631D01*
X10382159Y41046632D01*
X10295035Y41133757D01*
X10243809Y41167985D01*
X10192587Y41202211D01*
X10192588Y41202211D01*
X10192586Y41202212D01*
X10112092Y41235553D01*
X10095422Y41242458D01*
X10078755Y41249362D01*
X10078749Y41249364D01*
X10018329Y41261382D01*
X10018329Y41261383D01*
X9957911Y41273400D01*
X9957907Y41273400D01*
X9957906Y41273400D01*
X8062303Y41273400D01*
X8004112Y41292307D01*
X7968148Y41341807D01*
X7968148Y41402993D01*
X7992297Y41442402D01*
X8030104Y41480208D01*
X8155051Y41652184D01*
X8251557Y41841588D01*
X8317246Y42043757D01*
X8320121Y42061910D01*
X8350500Y42253710D01*
X8350500Y42466291D01*
X8317247Y42676239D01*
X8305271Y42713097D01*
X8251557Y42878412D01*
X8155051Y43067816D01*
X8155049Y43067820D01*
X8030108Y43239787D01*
X8030106Y43239789D01*
X8030104Y43239792D01*
X7879792Y43390104D01*
X7879788Y43390107D01*
X7879786Y43390109D01*
X7707819Y43515050D01*
X7707815Y43515052D01*
X7674167Y43532196D01*
X7655336Y43541791D01*
X7612073Y43585054D01*
X7602501Y43645486D01*
X7630278Y43700003D01*
X7655335Y43718209D01*
X7707816Y43744949D01*
X7879792Y43869896D01*
X8030104Y44020208D01*
X8133880Y44163044D01*
X8155049Y44192181D01*
X8155051Y44192184D01*
X8251557Y44381588D01*
X8317246Y44583757D01*
X8350500Y44793713D01*
X8350500Y45006287D01*
X8350500Y45006291D01*
X8317247Y45216239D01*
X8317246Y45216243D01*
X8251557Y45418412D01*
X8155051Y45607816D01*
X8155049Y45607820D01*
X8030108Y45779787D01*
X8030106Y45779789D01*
X8030104Y45779792D01*
X7879792Y45930104D01*
X7879788Y45930107D01*
X7879786Y45930109D01*
X7707819Y46055050D01*
X7707815Y46055052D01*
X7676904Y46070802D01*
X7655336Y46081791D01*
X7612073Y46125054D01*
X7602501Y46185486D01*
X7630278Y46240003D01*
X7655335Y46258209D01*
X7707816Y46284949D01*
X7879792Y46409896D01*
X8030104Y46560208D01*
X8155051Y46732184D01*
X8251557Y46921588D01*
X8317246Y47123757D01*
X8320528Y47144479D01*
X8350500Y47333710D01*
X8350500Y47546291D01*
X8317247Y47756239D01*
X8317246Y47756243D01*
X8251557Y47958412D01*
X8155051Y48147816D01*
X8155049Y48147820D01*
X8030108Y48319787D01*
X8030106Y48319789D01*
X8030104Y48319792D01*
X7879792Y48470104D01*
X7879788Y48470107D01*
X7879786Y48470109D01*
X7707819Y48595050D01*
X7707815Y48595052D01*
X7614121Y48642791D01*
X7570856Y48686056D01*
X7561285Y48746488D01*
X7589062Y48801005D01*
X7643579Y48828782D01*
X7659066Y48830001D01*
X7894790Y48830001D01*
X7894791Y48830002D01*
X7919874Y48832910D01*
X8022477Y48878214D01*
X8101786Y48957523D01*
X8147090Y49060128D01*
X8149999Y49085203D01*
X8150000Y49085205D01*
X8150000Y49779999D01*
X8149999Y49780000D01*
X7461880Y49780000D01*
X7465925Y49787007D01*
X7500000Y49914174D01*
X7500000Y50045826D01*
X7465925Y50172993D01*
X7461880Y50180000D01*
X8149998Y50180000D01*
X8149999Y50180001D01*
X8149999Y50874790D01*
X8149998Y50874792D01*
X8147090Y50899875D01*
X8101786Y51002478D01*
X8022477Y51081787D01*
X7919872Y51127091D01*
X7894797Y51130000D01*
X7200001Y51130000D01*
X7200000Y51129999D01*
X7200000Y50441880D01*
X7192993Y50445925D01*
X7065826Y50480000D01*
X6934174Y50480000D01*
X6807007Y50445925D01*
X6800000Y50441880D01*
X6800000Y51129999D01*
X6799999Y51130000D01*
X6105210Y51130000D01*
X6105207Y51129999D01*
X6080125Y51127091D01*
X5977522Y51081787D01*
X5898213Y51002478D01*
X5852909Y50899873D01*
X5850000Y50874798D01*
X5850000Y50180001D01*
X5850001Y50180000D01*
X6538120Y50180000D01*
X6534075Y50172993D01*
X6500000Y50045826D01*
X6500000Y49914174D01*
X6534075Y49787007D01*
X6538120Y49780000D01*
X5850002Y49780000D01*
X5850001Y49779999D01*
X5850001Y49085209D01*
X5852909Y49060126D01*
X5898213Y48957523D01*
X5977522Y48878214D01*
X6080127Y48832910D01*
X6105203Y48830001D01*
X6340932Y48830001D01*
X6399122Y48811094D01*
X6435086Y48761594D01*
X6435087Y48700409D01*
X6399123Y48650909D01*
X6385878Y48642792D01*
X6292189Y48595055D01*
X6292180Y48595050D01*
X6120213Y48470109D01*
X5969891Y48319787D01*
X5844950Y48147820D01*
X5844948Y48147816D01*
X5748443Y47958413D01*
X5682752Y47756239D01*
X5649500Y47546291D01*
X5649500Y47333710D01*
X5682752Y47123762D01*
X5748443Y46921588D01*
X5844948Y46732185D01*
X5844950Y46732181D01*
X5969891Y46560214D01*
X5969893Y46560212D01*
X5969896Y46560208D01*
X6120208Y46409896D01*
X6120211Y46409894D01*
X6120213Y46409892D01*
X6292180Y46284951D01*
X6292184Y46284949D01*
X6344662Y46258210D01*
X6387927Y46214945D01*
X6397498Y46154513D01*
X6369720Y46099996D01*
X6344662Y46081790D01*
X6292184Y46055052D01*
X6292180Y46055050D01*
X6120213Y45930109D01*
X5969891Y45779787D01*
X5844950Y45607820D01*
X5844948Y45607816D01*
X5748443Y45418413D01*
X5682752Y45216239D01*
X5649500Y45006291D01*
X5649500Y44793710D01*
X5682752Y44583762D01*
X5748443Y44381588D01*
X5844948Y44192185D01*
X5844950Y44192181D01*
X5969891Y44020214D01*
X5969893Y44020212D01*
X5969896Y44020208D01*
X6120208Y43869896D01*
X6120211Y43869894D01*
X6120213Y43869892D01*
X6292180Y43744951D01*
X6292184Y43744949D01*
X6344662Y43718210D01*
X6387927Y43674945D01*
X6397498Y43614513D01*
X6369720Y43559996D01*
X6344662Y43541790D01*
X6292184Y43515052D01*
X6292180Y43515050D01*
X6120213Y43390109D01*
X5969891Y43239787D01*
X5844950Y43067820D01*
X5844948Y43067816D01*
X5748443Y42878413D01*
X5682752Y42676239D01*
X5649500Y42466291D01*
X5649500Y42253710D01*
X5682752Y42043762D01*
X5748443Y41841588D01*
X5844948Y41652185D01*
X5844950Y41652181D01*
X5969891Y41480214D01*
X5969893Y41480212D01*
X5969896Y41480208D01*
X6007702Y41442402D01*
X6035478Y41387887D01*
X6025907Y41327455D01*
X5982642Y41284190D01*
X5937697Y41273400D01*
X5081088Y41273400D01*
X5020670Y41261383D01*
X5020671Y41261382D01*
X4960248Y41249363D01*
X4960246Y41249363D01*
X4926907Y41235553D01*
X4846416Y41202214D01*
X4846415Y41202214D01*
X4795190Y41167985D01*
X4743967Y41133759D01*
X4656841Y41046634D01*
X4656842Y41046633D01*
X2164141Y38553933D01*
X2132611Y38506744D01*
X2095684Y38451481D01*
X2083924Y38423085D01*
X2083923Y38423082D01*
X2048537Y38337654D01*
X2048537Y38337652D01*
X2024500Y38216809D01*
X2024500Y36515454D01*
X2005593Y36457263D01*
X1995506Y36445452D01*
X1981919Y36431865D01*
X1898256Y36290398D01*
X1852403Y36132573D01*
X1852401Y36132566D01*
X1849500Y36095689D01*
X1849500Y34789312D01*
X1852401Y34752435D01*
X1852401Y34752432D01*
X1852402Y34752431D01*
X1898256Y34594602D01*
X1981919Y34453135D01*
X1995505Y34439549D01*
X2023281Y34385034D01*
X2024500Y34369547D01*
X2024500Y34093389D01*
X2036518Y34032971D01*
X2036518Y34032970D01*
X2038669Y34022153D01*
X2038670Y34022153D01*
X2038670Y34022152D01*
X2048537Y33972549D01*
X2068507Y33924337D01*
X2088948Y33874985D01*
X2093747Y33813988D01*
X2061777Y33761820D01*
X2026935Y33742583D01*
X1885394Y33698479D01*
X1885392Y33698478D01*
X1739816Y33610473D01*
X1619527Y33490184D01*
X1531522Y33344608D01*
X1531521Y33344606D01*
X1480913Y33182195D01*
X1474500Y33111621D01*
X300500Y33111621D01*
X300500Y50797227D01*
X300656Y50802778D01*
X305173Y50883203D01*
X316648Y51087546D01*
X318294Y51116858D01*
X319537Y51127884D01*
X371766Y51435283D01*
X374227Y51446069D01*
X441008Y51677871D01*
X50049500Y51677871D01*
X50049500Y49882134D01*
X50049501Y49882130D01*
X50055908Y49822520D01*
X50055909Y49822515D01*
X50106202Y49687671D01*
X50153156Y49624949D01*
X50192454Y49572454D01*
X50192457Y49572452D01*
X50192458Y49572451D01*
X50307670Y49486203D01*
X50442511Y49435911D01*
X50442512Y49435911D01*
X50442517Y49435909D01*
X50502127Y49429500D01*
X52297872Y49429501D01*
X52357483Y49435909D01*
X52474357Y49479500D01*
X52492329Y49486203D01*
X52492329Y49486204D01*
X52492331Y49486204D01*
X52607546Y49572454D01*
X52693796Y49687669D01*
X52703711Y49714251D01*
X52744021Y49822330D01*
X52744091Y49822517D01*
X52745609Y49836638D01*
X52770628Y49892473D01*
X52823689Y49922940D01*
X52884524Y49916400D01*
X52914042Y49896062D01*
X53060208Y49749896D01*
X53060211Y49749894D01*
X53060213Y49749892D01*
X53232180Y49624951D01*
X53232184Y49624949D01*
X53421588Y49528443D01*
X53623757Y49462754D01*
X53623758Y49462754D01*
X53623761Y49462753D01*
X53833710Y49429500D01*
X53833713Y49429500D01*
X54046290Y49429500D01*
X54256238Y49462753D01*
X54256239Y49462754D01*
X54256243Y49462754D01*
X54458412Y49528443D01*
X54647816Y49624949D01*
X54651833Y49627867D01*
X54713943Y49672993D01*
X54819792Y49749896D01*
X54970104Y49900208D01*
X55095051Y50072184D01*
X55121790Y50124664D01*
X55165054Y50167927D01*
X55225486Y50177499D01*
X55280003Y50149722D01*
X55298210Y50124663D01*
X55324948Y50072185D01*
X55324950Y50072181D01*
X55449891Y49900214D01*
X55449893Y49900212D01*
X55449896Y49900208D01*
X55600208Y49749896D01*
X55600211Y49749894D01*
X55600213Y49749892D01*
X55772180Y49624951D01*
X55772184Y49624949D01*
X55961588Y49528443D01*
X56163757Y49462754D01*
X56163758Y49462754D01*
X56163761Y49462753D01*
X56373710Y49429500D01*
X56373713Y49429500D01*
X56586290Y49429500D01*
X56796238Y49462753D01*
X56796239Y49462754D01*
X56796243Y49462754D01*
X56998412Y49528443D01*
X57187816Y49624949D01*
X57191833Y49627867D01*
X57253943Y49672993D01*
X57359792Y49749896D01*
X57510104Y49900208D01*
X57635051Y50072184D01*
X57661790Y50124664D01*
X57705054Y50167927D01*
X57765486Y50177499D01*
X57820003Y50149722D01*
X57838210Y50124663D01*
X57864948Y50072185D01*
X57864950Y50072181D01*
X57989891Y49900214D01*
X57989893Y49900212D01*
X57989896Y49900208D01*
X58140208Y49749896D01*
X58140211Y49749894D01*
X58140213Y49749892D01*
X58312180Y49624951D01*
X58312184Y49624949D01*
X58501588Y49528443D01*
X58703757Y49462754D01*
X58703758Y49462754D01*
X58703761Y49462753D01*
X58913710Y49429500D01*
X58913713Y49429500D01*
X59126290Y49429500D01*
X59336238Y49462753D01*
X59336239Y49462754D01*
X59336243Y49462754D01*
X59538412Y49528443D01*
X59727816Y49624949D01*
X59731833Y49627867D01*
X59793943Y49672993D01*
X59899792Y49749896D01*
X60050104Y49900208D01*
X60175051Y50072184D01*
X60271557Y50261588D01*
X60301254Y50352988D01*
X60337217Y50402485D01*
X60395407Y50421393D01*
X60453598Y50402486D01*
X60489562Y50352988D01*
X60494250Y50338561D01*
X60576430Y50177272D01*
X60617667Y50120512D01*
X61091980Y50594825D01*
X61094075Y50587007D01*
X61159901Y50472993D01*
X61252993Y50379901D01*
X61367007Y50314075D01*
X61374821Y50311981D01*
X60900511Y49837670D01*
X60957275Y49796429D01*
X61118559Y49714251D01*
X61290710Y49658317D01*
X61469490Y49630000D01*
X61650510Y49630000D01*
X61829289Y49658317D01*
X62001440Y49714251D01*
X62162728Y49796431D01*
X62219487Y49837670D01*
X61745176Y50311981D01*
X61752993Y50314075D01*
X61867007Y50379901D01*
X61960099Y50472993D01*
X62025925Y50587007D01*
X62028019Y50594823D01*
X62502330Y50120512D01*
X62543569Y50177272D01*
X62625749Y50338560D01*
X62681683Y50510711D01*
X62710000Y50689490D01*
X62710000Y50870511D01*
X62681683Y51049290D01*
X62626605Y51218808D01*
X62626606Y51279993D01*
X62662570Y51329493D01*
X62720760Y51348400D01*
X67782702Y51348400D01*
X67840893Y51329493D01*
X67852706Y51319404D01*
X68057011Y51115099D01*
X68084788Y51060582D01*
X68075217Y51000150D01*
X68066263Y50985769D01*
X68056202Y50972329D01*
X68005910Y50837489D01*
X68005908Y50837478D01*
X67999500Y50777871D01*
X67999500Y49932134D01*
X67999501Y49932130D01*
X68005908Y49872520D01*
X68005909Y49872515D01*
X68056202Y49737671D01*
X68140586Y49624949D01*
X68142454Y49622454D01*
X68142457Y49622452D01*
X68142458Y49622451D01*
X68257670Y49536203D01*
X68392511Y49485911D01*
X68392512Y49485911D01*
X68392517Y49485909D01*
X68452127Y49479500D01*
X69547872Y49479501D01*
X69607483Y49485909D01*
X69721523Y49528443D01*
X69742329Y49536203D01*
X69742329Y49536204D01*
X69742331Y49536204D01*
X69857546Y49622454D01*
X69907983Y49689830D01*
X69957991Y49725082D01*
X69987236Y49729500D01*
X74012764Y49729500D01*
X74070955Y49710593D01*
X74092017Y49689829D01*
X74140584Y49624951D01*
X74142454Y49622454D01*
X74142457Y49622452D01*
X74142458Y49622451D01*
X74257670Y49536203D01*
X74392511Y49485911D01*
X74392512Y49485911D01*
X74392517Y49485909D01*
X74452127Y49479500D01*
X75547872Y49479501D01*
X75607483Y49485909D01*
X75721523Y49528443D01*
X75742329Y49536203D01*
X75742329Y49536204D01*
X75742331Y49536204D01*
X75857546Y49622454D01*
X75943796Y49737669D01*
X75948357Y49749896D01*
X75994089Y49872512D01*
X75994090Y49872515D01*
X75994091Y49872517D01*
X76000500Y49932127D01*
X76000499Y50777872D01*
X75994091Y50837483D01*
X75982103Y50869624D01*
X75943797Y50972330D01*
X75857549Y51087542D01*
X75857548Y51087543D01*
X75857546Y51087546D01*
X75857541Y51087550D01*
X75742329Y51173798D01*
X75607488Y51224090D01*
X75607483Y51224091D01*
X75607481Y51224092D01*
X75607477Y51224092D01*
X75576249Y51227450D01*
X75547873Y51230500D01*
X75547870Y51230500D01*
X74452133Y51230500D01*
X74452129Y51230500D01*
X74452128Y51230499D01*
X74444949Y51229728D01*
X74392519Y51224092D01*
X74392514Y51224091D01*
X74257670Y51173798D01*
X74142458Y51087550D01*
X74142450Y51087542D01*
X74092017Y51020171D01*
X74042009Y50984918D01*
X74012764Y50980500D01*
X69987236Y50980500D01*
X69929045Y50999407D01*
X69907983Y51020171D01*
X69886184Y51049290D01*
X69859310Y51085189D01*
X69857549Y51087542D01*
X69857548Y51087543D01*
X69857546Y51087546D01*
X69845928Y51096243D01*
X69742330Y51173797D01*
X69648117Y51208936D01*
X69600203Y51246987D01*
X69591250Y51263809D01*
X69554313Y51352983D01*
X69554313Y51352984D01*
X69485858Y51455433D01*
X68568659Y52372631D01*
X68568659Y52372632D01*
X68481535Y52459757D01*
X68430309Y52493985D01*
X68379087Y52528211D01*
X68379088Y52528211D01*
X68379086Y52528212D01*
X68298592Y52561553D01*
X68281922Y52568458D01*
X68265255Y52575362D01*
X68265249Y52575364D01*
X68204829Y52587382D01*
X68204829Y52587383D01*
X68144411Y52599400D01*
X68144407Y52599400D01*
X68144406Y52599400D01*
X60280407Y52599400D01*
X60280387Y52599401D01*
X60275507Y52599401D01*
X60152294Y52599401D01*
X60152291Y52599401D01*
X60112536Y52591493D01*
X60051497Y52579352D01*
X60051494Y52579352D01*
X60031448Y52575363D01*
X60031442Y52575362D01*
X59984297Y52555834D01*
X59984297Y52555833D01*
X59964766Y52547744D01*
X59917615Y52528213D01*
X59815167Y52459759D01*
X59467003Y52111596D01*
X59412487Y52083819D01*
X59366408Y52087445D01*
X59336240Y52097247D01*
X59126290Y52130500D01*
X59126287Y52130500D01*
X58913713Y52130500D01*
X58913710Y52130500D01*
X58703761Y52097248D01*
X58501587Y52031557D01*
X58312184Y51935052D01*
X58312180Y51935050D01*
X58140213Y51810109D01*
X57989891Y51659787D01*
X57864950Y51487820D01*
X57864948Y51487816D01*
X57838210Y51435338D01*
X57794945Y51392073D01*
X57734513Y51382502D01*
X57679996Y51410280D01*
X57661790Y51435338D01*
X57635051Y51487816D01*
X57635049Y51487820D01*
X57510108Y51659787D01*
X57510106Y51659789D01*
X57510104Y51659792D01*
X57359792Y51810104D01*
X57359788Y51810107D01*
X57359786Y51810109D01*
X57187819Y51935050D01*
X57187815Y51935052D01*
X56998412Y52031557D01*
X56796238Y52097248D01*
X56586290Y52130500D01*
X56586287Y52130500D01*
X56373713Y52130500D01*
X56373710Y52130500D01*
X56163761Y52097248D01*
X55961587Y52031557D01*
X55772184Y51935052D01*
X55772180Y51935050D01*
X55600213Y51810109D01*
X55449891Y51659787D01*
X55324950Y51487820D01*
X55324948Y51487816D01*
X55298210Y51435338D01*
X55254945Y51392073D01*
X55194513Y51382502D01*
X55139996Y51410280D01*
X55121790Y51435338D01*
X55095051Y51487816D01*
X55095049Y51487820D01*
X54970108Y51659787D01*
X54970106Y51659789D01*
X54970104Y51659792D01*
X54819792Y51810104D01*
X54819788Y51810107D01*
X54819786Y51810109D01*
X54647819Y51935050D01*
X54647815Y51935052D01*
X54458412Y52031557D01*
X54256238Y52097248D01*
X54046290Y52130500D01*
X54046287Y52130500D01*
X53833713Y52130500D01*
X53833710Y52130500D01*
X53623761Y52097248D01*
X53421587Y52031557D01*
X53232184Y51935052D01*
X53232180Y51935050D01*
X53060212Y51810108D01*
X53060206Y51810103D01*
X52914044Y51663941D01*
X52859528Y51636164D01*
X52799096Y51645736D01*
X52755831Y51689000D01*
X52745608Y51723367D01*
X52744091Y51737478D01*
X52744091Y51737483D01*
X52717006Y51810103D01*
X52693797Y51872330D01*
X52607549Y51987542D01*
X52607548Y51987543D01*
X52607546Y51987546D01*
X52531821Y52044234D01*
X52492329Y52073798D01*
X52357488Y52124090D01*
X52357483Y52124091D01*
X52357481Y52124092D01*
X52357477Y52124092D01*
X52326249Y52127450D01*
X52297873Y52130500D01*
X52297870Y52130500D01*
X50502133Y52130500D01*
X50502129Y52130500D01*
X50502128Y52130499D01*
X50494949Y52129728D01*
X50442519Y52124092D01*
X50442514Y52124091D01*
X50307670Y52073798D01*
X50192458Y51987550D01*
X50192450Y51987542D01*
X50106202Y51872330D01*
X50055910Y51737489D01*
X50055908Y51737478D01*
X50049500Y51677871D01*
X441008Y51677871D01*
X460552Y51745709D01*
X464212Y51756169D01*
X583536Y52044242D01*
X588350Y52054237D01*
X739172Y52327130D01*
X745068Y52336513D01*
X925508Y52590819D01*
X932407Y52599470D01*
X1140196Y52831986D01*
X1148014Y52839804D01*
X1380530Y53047593D01*
X1389181Y53054492D01*
X1643487Y53234932D01*
X1652870Y53240828D01*
X1925769Y53391653D01*
X1935758Y53396464D01*
X2223831Y53515788D01*
X2234291Y53519448D01*
X2533931Y53605773D01*
X2544717Y53608234D01*
X2852123Y53660464D01*
X2863142Y53661706D01*
X3177222Y53679345D01*
X3182773Y53679500D01*
X3227594Y53679500D01*
X82372405Y53679500D01*
X82417227Y53679500D01*
X82422777Y53679345D01*
G37*
G04 #@! TD.AperFunction*
M02*
